%TF.GenerationSoftware,KiCad,Pcbnew,(6.0.7-1)-1*%
%TF.CreationDate,2022-09-13T20:48:51-04:00*%
%TF.ProjectId,egret,65677265-742e-46b6-9963-61645f706362,v1.0.0*%
%TF.SameCoordinates,Original*%
%TF.FileFunction,Legend,Top*%
%TF.FilePolarity,Positive*%
%FSLAX46Y46*%
G04 Gerber Fmt 4.6, Leading zero omitted, Abs format (unit mm)*
G04 Created by KiCad (PCBNEW (6.0.7-1)-1) date 2022-09-13 20:48:51*
%MOMM*%
%LPD*%
G01*
G04 APERTURE LIST*
G04 Aperture macros list*
%AMRoundRect*
0 Rectangle with rounded corners*
0 $1 Rounding radius*
0 $2 $3 $4 $5 $6 $7 $8 $9 X,Y pos of 4 corners*
0 Add a 4 corners polygon primitive as box body*
4,1,4,$2,$3,$4,$5,$6,$7,$8,$9,$2,$3,0*
0 Add four circle primitives for the rounded corners*
1,1,$1+$1,$2,$3*
1,1,$1+$1,$4,$5*
1,1,$1+$1,$6,$7*
1,1,$1+$1,$8,$9*
0 Add four rect primitives between the rounded corners*
20,1,$1+$1,$2,$3,$4,$5,0*
20,1,$1+$1,$4,$5,$6,$7,0*
20,1,$1+$1,$6,$7,$8,$9,0*
20,1,$1+$1,$8,$9,$2,$3,0*%
G04 Aperture macros list end*
%ADD10C,0.150000*%
%ADD11C,0.100000*%
%ADD12R,1.752600X1.752600*%
%ADD13C,1.752600*%
%ADD14C,1.100000*%
%ADD15RoundRect,0.050000X-0.547352X-0.512743X0.338975X-0.669026X0.547352X0.512743X-0.338975X0.669026X0*%
%ADD16C,1.801800*%
%ADD17C,3.100000*%
%ADD18C,3.529000*%
%ADD19RoundRect,0.050000X-0.876300X0.876300X-0.876300X-0.876300X0.876300X-0.876300X0.876300X0.876300X0*%
%ADD20C,1.852600*%
%ADD21RoundRect,0.050000X-0.667480X-0.342009X0.141435X-0.736543X0.667480X0.342009X-0.141435X0.736543X0*%
%ADD22RoundRect,0.050000X-0.338975X-0.669026X0.547352X-0.512743X0.338975X0.669026X-0.547352X0.512743X0*%
%ADD23C,4.500000*%
%ADD24RoundRect,0.050000X-0.510252X-0.549675X0.384818X-0.643751X0.510252X0.549675X-0.384818X0.643751X0*%
%ADD25RoundRect,0.050000X0.850000X-0.600000X0.850000X0.600000X-0.850000X0.600000X-0.850000X-0.600000X0*%
%ADD26O,1.800000X1.300000*%
%ADD27RoundRect,0.050000X-0.242565X-0.709692X0.613386X-0.431576X0.242565X0.709692X-0.613386X0.431576X0*%
%ADD28RoundRect,0.050000X-0.384818X-0.643751X0.510252X-0.549675X0.384818X0.643751X-0.510252X0.549675X0*%
%ADD29RoundRect,0.050000X-0.141435X-0.736543X0.667480X-0.342009X0.141435X0.736543X-0.667480X0.342009X0*%
%ADD30C,2.100000*%
%ADD31RoundRect,0.050000X-0.613386X-0.431576X0.242565X-0.709692X0.613386X0.431576X-0.242565X0.709692X0*%
G04 APERTURE END LIST*
D10*
X208129761Y-107214285D02*
X208177380Y-107309523D01*
X208177380Y-107500000D01*
X208129761Y-107595238D01*
X208034523Y-107642857D01*
X207653571Y-107642857D01*
X207558333Y-107595238D01*
X207510714Y-107500000D01*
X207510714Y-107309523D01*
X207558333Y-107214285D01*
X207653571Y-107166666D01*
X207748809Y-107166666D01*
X207844047Y-107642857D01*
X207510714Y-106309523D02*
X208320238Y-106309523D01*
X208415476Y-106357142D01*
X208463095Y-106404761D01*
X208510714Y-106500000D01*
X208510714Y-106642857D01*
X208463095Y-106738095D01*
X208129761Y-106309523D02*
X208177380Y-106404761D01*
X208177380Y-106595238D01*
X208129761Y-106690476D01*
X208082142Y-106738095D01*
X207986904Y-106785714D01*
X207701190Y-106785714D01*
X207605952Y-106738095D01*
X207558333Y-106690476D01*
X207510714Y-106595238D01*
X207510714Y-106404761D01*
X207558333Y-106309523D01*
X208177380Y-105833333D02*
X207510714Y-105833333D01*
X207701190Y-105833333D02*
X207605952Y-105785714D01*
X207558333Y-105738095D01*
X207510714Y-105642857D01*
X207510714Y-105547619D01*
X208129761Y-104833333D02*
X208177380Y-104928571D01*
X208177380Y-105119047D01*
X208129761Y-105214285D01*
X208034523Y-105261904D01*
X207653571Y-105261904D01*
X207558333Y-105214285D01*
X207510714Y-105119047D01*
X207510714Y-104928571D01*
X207558333Y-104833333D01*
X207653571Y-104785714D01*
X207748809Y-104785714D01*
X207844047Y-105261904D01*
X207510714Y-104500000D02*
X207510714Y-104119047D01*
X207177380Y-104357142D02*
X208034523Y-104357142D01*
X208129761Y-104309523D01*
X208177380Y-104214285D01*
X208177380Y-104119047D01*
X207510714Y-103119047D02*
X208177380Y-102880952D01*
X207510714Y-102642857D01*
X208177380Y-101738095D02*
X208177380Y-102309523D01*
X208177380Y-102023809D02*
X207177380Y-102023809D01*
X207320238Y-102119047D01*
X207415476Y-102214285D01*
X207463095Y-102309523D01*
X208082142Y-101309523D02*
X208129761Y-101261904D01*
X208177380Y-101309523D01*
X208129761Y-101357142D01*
X208082142Y-101309523D01*
X208177380Y-101309523D01*
X207177380Y-100642857D02*
X207177380Y-100547619D01*
X207225000Y-100452380D01*
X207272619Y-100404761D01*
X207367857Y-100357142D01*
X207558333Y-100309523D01*
X207796428Y-100309523D01*
X207986904Y-100357142D01*
X208082142Y-100404761D01*
X208129761Y-100452380D01*
X208177380Y-100547619D01*
X208177380Y-100642857D01*
X208129761Y-100738095D01*
X208082142Y-100785714D01*
X207986904Y-100833333D01*
X207796428Y-100880952D01*
X207558333Y-100880952D01*
X207367857Y-100833333D01*
X207272619Y-100785714D01*
X207225000Y-100738095D01*
X207177380Y-100642857D01*
X208177380Y-99119047D02*
X207177380Y-99119047D01*
X207558333Y-99119047D02*
X207510714Y-99023809D01*
X207510714Y-98833333D01*
X207558333Y-98738095D01*
X207605952Y-98690476D01*
X207701190Y-98642857D01*
X207986904Y-98642857D01*
X208082142Y-98690476D01*
X208129761Y-98738095D01*
X208177380Y-98833333D01*
X208177380Y-99023809D01*
X208129761Y-99119047D01*
X207510714Y-98309523D02*
X208177380Y-98071428D01*
X207510714Y-97833333D02*
X208177380Y-98071428D01*
X208415476Y-98166666D01*
X208463095Y-98214285D01*
X208510714Y-98309523D01*
X208177380Y-96690476D02*
X207510714Y-96690476D01*
X207701190Y-96690476D02*
X207605952Y-96642857D01*
X207558333Y-96595238D01*
X207510714Y-96500000D01*
X207510714Y-96404761D01*
X208129761Y-96119047D02*
X208177380Y-96023809D01*
X208177380Y-95833333D01*
X208129761Y-95738095D01*
X208034523Y-95690476D01*
X207986904Y-95690476D01*
X207891666Y-95738095D01*
X207844047Y-95833333D01*
X207844047Y-95976190D01*
X207796428Y-96071428D01*
X207701190Y-96119047D01*
X207653571Y-96119047D01*
X207558333Y-96071428D01*
X207510714Y-95976190D01*
X207510714Y-95833333D01*
X207558333Y-95738095D01*
X208129761Y-94833333D02*
X208177380Y-94928571D01*
X208177380Y-95119047D01*
X208129761Y-95214285D01*
X208082142Y-95261904D01*
X207986904Y-95309523D01*
X207701190Y-95309523D01*
X207605952Y-95261904D01*
X207558333Y-95214285D01*
X207510714Y-95119047D01*
X207510714Y-94928571D01*
X207558333Y-94833333D01*
X208177380Y-94404761D02*
X207177380Y-94404761D01*
X208177380Y-93976190D02*
X207653571Y-93976190D01*
X207558333Y-94023809D01*
X207510714Y-94119047D01*
X207510714Y-94261904D01*
X207558333Y-94357142D01*
X207605952Y-94404761D01*
X208129761Y-93119047D02*
X208177380Y-93214285D01*
X208177380Y-93404761D01*
X208129761Y-93500000D01*
X208034523Y-93547619D01*
X207653571Y-93547619D01*
X207558333Y-93500000D01*
X207510714Y-93404761D01*
X207510714Y-93214285D01*
X207558333Y-93119047D01*
X207653571Y-93071428D01*
X207748809Y-93071428D01*
X207844047Y-93547619D01*
X207510714Y-92642857D02*
X208177380Y-92642857D01*
X207605952Y-92642857D02*
X207558333Y-92595238D01*
X207510714Y-92500000D01*
X207510714Y-92357142D01*
X207558333Y-92261904D01*
X207653571Y-92214285D01*
X208177380Y-92214285D01*
X208177380Y-91738095D02*
X207177380Y-91738095D01*
X207796428Y-91642857D02*
X208177380Y-91357142D01*
X207510714Y-91357142D02*
X207891666Y-91738095D01*
X203639285Y-83285714D02*
X204020238Y-83285714D01*
X203782142Y-83952380D02*
X203782142Y-83095238D01*
X203829761Y-83000000D01*
X203925000Y-82952380D01*
X204020238Y-82952380D01*
X204782142Y-83952380D02*
X204782142Y-83428571D01*
X204734523Y-83333333D01*
X204639285Y-83285714D01*
X204448809Y-83285714D01*
X204353571Y-83333333D01*
X204782142Y-83904761D02*
X204686904Y-83952380D01*
X204448809Y-83952380D01*
X204353571Y-83904761D01*
X204305952Y-83809523D01*
X204305952Y-83714285D01*
X204353571Y-83619047D01*
X204448809Y-83571428D01*
X204686904Y-83571428D01*
X204782142Y-83523809D01*
X205686904Y-83904761D02*
X205591666Y-83952380D01*
X205401190Y-83952380D01*
X205305952Y-83904761D01*
X205258333Y-83857142D01*
X205210714Y-83761904D01*
X205210714Y-83476190D01*
X205258333Y-83380952D01*
X205305952Y-83333333D01*
X205401190Y-83285714D01*
X205591666Y-83285714D01*
X205686904Y-83333333D01*
X206496428Y-83904761D02*
X206401190Y-83952380D01*
X206210714Y-83952380D01*
X206115476Y-83904761D01*
X206067857Y-83809523D01*
X206067857Y-83428571D01*
X206115476Y-83333333D01*
X206210714Y-83285714D01*
X206401190Y-83285714D01*
X206496428Y-83333333D01*
X206544047Y-83428571D01*
X206544047Y-83523809D01*
X206067857Y-83619047D01*
X208163095Y-83285714D02*
X208163095Y-83952380D01*
X207734523Y-83285714D02*
X207734523Y-83809523D01*
X207782142Y-83904761D01*
X207877380Y-83952380D01*
X208020238Y-83952380D01*
X208115476Y-83904761D01*
X208163095Y-83857142D01*
X208639285Y-83285714D02*
X208639285Y-84285714D01*
X208639285Y-83333333D02*
X208734523Y-83285714D01*
X208925000Y-83285714D01*
X209020238Y-83333333D01*
X209067857Y-83380952D01*
X209115476Y-83476190D01*
X209115476Y-83761904D01*
X209067857Y-83857142D01*
X209020238Y-83904761D01*
X208925000Y-83952380D01*
X208734523Y-83952380D01*
X208639285Y-83904761D01*
%TO.C,MCU1*%
X201140845Y-108692261D02*
X201102750Y-108730356D01*
X200988464Y-108768451D01*
X200912273Y-108768451D01*
X200797988Y-108730356D01*
X200721797Y-108654166D01*
X200683702Y-108577975D01*
X200645607Y-108425594D01*
X200645607Y-108311308D01*
X200683702Y-108158927D01*
X200721797Y-108082737D01*
X200797988Y-108006547D01*
X200912273Y-107968451D01*
X200988464Y-107968451D01*
X201102750Y-108006547D01*
X201140845Y-108044642D01*
X201636083Y-107968451D02*
X201712273Y-107968451D01*
X201788464Y-108006547D01*
X201826559Y-108044642D01*
X201864654Y-108120832D01*
X201902750Y-108273213D01*
X201902750Y-108463689D01*
X201864654Y-108616070D01*
X201826559Y-108692261D01*
X201788464Y-108730356D01*
X201712273Y-108768451D01*
X201636083Y-108768451D01*
X201559892Y-108730356D01*
X201521797Y-108692261D01*
X201483702Y-108616070D01*
X201445607Y-108463689D01*
X201445607Y-108273213D01*
X201483702Y-108120832D01*
X201521797Y-108044642D01*
X201559892Y-108006547D01*
X201636083Y-107968451D01*
X202169416Y-107968451D02*
X202664654Y-107968451D01*
X202397988Y-108273213D01*
X202512273Y-108273213D01*
X202588464Y-108311308D01*
X202626559Y-108349404D01*
X202664654Y-108425594D01*
X202664654Y-108616070D01*
X202626559Y-108692261D01*
X202588464Y-108730356D01*
X202512273Y-108768451D01*
X202283702Y-108768451D01*
X202207511Y-108730356D01*
X202169416Y-108692261D01*
X200965845Y-85978451D02*
X200584892Y-85978451D01*
X200584892Y-85178451D01*
X201232511Y-85559404D02*
X201499178Y-85559404D01*
X201613464Y-85978451D02*
X201232511Y-85978451D01*
X201232511Y-85178451D01*
X201613464Y-85178451D01*
X201956321Y-85978451D02*
X201956321Y-85178451D01*
X202146797Y-85178451D01*
X202261083Y-85216547D01*
X202337273Y-85292737D01*
X202375369Y-85368927D01*
X202413464Y-85521308D01*
X202413464Y-85635594D01*
X202375369Y-85787975D01*
X202337273Y-85864166D01*
X202261083Y-85940356D01*
X202146797Y-85978451D01*
X201956321Y-85978451D01*
X201140845Y-106152261D02*
X201102750Y-106190356D01*
X200988464Y-106228451D01*
X200912273Y-106228451D01*
X200797988Y-106190356D01*
X200721797Y-106114166D01*
X200683702Y-106037975D01*
X200645607Y-105885594D01*
X200645607Y-105771308D01*
X200683702Y-105618927D01*
X200721797Y-105542737D01*
X200797988Y-105466547D01*
X200912273Y-105428451D01*
X200988464Y-105428451D01*
X201102750Y-105466547D01*
X201140845Y-105504642D01*
X201636083Y-105428451D02*
X201712273Y-105428451D01*
X201788464Y-105466547D01*
X201826559Y-105504642D01*
X201864654Y-105580832D01*
X201902750Y-105733213D01*
X201902750Y-105923689D01*
X201864654Y-106076070D01*
X201826559Y-106152261D01*
X201788464Y-106190356D01*
X201712273Y-106228451D01*
X201636083Y-106228451D01*
X201559892Y-106190356D01*
X201521797Y-106152261D01*
X201483702Y-106076070D01*
X201445607Y-105923689D01*
X201445607Y-105733213D01*
X201483702Y-105580832D01*
X201521797Y-105504642D01*
X201559892Y-105466547D01*
X201636083Y-105428451D01*
X202588464Y-105695118D02*
X202588464Y-106228451D01*
X202397988Y-105390356D02*
X202207511Y-105961785D01*
X202702750Y-105961785D01*
X210740845Y-113772261D02*
X210702750Y-113810356D01*
X210588464Y-113848451D01*
X210512273Y-113848451D01*
X210397988Y-113810356D01*
X210321797Y-113734166D01*
X210283702Y-113657975D01*
X210245607Y-113505594D01*
X210245607Y-113391308D01*
X210283702Y-113238927D01*
X210321797Y-113162737D01*
X210397988Y-113086547D01*
X210512273Y-113048451D01*
X210588464Y-113048451D01*
X210702750Y-113086547D01*
X210740845Y-113124642D01*
X211502750Y-113848451D02*
X211045607Y-113848451D01*
X211274178Y-113848451D02*
X211274178Y-113048451D01*
X211197988Y-113162737D01*
X211121797Y-113238927D01*
X211045607Y-113277023D01*
X211997988Y-113048451D02*
X212074178Y-113048451D01*
X212150369Y-113086547D01*
X212188464Y-113124642D01*
X212226559Y-113200832D01*
X212264654Y-113353213D01*
X212264654Y-113543689D01*
X212226559Y-113696070D01*
X212188464Y-113772261D01*
X212150369Y-113810356D01*
X212074178Y-113848451D01*
X211997988Y-113848451D01*
X211921797Y-113810356D01*
X211883702Y-113772261D01*
X211845607Y-113696070D01*
X211807511Y-113543689D01*
X211807511Y-113353213D01*
X211845607Y-113200832D01*
X211883702Y-113124642D01*
X211921797Y-113086547D01*
X211997988Y-113048451D01*
X210740845Y-103612261D02*
X210702750Y-103650356D01*
X210588464Y-103688451D01*
X210512273Y-103688451D01*
X210397988Y-103650356D01*
X210321797Y-103574166D01*
X210283702Y-103497975D01*
X210245607Y-103345594D01*
X210245607Y-103231308D01*
X210283702Y-103078927D01*
X210321797Y-103002737D01*
X210397988Y-102926547D01*
X210512273Y-102888451D01*
X210588464Y-102888451D01*
X210702750Y-102926547D01*
X210740845Y-102964642D01*
X211236083Y-102888451D02*
X211312273Y-102888451D01*
X211388464Y-102926547D01*
X211426559Y-102964642D01*
X211464654Y-103040832D01*
X211502750Y-103193213D01*
X211502750Y-103383689D01*
X211464654Y-103536070D01*
X211426559Y-103612261D01*
X211388464Y-103650356D01*
X211312273Y-103688451D01*
X211236083Y-103688451D01*
X211159892Y-103650356D01*
X211121797Y-103612261D01*
X211083702Y-103536070D01*
X211045607Y-103383689D01*
X211045607Y-103193213D01*
X211083702Y-103040832D01*
X211121797Y-102964642D01*
X211159892Y-102926547D01*
X211236083Y-102888451D01*
X212188464Y-102888451D02*
X212036083Y-102888451D01*
X211959892Y-102926547D01*
X211921797Y-102964642D01*
X211845607Y-103078927D01*
X211807511Y-103231308D01*
X211807511Y-103536070D01*
X211845607Y-103612261D01*
X211883702Y-103650356D01*
X211959892Y-103688451D01*
X212112273Y-103688451D01*
X212188464Y-103650356D01*
X212226559Y-103612261D01*
X212264654Y-103536070D01*
X212264654Y-103345594D01*
X212226559Y-103269404D01*
X212188464Y-103231308D01*
X212112273Y-103193213D01*
X211959892Y-103193213D01*
X211883702Y-103231308D01*
X211845607Y-103269404D01*
X211807511Y-103345594D01*
X210702750Y-85908451D02*
X210436083Y-85527499D01*
X210245607Y-85908451D02*
X210245607Y-85108451D01*
X210550369Y-85108451D01*
X210626559Y-85146547D01*
X210664654Y-85184642D01*
X210702750Y-85260832D01*
X210702750Y-85375118D01*
X210664654Y-85451308D01*
X210626559Y-85489404D01*
X210550369Y-85527499D01*
X210245607Y-85527499D01*
X211007511Y-85679880D02*
X211388464Y-85679880D01*
X210931321Y-85908451D02*
X211197988Y-85108451D01*
X211464654Y-85908451D01*
X211655131Y-85108451D02*
X211845607Y-85908451D01*
X211997988Y-85337023D01*
X212150369Y-85908451D01*
X212340845Y-85108451D01*
X210188464Y-92728451D02*
X210455131Y-93528451D01*
X210721797Y-92728451D01*
X211445607Y-93452261D02*
X211407511Y-93490356D01*
X211293226Y-93528451D01*
X211217035Y-93528451D01*
X211102750Y-93490356D01*
X211026559Y-93414166D01*
X210988464Y-93337975D01*
X210950369Y-93185594D01*
X210950369Y-93071308D01*
X210988464Y-92918927D01*
X211026559Y-92842737D01*
X211102750Y-92766547D01*
X211217035Y-92728451D01*
X211293226Y-92728451D01*
X211407511Y-92766547D01*
X211445607Y-92804642D01*
X212245607Y-93452261D02*
X212207511Y-93490356D01*
X212093226Y-93528451D01*
X212017035Y-93528451D01*
X211902750Y-93490356D01*
X211826559Y-93414166D01*
X211788464Y-93337975D01*
X211750369Y-93185594D01*
X211750369Y-93071308D01*
X211788464Y-92918927D01*
X211826559Y-92842737D01*
X211902750Y-92766547D01*
X212017035Y-92728451D01*
X212093226Y-92728451D01*
X212207511Y-92766547D01*
X212245607Y-92804642D01*
X201045607Y-92766547D02*
X200969416Y-92728451D01*
X200855131Y-92728451D01*
X200740845Y-92766547D01*
X200664654Y-92842737D01*
X200626559Y-92918927D01*
X200588464Y-93071308D01*
X200588464Y-93185594D01*
X200626559Y-93337975D01*
X200664654Y-93414166D01*
X200740845Y-93490356D01*
X200855131Y-93528451D01*
X200931321Y-93528451D01*
X201045607Y-93490356D01*
X201083702Y-93452261D01*
X201083702Y-93185594D01*
X200931321Y-93185594D01*
X201426559Y-93528451D02*
X201426559Y-92728451D01*
X201883702Y-93528451D01*
X201883702Y-92728451D01*
X202264654Y-93528451D02*
X202264654Y-92728451D01*
X202455131Y-92728451D01*
X202569416Y-92766547D01*
X202645607Y-92842737D01*
X202683702Y-92918927D01*
X202721797Y-93071308D01*
X202721797Y-93185594D01*
X202683702Y-93337975D01*
X202645607Y-93414166D01*
X202569416Y-93490356D01*
X202455131Y-93528451D01*
X202264654Y-93528451D01*
X210740845Y-98608451D02*
X210474178Y-98227499D01*
X210283702Y-98608451D02*
X210283702Y-97808451D01*
X210588464Y-97808451D01*
X210664654Y-97846547D01*
X210702750Y-97884642D01*
X210740845Y-97960832D01*
X210740845Y-98075118D01*
X210702750Y-98151308D01*
X210664654Y-98189404D01*
X210588464Y-98227499D01*
X210283702Y-98227499D01*
X211236083Y-97808451D02*
X211312273Y-97808451D01*
X211388464Y-97846547D01*
X211426559Y-97884642D01*
X211464654Y-97960832D01*
X211502750Y-98113213D01*
X211502750Y-98303689D01*
X211464654Y-98456070D01*
X211426559Y-98532261D01*
X211388464Y-98570356D01*
X211312273Y-98608451D01*
X211236083Y-98608451D01*
X211159892Y-98570356D01*
X211121797Y-98532261D01*
X211083702Y-98456070D01*
X211045607Y-98303689D01*
X211045607Y-98113213D01*
X211083702Y-97960832D01*
X211121797Y-97884642D01*
X211159892Y-97846547D01*
X211236083Y-97808451D01*
X211807511Y-97884642D02*
X211845607Y-97846547D01*
X211921797Y-97808451D01*
X212112273Y-97808451D01*
X212188464Y-97846547D01*
X212226559Y-97884642D01*
X212264654Y-97960832D01*
X212264654Y-98037023D01*
X212226559Y-98151308D01*
X211769416Y-98608451D01*
X212264654Y-98608451D01*
X210740845Y-111232261D02*
X210702750Y-111270356D01*
X210588464Y-111308451D01*
X210512273Y-111308451D01*
X210397988Y-111270356D01*
X210321797Y-111194166D01*
X210283702Y-111117975D01*
X210245607Y-110965594D01*
X210245607Y-110851308D01*
X210283702Y-110698927D01*
X210321797Y-110622737D01*
X210397988Y-110546547D01*
X210512273Y-110508451D01*
X210588464Y-110508451D01*
X210702750Y-110546547D01*
X210740845Y-110584642D01*
X211236083Y-110508451D02*
X211312273Y-110508451D01*
X211388464Y-110546547D01*
X211426559Y-110584642D01*
X211464654Y-110660832D01*
X211502750Y-110813213D01*
X211502750Y-111003689D01*
X211464654Y-111156070D01*
X211426559Y-111232261D01*
X211388464Y-111270356D01*
X211312273Y-111308451D01*
X211236083Y-111308451D01*
X211159892Y-111270356D01*
X211121797Y-111232261D01*
X211083702Y-111156070D01*
X211045607Y-111003689D01*
X211045607Y-110813213D01*
X211083702Y-110660832D01*
X211121797Y-110584642D01*
X211159892Y-110546547D01*
X211236083Y-110508451D01*
X211883702Y-111308451D02*
X212036083Y-111308451D01*
X212112273Y-111270356D01*
X212150369Y-111232261D01*
X212226559Y-111117975D01*
X212264654Y-110965594D01*
X212264654Y-110660832D01*
X212226559Y-110584642D01*
X212188464Y-110546547D01*
X212112273Y-110508451D01*
X211959892Y-110508451D01*
X211883702Y-110546547D01*
X211845607Y-110584642D01*
X211807511Y-110660832D01*
X211807511Y-110851308D01*
X211845607Y-110927499D01*
X211883702Y-110965594D01*
X211959892Y-111003689D01*
X212112273Y-111003689D01*
X212188464Y-110965594D01*
X212226559Y-110927499D01*
X212264654Y-110851308D01*
X210740845Y-108692261D02*
X210702750Y-108730356D01*
X210588464Y-108768451D01*
X210512273Y-108768451D01*
X210397988Y-108730356D01*
X210321797Y-108654166D01*
X210283702Y-108577975D01*
X210245607Y-108425594D01*
X210245607Y-108311308D01*
X210283702Y-108158927D01*
X210321797Y-108082737D01*
X210397988Y-108006547D01*
X210512273Y-107968451D01*
X210588464Y-107968451D01*
X210702750Y-108006547D01*
X210740845Y-108044642D01*
X211236083Y-107968451D02*
X211312273Y-107968451D01*
X211388464Y-108006547D01*
X211426559Y-108044642D01*
X211464654Y-108120832D01*
X211502750Y-108273213D01*
X211502750Y-108463689D01*
X211464654Y-108616070D01*
X211426559Y-108692261D01*
X211388464Y-108730356D01*
X211312273Y-108768451D01*
X211236083Y-108768451D01*
X211159892Y-108730356D01*
X211121797Y-108692261D01*
X211083702Y-108616070D01*
X211045607Y-108463689D01*
X211045607Y-108273213D01*
X211083702Y-108120832D01*
X211121797Y-108044642D01*
X211159892Y-108006547D01*
X211236083Y-107968451D01*
X211959892Y-108311308D02*
X211883702Y-108273213D01*
X211845607Y-108235118D01*
X211807511Y-108158927D01*
X211807511Y-108120832D01*
X211845607Y-108044642D01*
X211883702Y-108006547D01*
X211959892Y-107968451D01*
X212112273Y-107968451D01*
X212188464Y-108006547D01*
X212226559Y-108044642D01*
X212264654Y-108120832D01*
X212264654Y-108158927D01*
X212226559Y-108235118D01*
X212188464Y-108273213D01*
X212112273Y-108311308D01*
X211959892Y-108311308D01*
X211883702Y-108349404D01*
X211845607Y-108387499D01*
X211807511Y-108463689D01*
X211807511Y-108616070D01*
X211845607Y-108692261D01*
X211883702Y-108730356D01*
X211959892Y-108768451D01*
X212112273Y-108768451D01*
X212188464Y-108730356D01*
X212226559Y-108692261D01*
X212264654Y-108616070D01*
X212264654Y-108463689D01*
X212226559Y-108387499D01*
X212188464Y-108349404D01*
X212112273Y-108311308D01*
X201140845Y-111232261D02*
X201102750Y-111270356D01*
X200988464Y-111308451D01*
X200912273Y-111308451D01*
X200797988Y-111270356D01*
X200721797Y-111194166D01*
X200683702Y-111117975D01*
X200645607Y-110965594D01*
X200645607Y-110851308D01*
X200683702Y-110698927D01*
X200721797Y-110622737D01*
X200797988Y-110546547D01*
X200912273Y-110508451D01*
X200988464Y-110508451D01*
X201102750Y-110546547D01*
X201140845Y-110584642D01*
X201636083Y-110508451D02*
X201712273Y-110508451D01*
X201788464Y-110546547D01*
X201826559Y-110584642D01*
X201864654Y-110660832D01*
X201902750Y-110813213D01*
X201902750Y-111003689D01*
X201864654Y-111156070D01*
X201826559Y-111232261D01*
X201788464Y-111270356D01*
X201712273Y-111308451D01*
X201636083Y-111308451D01*
X201559892Y-111270356D01*
X201521797Y-111232261D01*
X201483702Y-111156070D01*
X201445607Y-111003689D01*
X201445607Y-110813213D01*
X201483702Y-110660832D01*
X201521797Y-110584642D01*
X201559892Y-110546547D01*
X201636083Y-110508451D01*
X202207511Y-110584642D02*
X202245607Y-110546547D01*
X202321797Y-110508451D01*
X202512273Y-110508451D01*
X202588464Y-110546547D01*
X202626559Y-110584642D01*
X202664654Y-110660832D01*
X202664654Y-110737023D01*
X202626559Y-110851308D01*
X202169416Y-111308451D01*
X202664654Y-111308451D01*
X210740845Y-106152261D02*
X210702750Y-106190356D01*
X210588464Y-106228451D01*
X210512273Y-106228451D01*
X210397988Y-106190356D01*
X210321797Y-106114166D01*
X210283702Y-106037975D01*
X210245607Y-105885594D01*
X210245607Y-105771308D01*
X210283702Y-105618927D01*
X210321797Y-105542737D01*
X210397988Y-105466547D01*
X210512273Y-105428451D01*
X210588464Y-105428451D01*
X210702750Y-105466547D01*
X210740845Y-105504642D01*
X211236083Y-105428451D02*
X211312273Y-105428451D01*
X211388464Y-105466547D01*
X211426559Y-105504642D01*
X211464654Y-105580832D01*
X211502750Y-105733213D01*
X211502750Y-105923689D01*
X211464654Y-106076070D01*
X211426559Y-106152261D01*
X211388464Y-106190356D01*
X211312273Y-106228451D01*
X211236083Y-106228451D01*
X211159892Y-106190356D01*
X211121797Y-106152261D01*
X211083702Y-106076070D01*
X211045607Y-105923689D01*
X211045607Y-105733213D01*
X211083702Y-105580832D01*
X211121797Y-105504642D01*
X211159892Y-105466547D01*
X211236083Y-105428451D01*
X211769416Y-105428451D02*
X212302750Y-105428451D01*
X211959892Y-106228451D01*
X201045607Y-90226547D02*
X200969416Y-90188451D01*
X200855131Y-90188451D01*
X200740845Y-90226547D01*
X200664654Y-90302737D01*
X200626559Y-90378927D01*
X200588464Y-90531308D01*
X200588464Y-90645594D01*
X200626559Y-90797975D01*
X200664654Y-90874166D01*
X200740845Y-90950356D01*
X200855131Y-90988451D01*
X200931321Y-90988451D01*
X201045607Y-90950356D01*
X201083702Y-90912261D01*
X201083702Y-90645594D01*
X200931321Y-90645594D01*
X201426559Y-90988451D02*
X201426559Y-90188451D01*
X201883702Y-90988451D01*
X201883702Y-90188451D01*
X202264654Y-90988451D02*
X202264654Y-90188451D01*
X202455131Y-90188451D01*
X202569416Y-90226547D01*
X202645607Y-90302737D01*
X202683702Y-90378927D01*
X202721797Y-90531308D01*
X202721797Y-90645594D01*
X202683702Y-90797975D01*
X202645607Y-90874166D01*
X202569416Y-90950356D01*
X202455131Y-90988451D01*
X202264654Y-90988451D01*
X201140845Y-113772261D02*
X201102750Y-113810356D01*
X200988464Y-113848451D01*
X200912273Y-113848451D01*
X200797988Y-113810356D01*
X200721797Y-113734166D01*
X200683702Y-113657975D01*
X200645607Y-113505594D01*
X200645607Y-113391308D01*
X200683702Y-113238927D01*
X200721797Y-113162737D01*
X200797988Y-113086547D01*
X200912273Y-113048451D01*
X200988464Y-113048451D01*
X201102750Y-113086547D01*
X201140845Y-113124642D01*
X201636083Y-113048451D02*
X201712273Y-113048451D01*
X201788464Y-113086547D01*
X201826559Y-113124642D01*
X201864654Y-113200832D01*
X201902750Y-113353213D01*
X201902750Y-113543689D01*
X201864654Y-113696070D01*
X201826559Y-113772261D01*
X201788464Y-113810356D01*
X201712273Y-113848451D01*
X201636083Y-113848451D01*
X201559892Y-113810356D01*
X201521797Y-113772261D01*
X201483702Y-113696070D01*
X201445607Y-113543689D01*
X201445607Y-113353213D01*
X201483702Y-113200832D01*
X201521797Y-113124642D01*
X201559892Y-113086547D01*
X201636083Y-113048451D01*
X202664654Y-113848451D02*
X202207511Y-113848451D01*
X202436083Y-113848451D02*
X202436083Y-113048451D01*
X202359892Y-113162737D01*
X202283702Y-113238927D01*
X202207511Y-113277023D01*
X210645607Y-87686547D02*
X210569416Y-87648451D01*
X210455131Y-87648451D01*
X210340845Y-87686547D01*
X210264654Y-87762737D01*
X210226559Y-87838927D01*
X210188464Y-87991308D01*
X210188464Y-88105594D01*
X210226559Y-88257975D01*
X210264654Y-88334166D01*
X210340845Y-88410356D01*
X210455131Y-88448451D01*
X210531321Y-88448451D01*
X210645607Y-88410356D01*
X210683702Y-88372261D01*
X210683702Y-88105594D01*
X210531321Y-88105594D01*
X211026559Y-88448451D02*
X211026559Y-87648451D01*
X211483702Y-88448451D01*
X211483702Y-87648451D01*
X211864654Y-88448451D02*
X211864654Y-87648451D01*
X212055131Y-87648451D01*
X212169416Y-87686547D01*
X212245607Y-87762737D01*
X212283702Y-87838927D01*
X212321797Y-87991308D01*
X212321797Y-88105594D01*
X212283702Y-88257975D01*
X212245607Y-88334166D01*
X212169416Y-88410356D01*
X212055131Y-88448451D01*
X211864654Y-88448451D01*
X201140845Y-103612261D02*
X201102750Y-103650356D01*
X200988464Y-103688451D01*
X200912273Y-103688451D01*
X200797988Y-103650356D01*
X200721797Y-103574166D01*
X200683702Y-103497975D01*
X200645607Y-103345594D01*
X200645607Y-103231308D01*
X200683702Y-103078927D01*
X200721797Y-103002737D01*
X200797988Y-102926547D01*
X200912273Y-102888451D01*
X200988464Y-102888451D01*
X201102750Y-102926547D01*
X201140845Y-102964642D01*
X201636083Y-102888451D02*
X201712273Y-102888451D01*
X201788464Y-102926547D01*
X201826559Y-102964642D01*
X201864654Y-103040832D01*
X201902750Y-103193213D01*
X201902750Y-103383689D01*
X201864654Y-103536070D01*
X201826559Y-103612261D01*
X201788464Y-103650356D01*
X201712273Y-103688451D01*
X201636083Y-103688451D01*
X201559892Y-103650356D01*
X201521797Y-103612261D01*
X201483702Y-103536070D01*
X201445607Y-103383689D01*
X201445607Y-103193213D01*
X201483702Y-103040832D01*
X201521797Y-102964642D01*
X201559892Y-102926547D01*
X201636083Y-102888451D01*
X202626559Y-102888451D02*
X202245607Y-102888451D01*
X202207511Y-103269404D01*
X202245607Y-103231308D01*
X202321797Y-103193213D01*
X202512273Y-103193213D01*
X202588464Y-103231308D01*
X202626559Y-103269404D01*
X202664654Y-103345594D01*
X202664654Y-103536070D01*
X202626559Y-103612261D01*
X202588464Y-103650356D01*
X202512273Y-103688451D01*
X202321797Y-103688451D01*
X202245607Y-103650356D01*
X202207511Y-103612261D01*
X201140845Y-98608451D02*
X200874178Y-98227499D01*
X200683702Y-98608451D02*
X200683702Y-97808451D01*
X200988464Y-97808451D01*
X201064654Y-97846547D01*
X201102750Y-97884642D01*
X201140845Y-97960832D01*
X201140845Y-98075118D01*
X201102750Y-98151308D01*
X201064654Y-98189404D01*
X200988464Y-98227499D01*
X200683702Y-98227499D01*
X201636083Y-97808451D02*
X201712273Y-97808451D01*
X201788464Y-97846547D01*
X201826559Y-97884642D01*
X201864654Y-97960832D01*
X201902750Y-98113213D01*
X201902750Y-98303689D01*
X201864654Y-98456070D01*
X201826559Y-98532261D01*
X201788464Y-98570356D01*
X201712273Y-98608451D01*
X201636083Y-98608451D01*
X201559892Y-98570356D01*
X201521797Y-98532261D01*
X201483702Y-98456070D01*
X201445607Y-98303689D01*
X201445607Y-98113213D01*
X201483702Y-97960832D01*
X201521797Y-97884642D01*
X201559892Y-97846547D01*
X201636083Y-97808451D01*
X202588464Y-98075118D02*
X202588464Y-98608451D01*
X202397988Y-97770356D02*
X202207511Y-98341785D01*
X202702750Y-98341785D01*
X201140845Y-96068451D02*
X200874178Y-95687499D01*
X200683702Y-96068451D02*
X200683702Y-95268451D01*
X200988464Y-95268451D01*
X201064654Y-95306547D01*
X201102750Y-95344642D01*
X201140845Y-95420832D01*
X201140845Y-95535118D01*
X201102750Y-95611308D01*
X201064654Y-95649404D01*
X200988464Y-95687499D01*
X200683702Y-95687499D01*
X201636083Y-95268451D02*
X201712273Y-95268451D01*
X201788464Y-95306547D01*
X201826559Y-95344642D01*
X201864654Y-95420832D01*
X201902750Y-95573213D01*
X201902750Y-95763689D01*
X201864654Y-95916070D01*
X201826559Y-95992261D01*
X201788464Y-96030356D01*
X201712273Y-96068451D01*
X201636083Y-96068451D01*
X201559892Y-96030356D01*
X201521797Y-95992261D01*
X201483702Y-95916070D01*
X201445607Y-95763689D01*
X201445607Y-95573213D01*
X201483702Y-95420832D01*
X201521797Y-95344642D01*
X201559892Y-95306547D01*
X201636083Y-95268451D01*
X202169416Y-95268451D02*
X202664654Y-95268451D01*
X202397988Y-95573213D01*
X202512273Y-95573213D01*
X202588464Y-95611308D01*
X202626559Y-95649404D01*
X202664654Y-95725594D01*
X202664654Y-95916070D01*
X202626559Y-95992261D01*
X202588464Y-96030356D01*
X202512273Y-96068451D01*
X202283702Y-96068451D01*
X202207511Y-96030356D01*
X202169416Y-95992261D01*
X210817035Y-90988451D02*
X210550369Y-90607499D01*
X210359892Y-90988451D02*
X210359892Y-90188451D01*
X210664654Y-90188451D01*
X210740845Y-90226547D01*
X210778940Y-90264642D01*
X210817035Y-90340832D01*
X210817035Y-90455118D01*
X210778940Y-90531308D01*
X210740845Y-90569404D01*
X210664654Y-90607499D01*
X210359892Y-90607499D01*
X211121797Y-90950356D02*
X211236083Y-90988451D01*
X211426559Y-90988451D01*
X211502750Y-90950356D01*
X211540845Y-90912261D01*
X211578940Y-90836070D01*
X211578940Y-90759880D01*
X211540845Y-90683689D01*
X211502750Y-90645594D01*
X211426559Y-90607499D01*
X211274178Y-90569404D01*
X211197988Y-90531308D01*
X211159892Y-90493213D01*
X211121797Y-90417023D01*
X211121797Y-90340832D01*
X211159892Y-90264642D01*
X211197988Y-90226547D01*
X211274178Y-90188451D01*
X211464654Y-90188451D01*
X211578940Y-90226547D01*
X211807511Y-90188451D02*
X212264654Y-90188451D01*
X212036083Y-90988451D02*
X212036083Y-90188451D01*
X210740845Y-96068451D02*
X210474178Y-95687499D01*
X210283702Y-96068451D02*
X210283702Y-95268451D01*
X210588464Y-95268451D01*
X210664654Y-95306547D01*
X210702750Y-95344642D01*
X210740845Y-95420832D01*
X210740845Y-95535118D01*
X210702750Y-95611308D01*
X210664654Y-95649404D01*
X210588464Y-95687499D01*
X210283702Y-95687499D01*
X211236083Y-95268451D02*
X211312273Y-95268451D01*
X211388464Y-95306547D01*
X211426559Y-95344642D01*
X211464654Y-95420832D01*
X211502750Y-95573213D01*
X211502750Y-95763689D01*
X211464654Y-95916070D01*
X211426559Y-95992261D01*
X211388464Y-96030356D01*
X211312273Y-96068451D01*
X211236083Y-96068451D01*
X211159892Y-96030356D01*
X211121797Y-95992261D01*
X211083702Y-95916070D01*
X211045607Y-95763689D01*
X211045607Y-95573213D01*
X211083702Y-95420832D01*
X211121797Y-95344642D01*
X211159892Y-95306547D01*
X211236083Y-95268451D01*
X212264654Y-96068451D02*
X211807511Y-96068451D01*
X212036083Y-96068451D02*
X212036083Y-95268451D01*
X211959892Y-95382737D01*
X211883702Y-95458927D01*
X211807511Y-95497023D01*
%TO.C,PAD1*%
%TO.C,B1*%
X205365844Y-126339292D02*
X205115844Y-125982149D01*
X204937272Y-126339292D02*
X204937272Y-125589292D01*
X205222987Y-125589292D01*
X205294415Y-125625007D01*
X205330130Y-125660721D01*
X205365844Y-125732149D01*
X205365844Y-125839292D01*
X205330130Y-125910721D01*
X205294415Y-125946435D01*
X205222987Y-125982149D01*
X204937272Y-125982149D01*
X205687272Y-125946435D02*
X205937272Y-125946435D01*
X206044415Y-126339292D02*
X205687272Y-126339292D01*
X205687272Y-125589292D01*
X206044415Y-125589292D01*
X206330130Y-126303578D02*
X206437272Y-126339292D01*
X206615844Y-126339292D01*
X206687272Y-126303578D01*
X206722987Y-126267864D01*
X206758701Y-126196435D01*
X206758701Y-126125007D01*
X206722987Y-126053578D01*
X206687272Y-126017864D01*
X206615844Y-125982149D01*
X206472987Y-125946435D01*
X206401558Y-125910721D01*
X206365844Y-125875007D01*
X206330130Y-125803578D01*
X206330130Y-125732149D01*
X206365844Y-125660721D01*
X206401558Y-125625007D01*
X206472987Y-125589292D01*
X206651558Y-125589292D01*
X206758701Y-125625007D01*
X207080130Y-125946435D02*
X207330130Y-125946435D01*
X207437272Y-126339292D02*
X207080130Y-126339292D01*
X207080130Y-125589292D01*
X207437272Y-125589292D01*
X207651558Y-125589292D02*
X208080130Y-125589292D01*
X207865844Y-126339292D02*
X207865844Y-125589292D01*
D11*
%TO.C,D11*%
X163188502Y-103071775D02*
X163049584Y-103859621D01*
X163049584Y-103859621D02*
X162528158Y-103361509D01*
X162528158Y-103361509D02*
X162432652Y-103903153D01*
X162134235Y-103292050D02*
X162528158Y-103361509D01*
X162528158Y-103361509D02*
X163188502Y-103071775D01*
X163119043Y-103465698D02*
X163611447Y-103552522D01*
X162528158Y-103361509D02*
X162623665Y-102819865D01*
%TO.C,D15*%
X183454645Y-91794630D02*
X183315727Y-92582476D01*
X183385186Y-92188553D02*
X183877590Y-92275377D01*
X182794301Y-92084364D02*
X182889808Y-91542720D01*
X182400378Y-92014905D02*
X182794301Y-92084364D01*
X182794301Y-92084364D02*
X183454645Y-91794630D01*
X183315727Y-92582476D02*
X182794301Y-92084364D01*
X182794301Y-92084364D02*
X182698795Y-92626008D01*
D10*
%TO.C,MCU1*%
X197565131Y-81736547D02*
X197565131Y-114756547D01*
X212805131Y-86816547D02*
X215345131Y-86816547D01*
X215345131Y-81736547D02*
X197565131Y-81736547D01*
X212805131Y-84276547D02*
X215345131Y-84276547D01*
X197565131Y-114756547D02*
X215345131Y-114756547D01*
X215345131Y-114756547D02*
X215345131Y-81736547D01*
X212805131Y-84276547D02*
X212805131Y-86816547D01*
D11*
%TO.C,D16*%
X149830150Y-138058652D02*
X149925657Y-137517008D01*
X150351576Y-138556764D02*
X149830150Y-138058652D01*
X149436227Y-137989193D02*
X149830150Y-138058652D01*
X150421035Y-138162841D02*
X150913439Y-138249665D01*
X149830150Y-138058652D02*
X150490494Y-137768918D01*
X150490494Y-137768918D02*
X150351576Y-138556764D01*
X149830150Y-138058652D02*
X149734644Y-138600296D01*
%TO.C,D18*%
X184937636Y-149363331D02*
X184696532Y-149857668D01*
X185301564Y-149985871D02*
X184937636Y-149363331D01*
X184578118Y-149187983D02*
X184937636Y-149363331D01*
X184937636Y-149363331D02*
X185178740Y-148868994D01*
X184937636Y-149363331D02*
X185652261Y-149266836D01*
X185476913Y-149626354D02*
X185926310Y-149845539D01*
X185652261Y-149266836D02*
X185301564Y-149985871D01*
%TO.C,D24*%
X282193798Y-80489998D02*
X282098292Y-79948354D01*
X282854142Y-80779732D02*
X282193798Y-80489998D01*
X282193798Y-80489998D02*
X282289305Y-81031642D01*
X282193798Y-80489998D02*
X282715224Y-79991886D01*
X281799875Y-80559457D02*
X282193798Y-80489998D01*
X282784683Y-80385809D02*
X283277087Y-80298985D01*
X282715224Y-79991886D02*
X282854142Y-80779732D01*
%TO.C,D23*%
X284751896Y-97301189D02*
X285145819Y-97231730D01*
X285145819Y-97231730D02*
X285241326Y-97773374D01*
X285145819Y-97231730D02*
X285667245Y-96733618D01*
X285806163Y-97521464D02*
X285145819Y-97231730D01*
X285736704Y-97127541D02*
X286229108Y-97040717D01*
X285145819Y-97231730D02*
X285050313Y-96690086D01*
X285667245Y-96733618D02*
X285806163Y-97521464D01*
%TO.C,D25*%
X270480307Y-114262097D02*
X270619225Y-115049943D01*
X269564958Y-114829668D02*
X269958881Y-114760209D01*
X269958881Y-114760209D02*
X270480307Y-114262097D01*
X269958881Y-114760209D02*
X270054388Y-115301853D01*
X269958881Y-114760209D02*
X269863375Y-114218565D01*
X270619225Y-115049943D02*
X269958881Y-114760209D01*
X270549766Y-114656020D02*
X271042170Y-114569196D01*
%TO.C,D22*%
X288619262Y-113475349D02*
X288758180Y-114263195D01*
X288097836Y-113973461D02*
X288002330Y-113431817D01*
X288097836Y-113973461D02*
X288619262Y-113475349D01*
X288758180Y-114263195D02*
X288097836Y-113973461D01*
X287703913Y-114042920D02*
X288097836Y-113973461D01*
X288688721Y-113869272D02*
X289181125Y-113782448D01*
X288097836Y-113973461D02*
X288193343Y-114515105D01*
%TO.C,D1*%
X106185054Y-115724481D02*
X106101431Y-116520099D01*
X105148721Y-116017762D02*
X105546529Y-116059573D01*
X105546529Y-116059573D02*
X106185054Y-115724481D01*
X106101431Y-116520099D02*
X105546529Y-116059573D01*
X106143242Y-116122290D02*
X106640503Y-116174554D01*
X105546529Y-116059573D02*
X105604020Y-115512586D01*
X105546529Y-116059573D02*
X105489039Y-116606560D01*
%TO.C,D26*%
X267006864Y-98018478D02*
X266911358Y-97476834D01*
X267006864Y-98018478D02*
X267528290Y-97520366D01*
X266612941Y-98087937D02*
X267006864Y-98018478D01*
X267667208Y-98308212D02*
X267006864Y-98018478D01*
X267597749Y-97914289D02*
X268090153Y-97827465D01*
X267528290Y-97520366D02*
X267667208Y-98308212D01*
X267006864Y-98018478D02*
X267102371Y-98560122D01*
D10*
%TO.C,JST1*%
X196105133Y-121916543D02*
X203705133Y-121916543D01*
X204455133Y-119966543D02*
X204955133Y-119966543D01*
X204705133Y-120216543D02*
X204705133Y-119716543D01*
X203705133Y-116016543D02*
X196105133Y-116016543D01*
X198955133Y-119966543D02*
X199455133Y-119966543D01*
X196105133Y-116716543D02*
X197705133Y-116716543D01*
X203705133Y-121916543D02*
X203705133Y-116016543D01*
X196105133Y-116016543D02*
X196105133Y-116716543D01*
X199205133Y-120216543D02*
X199205133Y-119716543D01*
X197705133Y-116716543D02*
X197705133Y-121216543D01*
X197705133Y-121216543D02*
X196105133Y-121216543D01*
X196105133Y-121216543D02*
X196105133Y-121916543D01*
D11*
%TO.C,D30*%
X247262145Y-86243220D02*
X247401063Y-87031066D01*
X246740719Y-86741332D02*
X246645213Y-86199688D01*
X247401063Y-87031066D02*
X246740719Y-86741332D01*
X246740719Y-86741332D02*
X247262145Y-86243220D01*
X246740719Y-86741332D02*
X246836226Y-87282976D01*
X246346796Y-86810791D02*
X246740719Y-86741332D01*
X247331604Y-86637143D02*
X247824008Y-86550319D01*
%TO.C,D8*%
X145214034Y-97896926D02*
X145874378Y-97607192D01*
X145735460Y-98395038D02*
X145214034Y-97896926D01*
X145214034Y-97896926D02*
X145118528Y-98438570D01*
X145214034Y-97896926D02*
X145309541Y-97355282D01*
X145804919Y-98001115D02*
X146297323Y-98087939D01*
X144820111Y-97827467D02*
X145214034Y-97896926D01*
X145874378Y-97607192D02*
X145735460Y-98395038D01*
%TO.C,D7*%
X142262013Y-114638655D02*
X142166507Y-115180299D01*
X141868090Y-114569196D02*
X142262013Y-114638655D01*
X142783439Y-115136767D02*
X142262013Y-114638655D01*
X142922357Y-114348921D02*
X142783439Y-115136767D01*
X142262013Y-114638655D02*
X142357520Y-114097011D01*
X142852898Y-114742844D02*
X143345302Y-114829668D01*
X142262013Y-114638655D02*
X142922357Y-114348921D01*
%TO.C,D27*%
X263660920Y-81346206D02*
X264054843Y-81276747D01*
X264054843Y-81276747D02*
X263959337Y-80735103D01*
X264054843Y-81276747D02*
X264150350Y-81818391D01*
X264645728Y-81172558D02*
X265138132Y-81085734D01*
X264054843Y-81276747D02*
X264576269Y-80778635D01*
X264715187Y-81566481D02*
X264054843Y-81276747D01*
X264576269Y-80778635D02*
X264715187Y-81566481D01*
%TO.C,D13*%
X177550607Y-125278092D02*
X177411689Y-126065938D01*
X176890263Y-125567826D02*
X176794757Y-126109470D01*
X177411689Y-126065938D02*
X176890263Y-125567826D01*
X176496340Y-125498367D02*
X176890263Y-125567826D01*
X176890263Y-125567826D02*
X176985770Y-125026182D01*
X177481148Y-125672015D02*
X177973552Y-125758839D01*
X176890263Y-125567826D02*
X177550607Y-125278092D01*
%TO.C,D2*%
X107323512Y-99152704D02*
X107381003Y-98605717D01*
X107920225Y-99215421D02*
X108417486Y-99267685D01*
X107878414Y-99613230D02*
X107323512Y-99152704D01*
X106925704Y-99110893D02*
X107323512Y-99152704D01*
X107323512Y-99152704D02*
X107266022Y-99699691D01*
X107323512Y-99152704D02*
X107962037Y-98817612D01*
X107962037Y-98817612D02*
X107878414Y-99613230D01*
%TO.C,D5*%
X127075079Y-97110176D02*
X127170586Y-96568532D01*
X127596505Y-97608288D02*
X127075079Y-97110176D01*
X127075079Y-97110176D02*
X126979573Y-97651820D01*
X127665964Y-97214365D02*
X128158368Y-97301189D01*
X127735423Y-96820442D02*
X127596505Y-97608288D01*
X126681156Y-97040717D02*
X127075079Y-97110176D01*
X127075079Y-97110176D02*
X127735423Y-96820442D01*
%TO.C,D35*%
X244465376Y-142699825D02*
X244295417Y-142176744D01*
X244465376Y-142699825D02*
X244635336Y-143222906D01*
X245036010Y-142514415D02*
X245511538Y-142359906D01*
X244912403Y-142133992D02*
X245159617Y-142894837D01*
X244084954Y-142823432D02*
X244465376Y-142699825D01*
X245159617Y-142894837D02*
X244465376Y-142699825D01*
X244465376Y-142699825D02*
X244912403Y-142133992D01*
%TO.C,D29*%
X249692739Y-103483062D02*
X249597233Y-102941418D01*
X250214165Y-102984950D02*
X250353083Y-103772796D01*
X249692739Y-103483062D02*
X250214165Y-102984950D01*
X250283624Y-103378873D02*
X250776028Y-103292049D01*
X250353083Y-103772796D02*
X249692739Y-103483062D01*
X249692739Y-103483062D02*
X249788246Y-104024706D01*
X249298816Y-103552521D02*
X249692739Y-103483062D01*
%TO.C,D19*%
X307306092Y-116467836D02*
X306667567Y-116132744D01*
X307264280Y-116070027D02*
X307761541Y-116017763D01*
X306667567Y-116132744D02*
X306610077Y-115585757D01*
X306269759Y-116174555D02*
X306667567Y-116132744D01*
X306667567Y-116132744D02*
X306725058Y-116679731D01*
X306667567Y-116132744D02*
X307222469Y-115672218D01*
X307222469Y-115672218D02*
X307306092Y-116467836D01*
%TO.C,D14*%
X180433166Y-108930284D02*
X180925570Y-109017108D01*
X180502625Y-108536361D02*
X180363707Y-109324207D01*
X179448358Y-108756636D02*
X179842281Y-108826095D01*
X179842281Y-108826095D02*
X179746775Y-109367739D01*
X180363707Y-109324207D02*
X179842281Y-108826095D01*
X179842281Y-108826095D02*
X180502625Y-108536361D01*
X179842281Y-108826095D02*
X179937788Y-108284451D01*
%TO.C,D12*%
X165086253Y-86550318D02*
X165480176Y-86619777D01*
X166071061Y-86723966D02*
X166563465Y-86810790D01*
X165480176Y-86619777D02*
X165384670Y-87161421D01*
X165480176Y-86619777D02*
X165575683Y-86078133D01*
X165480176Y-86619777D02*
X166140520Y-86330043D01*
X166001602Y-87117889D02*
X165480176Y-86619777D01*
X166140520Y-86330043D02*
X166001602Y-87117889D01*
%TO.C,D34*%
X262912173Y-137682095D02*
X263051091Y-138469941D01*
X262390747Y-138180207D02*
X262295241Y-137638563D01*
X262390747Y-138180207D02*
X262486254Y-138721851D01*
X262390747Y-138180207D02*
X262912173Y-137682095D01*
X263051091Y-138469941D02*
X262390747Y-138180207D01*
X261996824Y-138249666D02*
X262390747Y-138180207D01*
X262981632Y-138076018D02*
X263474036Y-137989194D01*
%TO.C,D9*%
X148166053Y-81155193D02*
X148261560Y-80613549D01*
X148166053Y-81155193D02*
X148070547Y-81696837D01*
X148826397Y-80865459D02*
X148687479Y-81653305D01*
X148756938Y-81259382D02*
X149249342Y-81346206D01*
X148166053Y-81155193D02*
X148826397Y-80865459D01*
X148687479Y-81653305D02*
X148166053Y-81155193D01*
X147772130Y-81085734D02*
X148166053Y-81155193D01*
%TO.C,D28*%
X252644759Y-120224795D02*
X253166185Y-119726683D01*
X253166185Y-119726683D02*
X253305103Y-120514529D01*
X252644759Y-120224795D02*
X252549253Y-119683151D01*
X252644759Y-120224795D02*
X252740266Y-120766439D01*
X253305103Y-120514529D02*
X252644759Y-120224795D01*
X253235644Y-120120606D02*
X253728048Y-120033782D01*
X252250836Y-120294254D02*
X252644759Y-120224795D01*
%TO.C,D36*%
X228058097Y-149766687D02*
X227343472Y-149670192D01*
X227882749Y-149407169D02*
X228332146Y-149187984D01*
X227343472Y-149670192D02*
X227102368Y-149175855D01*
X227343472Y-149670192D02*
X227707400Y-149047652D01*
X227343472Y-149670192D02*
X227584576Y-150164529D01*
X226983954Y-149845540D02*
X227343472Y-149670192D01*
X227707400Y-149047652D02*
X228058097Y-149766687D01*
%TO.C,D21*%
X303113603Y-82318999D02*
X303171094Y-82865986D01*
X303710316Y-82256282D02*
X304207577Y-82204018D01*
X303113603Y-82318999D02*
X303056113Y-81772012D01*
X303668505Y-81858473D02*
X303752128Y-82654091D01*
X303752128Y-82654091D02*
X303113603Y-82318999D01*
X302715795Y-82360810D02*
X303113603Y-82318999D01*
X303113603Y-82318999D02*
X303668505Y-81858473D01*
%TO.C,D10*%
X159182215Y-120033782D02*
X159576138Y-120103241D01*
X159576138Y-120103241D02*
X159480632Y-120644885D01*
X159576138Y-120103241D02*
X160236482Y-119813507D01*
X160167023Y-120207430D02*
X160659427Y-120294254D01*
X159576138Y-120103241D02*
X159671645Y-119561597D01*
X160097564Y-120601353D02*
X159576138Y-120103241D01*
X160236482Y-119813507D02*
X160097564Y-120601353D01*
%TO.C,D3*%
X109100495Y-82245831D02*
X109043005Y-82792818D01*
X108702687Y-82204020D02*
X109100495Y-82245831D01*
X109100495Y-82245831D02*
X109157986Y-81698844D01*
X109739020Y-81910739D02*
X109655397Y-82706357D01*
X109100495Y-82245831D02*
X109739020Y-81910739D01*
X109697208Y-82308548D02*
X110194469Y-82360812D01*
X109655397Y-82706357D02*
X109100495Y-82245831D01*
D10*
%TO.C,B1*%
X209305130Y-124400007D02*
X209305130Y-124650007D01*
X203605130Y-127600007D02*
X209305130Y-127600007D01*
X203605130Y-124400007D02*
X209305130Y-124400007D01*
X209305130Y-127600007D02*
X209305130Y-127350007D01*
X203605130Y-124400007D02*
X203605130Y-124650007D01*
X203605130Y-127600007D02*
X203605130Y-127350007D01*
D11*
%TO.C,D31*%
X234936710Y-125758839D02*
X235330633Y-125689380D01*
X235330633Y-125689380D02*
X235852059Y-125191268D01*
X235330633Y-125689380D02*
X235235127Y-125147736D01*
X235330633Y-125689380D02*
X235426140Y-126231024D01*
X235921518Y-125585191D02*
X236413922Y-125498367D01*
X235852059Y-125191268D02*
X235990977Y-125979114D01*
X235990977Y-125979114D02*
X235330633Y-125689380D01*
%TO.C,D20*%
X305445488Y-98765346D02*
X305529111Y-99560964D01*
X305487299Y-99163155D02*
X305984560Y-99110891D01*
X304492778Y-99267683D02*
X304890586Y-99225872D01*
X305529111Y-99560964D02*
X304890586Y-99225872D01*
X304890586Y-99225872D02*
X304948077Y-99772859D01*
X304890586Y-99225872D02*
X305445488Y-98765346D01*
X304890586Y-99225872D02*
X304833096Y-98678885D01*
%TO.C,D4*%
X124123060Y-113851908D02*
X124027554Y-114393552D01*
X124783404Y-113562174D02*
X124644486Y-114350020D01*
X124123060Y-113851908D02*
X124783404Y-113562174D01*
X124123060Y-113851908D02*
X124218567Y-113310264D01*
X124713945Y-113956097D02*
X125206349Y-114042921D01*
X124644486Y-114350020D02*
X124123060Y-113851908D01*
X123729137Y-113782449D02*
X124123060Y-113851908D01*
%TO.C,D32*%
X232378614Y-108947650D02*
X232283108Y-108406006D01*
X232900040Y-108449538D02*
X233038958Y-109237384D01*
X231984691Y-109017109D02*
X232378614Y-108947650D01*
X232378614Y-108947650D02*
X232900040Y-108449538D01*
X232378614Y-108947650D02*
X232474121Y-109489294D01*
X233038958Y-109237384D02*
X232378614Y-108947650D01*
X232969499Y-108843461D02*
X233461903Y-108756637D01*
%TO.C,D6*%
X130548524Y-80866554D02*
X130027098Y-80368442D01*
X130027098Y-80368442D02*
X130687442Y-80078708D01*
X130027098Y-80368442D02*
X130122605Y-79826798D01*
X129633175Y-80298983D02*
X130027098Y-80368442D01*
X130617983Y-80472631D02*
X131110387Y-80559455D01*
X130687442Y-80078708D02*
X130548524Y-80866554D01*
X130027098Y-80368442D02*
X129931592Y-80910086D01*
%TO.C,D17*%
X168349776Y-142668922D02*
X168825304Y-142823431D01*
X168473383Y-142288500D02*
X168226169Y-143049345D01*
X167779142Y-142483512D02*
X167949102Y-141960431D01*
X167779142Y-142483512D02*
X167609183Y-143006593D01*
X167398720Y-142359905D02*
X167779142Y-142483512D01*
X167779142Y-142483512D02*
X168473383Y-142288500D01*
X168226169Y-143049345D02*
X167779142Y-142483512D01*
%TO.C,D33*%
X229032673Y-92275376D02*
X229426596Y-92205917D01*
X230086940Y-92495651D02*
X229426596Y-92205917D01*
X229426596Y-92205917D02*
X229331090Y-91664273D01*
X229948022Y-91707805D02*
X230086940Y-92495651D01*
X230017481Y-92101728D02*
X230509885Y-92014904D01*
X229426596Y-92205917D02*
X229948022Y-91707805D01*
X229426596Y-92205917D02*
X229522103Y-92747561D01*
%TD*%
D12*
%TO.C,MCU1*%
X214075131Y-85546547D03*
D13*
X214075131Y-88086547D03*
X214075131Y-90626547D03*
X214075131Y-93166547D03*
X214075131Y-95706547D03*
X214075131Y-98246547D03*
X214075131Y-100786547D03*
X214075131Y-103326547D03*
X214075131Y-105866547D03*
X214075131Y-108406547D03*
X214075131Y-110946547D03*
X214075131Y-113486547D03*
X198835131Y-85546547D03*
X198835131Y-88086547D03*
X198835131Y-90626547D03*
X198835131Y-93166547D03*
X198835131Y-95706547D03*
X198835131Y-98246547D03*
X198835131Y-100786547D03*
X198835131Y-103326547D03*
X198835131Y-105866547D03*
X198835131Y-108406547D03*
X198835131Y-110946547D03*
X198835131Y-113486547D03*
%TD*%
%LPC*%
D14*
%TO.C,T1*%
X207955131Y-81516544D03*
X204955131Y-81516544D03*
%TD*%
D15*
%TO.C,D11*%
X161247908Y-103135767D03*
X164497774Y-103708805D03*
%TD*%
%TO.C,D15*%
X181514051Y-91858622D03*
X184763917Y-92431660D03*
%TD*%
D16*
%TO.C,S33*%
X223538688Y-88471611D03*
D17*
X233227989Y-82955276D03*
D16*
X234371574Y-86561481D03*
D18*
X228955131Y-87516546D03*
D17*
X227921924Y-81656940D03*
%TD*%
D19*
%TO.C,MCU1*%
X214075131Y-85546547D03*
D20*
X214075131Y-88086547D03*
X214075131Y-90626547D03*
X214075131Y-93166547D03*
X214075131Y-95706547D03*
X214075131Y-98246547D03*
X214075131Y-100786547D03*
X214075131Y-103326547D03*
X214075131Y-105866547D03*
X214075131Y-108406547D03*
X214075131Y-110946547D03*
X214075131Y-113486547D03*
X198835131Y-85546547D03*
X198835131Y-88086547D03*
X198835131Y-90626547D03*
X198835131Y-93166547D03*
X198835131Y-95706547D03*
X198835131Y-98246547D03*
X198835131Y-100786547D03*
X198835131Y-103326547D03*
X198835131Y-105866547D03*
X198835131Y-108406547D03*
X198835131Y-110946547D03*
X198835131Y-113486547D03*
%TD*%
D16*
%TO.C,S24*%
X276305892Y-76755692D03*
D17*
X285995193Y-71239357D03*
D18*
X281722335Y-75800627D03*
D17*
X280689128Y-69941021D03*
D16*
X287138778Y-74845562D03*
%TD*%
D17*
%TO.C,S7*%
X148998062Y-107246049D03*
X144456050Y-104211231D03*
D18*
X143422843Y-110070837D03*
D16*
X148839286Y-111025902D03*
X138006400Y-109115772D03*
%TD*%
D15*
%TO.C,D16*%
X148549900Y-137832910D03*
X151799766Y-138405948D03*
%TD*%
D21*
%TO.C,D18*%
X183769204Y-148793449D03*
X186735224Y-150240073D03*
%TD*%
D17*
%TO.C,S30*%
X250542116Y-77490688D03*
D18*
X246269258Y-82051958D03*
D17*
X245236051Y-76192352D03*
D16*
X240852815Y-83007023D03*
X251685701Y-81096893D03*
%TD*%
D22*
%TO.C,D24*%
X280913548Y-80715740D03*
X284163414Y-80142702D03*
%TD*%
%TO.C,D23*%
X283865569Y-97457472D03*
X287115435Y-96884434D03*
%TD*%
D17*
%TO.C,S25*%
X273760277Y-105509565D03*
D18*
X269487419Y-110070835D03*
D17*
X268454212Y-104211229D03*
D16*
X274903862Y-109115770D03*
X264070976Y-111025900D03*
%TD*%
D17*
%TO.C,S36*%
X228447781Y-139730095D03*
D16*
X230541070Y-142881387D03*
D18*
X225597703Y-145292428D03*
D17*
X222989395Y-139944603D03*
D16*
X220654336Y-147703469D03*
%TD*%
D22*
%TO.C,D25*%
X268678631Y-114985951D03*
X271928497Y-114412913D03*
%TD*%
D23*
%TO.C,PAD7*%
X117404224Y-99263565D03*
%TD*%
D22*
%TO.C,D22*%
X286817586Y-114199203D03*
X290067452Y-113626165D03*
%TD*%
D17*
%TO.C,S29*%
X248188069Y-92934084D03*
D16*
X243804833Y-99748755D03*
D17*
X253494134Y-94232420D03*
D18*
X249221276Y-98793690D03*
D16*
X254637719Y-97838625D03*
%TD*%
%TO.C,S17*%
X164333582Y-136422111D03*
D17*
X175478489Y-136100327D03*
X171403044Y-132462918D03*
D18*
X169564393Y-138121704D03*
D16*
X174795204Y-139821297D03*
%TD*%
D24*
%TO.C,D1*%
X104253651Y-115923686D03*
X107535573Y-116268630D03*
%TD*%
D18*
%TO.C,S18*%
X187312560Y-145292428D03*
D16*
X192255927Y-147703469D03*
D17*
X189920868Y-139944603D03*
X193450422Y-144113806D03*
D16*
X182369193Y-142881387D03*
%TD*%
D17*
%TO.C,S2*%
X113527469Y-91308219D03*
D16*
X113632748Y-95089941D03*
D17*
X108784822Y-88597629D03*
D16*
X102693008Y-93940127D03*
D18*
X108162878Y-94515034D03*
%TD*%
D16*
%TO.C,S23*%
X279257911Y-93497421D03*
X290090797Y-91587291D03*
D18*
X284674354Y-92542356D03*
D17*
X288947212Y-87981086D03*
X283641147Y-86682750D03*
%TD*%
D22*
%TO.C,D26*%
X265726614Y-98244220D03*
X268976480Y-97671182D03*
%TD*%
D16*
%TO.C,S22*%
X293042818Y-108329022D03*
D18*
X287626375Y-109284087D03*
D16*
X282209932Y-110239152D03*
D17*
X286593168Y-103424481D03*
X291899233Y-104722817D03*
%TD*%
D16*
%TO.C,S1*%
X100916024Y-110846999D03*
D17*
X107007838Y-105504501D03*
D16*
X111855764Y-111996813D03*
D18*
X106385894Y-111421906D03*
D17*
X111750485Y-108215091D03*
%TD*%
D25*
%TO.C,JST1*%
X197455133Y-119966543D03*
D26*
X197455133Y-117966543D03*
%TD*%
D22*
%TO.C,D30*%
X245460469Y-86967074D03*
X248710335Y-86394036D03*
%TD*%
D23*
%TO.C,PAD2*%
X188710933Y-128210614D03*
%TD*%
D17*
%TO.C,S34*%
X266192140Y-128929563D03*
D18*
X261919282Y-133490833D03*
D16*
X267335725Y-132535768D03*
D17*
X260886075Y-127631227D03*
D16*
X256502839Y-134445898D03*
%TD*%
D17*
%TO.C,S15*%
X184988339Y-81656939D03*
D18*
X183955132Y-87516545D03*
D16*
X189371575Y-88471610D03*
X178538689Y-86561480D03*
D17*
X189530351Y-84691757D03*
%TD*%
D23*
%TO.C,PAD11*%
X295506037Y-99263563D03*
%TD*%
D15*
%TO.C,D8*%
X143933784Y-97671184D03*
X147183650Y-98244222D03*
%TD*%
%TO.C,D7*%
X140981763Y-114412913D03*
X144231629Y-114985951D03*
%TD*%
D16*
%TO.C,S13*%
X172634652Y-120044942D03*
D17*
X179084302Y-115140401D03*
X183626314Y-118175219D03*
D18*
X178051095Y-121000007D03*
D16*
X183467538Y-121955072D03*
%TD*%
D22*
%TO.C,D27*%
X262774593Y-81502489D03*
X266024459Y-80929451D03*
%TD*%
D15*
%TO.C,D13*%
X175610013Y-125342084D03*
X178859879Y-125915122D03*
%TD*%
D17*
%TO.C,S11*%
X169264205Y-95968903D03*
D16*
X158272543Y-97838626D03*
D17*
X164722193Y-92934085D03*
D18*
X163688986Y-98793691D03*
D16*
X169105429Y-99748756D03*
%TD*%
D24*
%TO.C,D2*%
X106030634Y-99016817D03*
X109312556Y-99361761D03*
%TD*%
D15*
%TO.C,D5*%
X125794829Y-96884434D03*
X129044695Y-97457472D03*
%TD*%
D17*
%TO.C,S20*%
X304125440Y-88597629D03*
D18*
X304747384Y-94515034D03*
D16*
X299277514Y-95089941D03*
X310217254Y-93940127D03*
D17*
X309328012Y-90262935D03*
%TD*%
D27*
%TO.C,D35*%
X243229003Y-143101547D03*
X246367489Y-142081791D03*
%TD*%
D22*
%TO.C,D29*%
X248412489Y-103708804D03*
X251662355Y-103135766D03*
%TD*%
D17*
%TO.C,S31*%
X239132026Y-116438737D03*
D18*
X234859168Y-121000007D03*
D16*
X240275611Y-120044942D03*
X229442725Y-121955072D03*
D17*
X233825961Y-115140401D03*
%TD*%
D18*
%TO.C,S4*%
X125283890Y-109284087D03*
D16*
X119867447Y-108329022D03*
D17*
X130859109Y-106459299D03*
X126317097Y-103424481D03*
D16*
X130700333Y-110239152D03*
%TD*%
D18*
%TO.C,S26*%
X266535401Y-93329104D03*
D16*
X261118958Y-94284169D03*
D17*
X270808259Y-88767834D03*
D16*
X271951844Y-92374039D03*
D17*
X265502194Y-87469498D03*
%TD*%
D28*
%TO.C,D19*%
X305374689Y-116268631D03*
X308656611Y-115923687D03*
%TD*%
D15*
%TO.C,D14*%
X178562031Y-108600353D03*
X181811897Y-109173391D03*
%TD*%
%TO.C,D12*%
X164199926Y-86394035D03*
X167449792Y-86967073D03*
%TD*%
D16*
%TO.C,S35*%
X248576680Y-136422111D03*
D18*
X243345869Y-138121704D03*
D16*
X238115058Y-139821297D03*
D17*
X246942338Y-133010157D03*
X241507218Y-132462918D03*
%TD*%
D16*
%TO.C,S27*%
X258166939Y-77542438D03*
D17*
X267856240Y-72026103D03*
X262550175Y-70727767D03*
D16*
X268999825Y-75632308D03*
D18*
X263583382Y-76587373D03*
%TD*%
D22*
%TO.C,D34*%
X261110497Y-138405949D03*
X264360363Y-137832911D03*
%TD*%
D15*
%TO.C,D9*%
X146885803Y-80929451D03*
X150135669Y-81502489D03*
%TD*%
D16*
%TO.C,S3*%
X115409732Y-78183071D03*
D17*
X115304453Y-74401349D03*
X110561806Y-71690759D03*
D18*
X109939862Y-77608164D03*
D16*
X104469992Y-77033257D03*
%TD*%
D17*
%TO.C,S32*%
X230873944Y-98398670D03*
D18*
X231907151Y-104258276D03*
D16*
X226490708Y-105213341D03*
X237323594Y-103303211D03*
D17*
X236180009Y-99697006D03*
%TD*%
D23*
%TO.C,PAD9*%
X162334023Y-127558753D03*
%TD*%
%TO.C,PAD12*%
X239374398Y-91898836D03*
%TD*%
D16*
%TO.C,S14*%
X186419556Y-105213340D03*
X175586670Y-103303210D03*
D18*
X181003113Y-104258275D03*
D17*
X182036320Y-98398669D03*
X186578332Y-101433487D03*
%TD*%
D23*
%TO.C,PAD3*%
X224199330Y-128210613D03*
%TD*%
D22*
%TO.C,D28*%
X251364509Y-120450537D03*
X254614375Y-119877499D03*
%TD*%
D23*
%TO.C,PAD13*%
X250576238Y-127558754D03*
%TD*%
D16*
%TO.C,S19*%
X301054498Y-111996813D03*
D17*
X305902424Y-105504501D03*
D18*
X306524368Y-111421906D03*
D16*
X311994238Y-110846999D03*
D17*
X311104996Y-107169807D03*
%TD*%
D29*
%TO.C,D36*%
X226175040Y-150240074D03*
X229141060Y-148793450D03*
%TD*%
D28*
%TO.C,D21*%
X301820725Y-82454886D03*
X305102647Y-82109942D03*
%TD*%
D15*
%TO.C,D10*%
X158295888Y-119877499D03*
X161545754Y-120450537D03*
%TD*%
D17*
%TO.C,S21*%
X302348454Y-71690757D03*
X307551026Y-73356063D03*
D16*
X308440268Y-77033255D03*
D18*
X302970398Y-77608162D03*
D16*
X297500528Y-78183069D03*
%TD*%
D24*
%TO.C,D3*%
X107807617Y-82109944D03*
X111089539Y-82454888D03*
%TD*%
D17*
%TO.C,S6*%
X132221136Y-69941018D03*
D16*
X136604372Y-76755689D03*
X125771486Y-74845559D03*
D17*
X136763148Y-72975836D03*
D18*
X131187929Y-75800624D03*
%TD*%
D30*
%TO.C,B1*%
X209705130Y-126000007D03*
X203205130Y-126000007D03*
%TD*%
D16*
%TO.C,S28*%
X257589739Y-114580356D03*
D17*
X256446154Y-110974151D03*
D18*
X252173296Y-115535421D03*
D16*
X246756853Y-116490486D03*
D17*
X251140089Y-109675815D03*
%TD*%
D16*
%TO.C,S8*%
X151791303Y-94284169D03*
D17*
X147408067Y-87469498D03*
D16*
X140958417Y-92374039D03*
D17*
X151950079Y-90504316D03*
D18*
X146374860Y-93329104D03*
%TD*%
D22*
%TO.C,D31*%
X234050383Y-125915122D03*
X237300249Y-125342084D03*
%TD*%
D28*
%TO.C,D20*%
X303597708Y-99361759D03*
X306879630Y-99016815D03*
%TD*%
D23*
%TO.C,PAD8*%
X173535860Y-91898835D03*
%TD*%
%TO.C,PAD5*%
X221247311Y-111468882D03*
%TD*%
%TO.C,PAD10*%
X293144902Y-82417644D03*
%TD*%
D15*
%TO.C,D4*%
X122842810Y-113626166D03*
X126092676Y-114199204D03*
%TD*%
D16*
%TO.C,S5*%
X122819466Y-91587291D03*
X133652352Y-93497421D03*
D18*
X128235909Y-92542356D03*
D17*
X133811128Y-89717568D03*
X129269116Y-86682750D03*
%TD*%
%TO.C,S10*%
X161770174Y-109675818D03*
D16*
X155320524Y-114580359D03*
D18*
X160736967Y-115535424D03*
D17*
X166312186Y-112710636D03*
D16*
X166153410Y-116490489D03*
%TD*%
%TO.C,S16*%
X156407424Y-134445898D03*
D18*
X150990981Y-133490833D03*
D16*
X145574538Y-132535768D03*
D17*
X152024188Y-127631227D03*
X156566200Y-130666045D03*
%TD*%
D22*
%TO.C,D32*%
X231098364Y-109173392D03*
X234348230Y-108600354D03*
%TD*%
D23*
%TO.C,PAD4*%
X191662947Y-111468881D03*
%TD*%
D15*
%TO.C,D6*%
X128746848Y-80142700D03*
X131996714Y-80715738D03*
%TD*%
D16*
%TO.C,S9*%
X154743323Y-77542437D03*
D17*
X154902099Y-73762584D03*
X150360087Y-70727766D03*
D18*
X149326880Y-76587372D03*
D16*
X143910437Y-75632307D03*
%TD*%
D23*
%TO.C,PAD6*%
X119765361Y-82417643D03*
%TD*%
D31*
%TO.C,D17*%
X166542769Y-142081790D03*
X169681255Y-143101546D03*
%TD*%
D17*
%TO.C,S12*%
X167674212Y-76192353D03*
D16*
X161224562Y-81096894D03*
X172057448Y-83007024D03*
D17*
X172216224Y-79227171D03*
D18*
X166641005Y-82051959D03*
%TD*%
D22*
%TO.C,D33*%
X228146346Y-92431659D03*
X231396212Y-91858621D03*
%TD*%
M02*
