%TF.GenerationSoftware,KiCad,Pcbnew,(6.0.7-1)-1*%
%TF.CreationDate,2022-09-13T20:48:51-04:00*%
%TF.ProjectId,egret,65677265-742e-46b6-9963-61645f706362,v1.0.0*%
%TF.SameCoordinates,Original*%
%TF.FileFunction,Paste,Top*%
%TF.FilePolarity,Positive*%
%FSLAX46Y46*%
G04 Gerber Fmt 4.6, Leading zero omitted, Abs format (unit mm)*
G04 Created by KiCad (PCBNEW (6.0.7-1)-1) date 2022-09-13 20:48:51*
%MOMM*%
%LPD*%
G01*
G04 APERTURE LIST*
G04 Aperture macros list*
%AMRotRect*
0 Rectangle, with rotation*
0 The origin of the aperture is its center*
0 $1 length*
0 $2 width*
0 $3 Rotation angle, in degrees counterclockwise*
0 Add horizontal line*
21,1,$1,$2,0,0,$3*%
G04 Aperture macros list end*
%ADD10RotRect,0.900000X1.200000X350.000000*%
%ADD11RotRect,0.900000X1.200000X334.000000*%
%ADD12RotRect,0.900000X1.200000X10.000000*%
%ADD13RotRect,0.900000X1.200000X354.000000*%
%ADD14RotRect,0.900000X1.200000X18.000000*%
%ADD15RotRect,0.900000X1.200000X6.000000*%
%ADD16RotRect,0.900000X1.200000X26.000000*%
%ADD17RotRect,0.900000X1.200000X342.000000*%
G04 APERTURE END LIST*
D10*
%TO.C,D11*%
X161247908Y-103135767D03*
X164497774Y-103708805D03*
%TD*%
%TO.C,D15*%
X181514051Y-91858622D03*
X184763917Y-92431660D03*
%TD*%
%TO.C,D16*%
X148549900Y-137832910D03*
X151799766Y-138405948D03*
%TD*%
D11*
%TO.C,D18*%
X183769204Y-148793449D03*
X186735224Y-150240073D03*
%TD*%
D12*
%TO.C,D24*%
X280913548Y-80715740D03*
X284163414Y-80142702D03*
%TD*%
%TO.C,D23*%
X283865569Y-97457472D03*
X287115435Y-96884434D03*
%TD*%
%TO.C,D25*%
X268678631Y-114985951D03*
X271928497Y-114412913D03*
%TD*%
%TO.C,D22*%
X286817586Y-114199203D03*
X290067452Y-113626165D03*
%TD*%
D13*
%TO.C,D1*%
X104253651Y-115923686D03*
X107535573Y-116268630D03*
%TD*%
D12*
%TO.C,D26*%
X265726614Y-98244220D03*
X268976480Y-97671182D03*
%TD*%
%TO.C,D30*%
X245460469Y-86967074D03*
X248710335Y-86394036D03*
%TD*%
D10*
%TO.C,D8*%
X143933784Y-97671184D03*
X147183650Y-98244222D03*
%TD*%
%TO.C,D7*%
X140981763Y-114412913D03*
X144231629Y-114985951D03*
%TD*%
D12*
%TO.C,D27*%
X262774593Y-81502489D03*
X266024459Y-80929451D03*
%TD*%
D10*
%TO.C,D13*%
X175610013Y-125342084D03*
X178859879Y-125915122D03*
%TD*%
D13*
%TO.C,D2*%
X106030634Y-99016817D03*
X109312556Y-99361761D03*
%TD*%
D10*
%TO.C,D5*%
X125794829Y-96884434D03*
X129044695Y-97457472D03*
%TD*%
D14*
%TO.C,D35*%
X243229003Y-143101547D03*
X246367489Y-142081791D03*
%TD*%
D12*
%TO.C,D29*%
X248412489Y-103708804D03*
X251662355Y-103135766D03*
%TD*%
D15*
%TO.C,D19*%
X305374689Y-116268631D03*
X308656611Y-115923687D03*
%TD*%
D10*
%TO.C,D14*%
X178562031Y-108600353D03*
X181811897Y-109173391D03*
%TD*%
%TO.C,D12*%
X164199926Y-86394035D03*
X167449792Y-86967073D03*
%TD*%
D12*
%TO.C,D34*%
X261110497Y-138405949D03*
X264360363Y-137832911D03*
%TD*%
D10*
%TO.C,D9*%
X146885803Y-80929451D03*
X150135669Y-81502489D03*
%TD*%
D12*
%TO.C,D28*%
X251364509Y-120450537D03*
X254614375Y-119877499D03*
%TD*%
D16*
%TO.C,D36*%
X226175040Y-150240074D03*
X229141060Y-148793450D03*
%TD*%
D15*
%TO.C,D21*%
X301820725Y-82454886D03*
X305102647Y-82109942D03*
%TD*%
D10*
%TO.C,D10*%
X158295888Y-119877499D03*
X161545754Y-120450537D03*
%TD*%
D13*
%TO.C,D3*%
X107807617Y-82109944D03*
X111089539Y-82454888D03*
%TD*%
D12*
%TO.C,D31*%
X234050383Y-125915122D03*
X237300249Y-125342084D03*
%TD*%
D15*
%TO.C,D20*%
X303597708Y-99361759D03*
X306879630Y-99016815D03*
%TD*%
D10*
%TO.C,D4*%
X122842810Y-113626166D03*
X126092676Y-114199204D03*
%TD*%
D12*
%TO.C,D32*%
X231098364Y-109173392D03*
X234348230Y-108600354D03*
%TD*%
D10*
%TO.C,D6*%
X128746848Y-80142700D03*
X131996714Y-80715738D03*
%TD*%
D17*
%TO.C,D17*%
X166542769Y-142081790D03*
X169681255Y-143101546D03*
%TD*%
D12*
%TO.C,D33*%
X228146346Y-92431659D03*
X231396212Y-91858621D03*
%TD*%
M02*
