%TF.GenerationSoftware,KiCad,Pcbnew,(6.0.7-1)-1*%
%TF.CreationDate,2022-09-13T11:26:26-04:00*%
%TF.ProjectId,egret,65677265-742e-46b6-9963-61645f706362,v1.0.0*%
%TF.SameCoordinates,Original*%
%TF.FileFunction,Soldermask,Bot*%
%TF.FilePolarity,Negative*%
%FSLAX46Y46*%
G04 Gerber Fmt 4.6, Leading zero omitted, Abs format (unit mm)*
G04 Created by KiCad (PCBNEW (6.0.7-1)-1) date 2022-09-13 11:26:26*
%MOMM*%
%LPD*%
G01*
G04 APERTURE LIST*
G04 Aperture macros list*
%AMRoundRect*
0 Rectangle with rounded corners*
0 $1 Rounding radius*
0 $2 $3 $4 $5 $6 $7 $8 $9 X,Y pos of 4 corners*
0 Add a 4 corners polygon primitive as box body*
4,1,4,$2,$3,$4,$5,$6,$7,$8,$9,$2,$3,0*
0 Add four circle primitives for the rounded corners*
1,1,$1+$1,$2,$3*
1,1,$1+$1,$4,$5*
1,1,$1+$1,$6,$7*
1,1,$1+$1,$8,$9*
0 Add four rect primitives between the rounded corners*
20,1,$1+$1,$2,$3,$4,$5,0*
20,1,$1+$1,$4,$5,$6,$7,0*
20,1,$1+$1,$6,$7,$8,$9,0*
20,1,$1+$1,$8,$9,$2,$3,0*%
G04 Aperture macros list end*
%ADD10RoundRect,0.050000X-0.450000X-0.450000X0.450000X-0.450000X0.450000X0.450000X-0.450000X0.450000X0*%
%ADD11C,1.100000*%
%ADD12RoundRect,0.050000X-0.450000X-0.625000X0.450000X-0.625000X0.450000X0.625000X-0.450000X0.625000X0*%
%ADD13C,1.801800*%
%ADD14C,3.100000*%
%ADD15C,3.529000*%
%ADD16RoundRect,0.050000X-1.054507X-1.505993X1.505993X-1.054507X1.054507X1.505993X-1.505993X1.054507X0*%
%ADD17RoundRect,0.050000X-0.876300X0.876300X-0.876300X-0.876300X0.876300X-0.876300X0.876300X0.876300X0*%
%ADD18C,1.852600*%
%ADD19RoundRect,0.050000X-1.505993X-1.054507X1.054507X-1.505993X1.505993X1.054507X-1.054507X1.505993X0*%
%ADD20RoundRect,0.050000X-0.598550X-1.738315X1.738315X-0.598550X0.598550X1.738315X-1.738315X0.598550X0*%
%ADD21C,4.500000*%
%ADD22RoundRect,0.050000X-1.638096X-0.834651X0.834651X-1.638096X1.638096X0.834651X-0.834651X1.638096X0*%
%ADD23RoundRect,0.050000X-1.738315X-0.598550X0.598550X-1.738315X1.738315X0.598550X-0.598550X1.738315X0*%
%ADD24RoundRect,0.050000X-1.428765X-1.156991X1.156991X-1.428765X1.428765X1.156991X-1.156991X1.428765X0*%
%ADD25RoundRect,0.050000X0.850000X-0.600000X0.850000X0.600000X-0.850000X0.600000X-0.850000X-0.600000X0*%
%ADD26O,1.800000X1.300000*%
%ADD27RoundRect,0.050000X-1.156991X-1.428765X1.428765X-1.156991X1.156991X1.428765X-1.428765X1.156991X0*%
%ADD28RoundRect,0.050000X-0.834651X-1.638096X1.638096X-0.834651X0.834651X1.638096X-1.638096X0.834651X0*%
%ADD29C,2.100000*%
%ADD30RoundRect,0.050000X-0.764773X-0.845649X1.007881X-0.533082X0.764773X0.845649X-1.007881X0.533082X0*%
%ADD31RoundRect,0.050000X-0.968240X-0.602090X0.821900X-0.790241X0.968240X0.602090X-0.821900X0.790241X0*%
%ADD32RoundRect,0.050000X-1.007881X-0.533082X0.764773X-0.845649X1.007881X0.533082X-0.764773X0.845649X0*%
%ADD33RoundRect,0.050000X-0.900000X-0.700000X0.900000X-0.700000X0.900000X0.700000X-0.900000X0.700000X0*%
%ADD34RoundRect,0.050000X-0.821900X-0.790241X0.968240X-0.602090X0.821900X0.790241X-0.968240X0.602090X0*%
G04 APERTURE END LIST*
D10*
%TO.C,T1*%
X202755131Y-80416544D03*
X210155131Y-80416544D03*
X202755131Y-82616544D03*
D11*
X207955131Y-81516544D03*
X204955131Y-81516544D03*
D10*
X210155131Y-82616544D03*
D12*
X204205131Y-83591544D03*
X207205131Y-83591544D03*
X208705131Y-83591544D03*
%TD*%
D13*
%TO.C,S33*%
X223538688Y-88471611D03*
D14*
X233227989Y-82955276D03*
D13*
X234371574Y-86561481D03*
D15*
X228955131Y-87516546D03*
D14*
X227921924Y-81656940D03*
D16*
X224696679Y-82225638D03*
X236453234Y-82386578D03*
%TD*%
D17*
%TO.C,MCU1*%
X214075131Y-85546547D03*
D18*
X214075131Y-88086547D03*
X214075131Y-90626547D03*
X214075131Y-93166547D03*
X214075131Y-95706547D03*
X214075131Y-98246547D03*
X214075131Y-100786547D03*
X214075131Y-103326547D03*
X214075131Y-105866547D03*
X214075131Y-108406547D03*
X214075131Y-110946547D03*
X214075131Y-113486547D03*
X198835131Y-85546547D03*
X198835131Y-88086547D03*
X198835131Y-90626547D03*
X198835131Y-93166547D03*
X198835131Y-95706547D03*
X198835131Y-98246547D03*
X198835131Y-100786547D03*
X198835131Y-103326547D03*
X198835131Y-105866547D03*
X198835131Y-108406547D03*
X198835131Y-110946547D03*
X198835131Y-113486547D03*
%TD*%
D13*
%TO.C,S24*%
X276305892Y-76755692D03*
D14*
X285995193Y-71239357D03*
D15*
X281722335Y-75800627D03*
D14*
X280689128Y-69941021D03*
D13*
X287138778Y-74845562D03*
D16*
X277463883Y-70509719D03*
X289220438Y-70670659D03*
%TD*%
D14*
%TO.C,S7*%
X148998062Y-107246049D03*
X144456050Y-104211231D03*
D15*
X143422843Y-110070837D03*
D13*
X148839286Y-111025902D03*
X138006400Y-109115772D03*
D19*
X141230804Y-103642533D03*
X152223308Y-107814747D03*
%TD*%
D14*
%TO.C,S30*%
X250542116Y-77490688D03*
D15*
X246269258Y-82051958D03*
D14*
X245236051Y-76192352D03*
D13*
X240852815Y-83007023D03*
X251685701Y-81096893D03*
D16*
X242010806Y-76761050D03*
X253767361Y-76921990D03*
%TD*%
D14*
%TO.C,S25*%
X273760277Y-105509565D03*
D15*
X269487419Y-110070835D03*
D14*
X268454212Y-104211229D03*
D13*
X274903862Y-109115770D03*
X264070976Y-111025900D03*
D16*
X265228967Y-104779927D03*
X276985522Y-104940867D03*
%TD*%
D14*
%TO.C,S36*%
X228447781Y-139730095D03*
D13*
X230541070Y-142881387D03*
D15*
X225597703Y-145292428D03*
D14*
X222989395Y-139944603D03*
D13*
X220654336Y-147703469D03*
D20*
X220045844Y-141380269D03*
X231391332Y-138294429D03*
%TD*%
D21*
%TO.C,PAD7*%
X117404224Y-99263565D03*
%TD*%
D14*
%TO.C,S29*%
X248188069Y-92934084D03*
D13*
X243804833Y-99748755D03*
D14*
X253494134Y-94232420D03*
D15*
X249221276Y-98793690D03*
D13*
X254637719Y-97838625D03*
D16*
X244962824Y-93502782D03*
X256719379Y-93663722D03*
%TD*%
D13*
%TO.C,S17*%
X164333582Y-136422111D03*
D14*
X175478489Y-136100327D03*
X171403044Y-132462918D03*
D15*
X169564393Y-138121704D03*
D13*
X174795204Y-139821297D03*
D22*
X168288334Y-131450887D03*
X178593199Y-137112358D03*
%TD*%
D15*
%TO.C,S18*%
X187312560Y-145292428D03*
D13*
X192255927Y-147703469D03*
D14*
X189920868Y-139944603D03*
X193450422Y-144113806D03*
D13*
X182369193Y-142881387D03*
D23*
X186977318Y-138508938D03*
X196393973Y-145549472D03*
%TD*%
D14*
%TO.C,S2*%
X113527469Y-91308219D03*
D13*
X113632748Y-95089941D03*
D14*
X108784822Y-88597629D03*
D13*
X102693008Y-93940127D03*
D15*
X108162878Y-94515034D03*
D24*
X105527763Y-88255298D03*
X116784528Y-91650550D03*
%TD*%
D13*
%TO.C,S23*%
X279257911Y-93497421D03*
X290090797Y-91587291D03*
D15*
X284674354Y-92542356D03*
D14*
X288947212Y-87981086D03*
X283641147Y-86682750D03*
D16*
X280415902Y-87251448D03*
X292172457Y-87412388D03*
%TD*%
D13*
%TO.C,S22*%
X293042818Y-108329022D03*
D15*
X287626375Y-109284087D03*
D13*
X282209932Y-110239152D03*
D14*
X286593168Y-103424481D03*
X291899233Y-104722817D03*
D16*
X283367923Y-103993179D03*
X295124478Y-104154119D03*
%TD*%
D13*
%TO.C,S1*%
X100916024Y-110846999D03*
D14*
X107007838Y-105504501D03*
D13*
X111855764Y-111996813D03*
D15*
X106385894Y-111421906D03*
D14*
X111750485Y-108215091D03*
D24*
X103750779Y-105162170D03*
X115007544Y-108557422D03*
%TD*%
D25*
%TO.C,JST1*%
X197455133Y-119966543D03*
D26*
X197455133Y-117966543D03*
%TD*%
D21*
%TO.C,PAD2*%
X188710933Y-128210614D03*
%TD*%
D14*
%TO.C,S34*%
X266192140Y-128929563D03*
D15*
X261919282Y-133490833D03*
D13*
X267335725Y-132535768D03*
D14*
X260886075Y-127631227D03*
D13*
X256502839Y-134445898D03*
D16*
X257660830Y-128199925D03*
X269417385Y-128360865D03*
%TD*%
D14*
%TO.C,S15*%
X184988339Y-81656939D03*
D15*
X183955132Y-87516545D03*
D13*
X189371575Y-88471610D03*
X178538689Y-86561480D03*
D14*
X189530351Y-84691757D03*
D19*
X181763093Y-81088241D03*
X192755597Y-85260455D03*
%TD*%
D21*
%TO.C,PAD11*%
X295506037Y-99263563D03*
%TD*%
D13*
%TO.C,S13*%
X172634652Y-120044942D03*
D14*
X179084302Y-115140401D03*
X183626314Y-118175219D03*
D15*
X178051095Y-121000007D03*
D13*
X183467538Y-121955072D03*
D19*
X175859056Y-114571703D03*
X186851560Y-118743917D03*
%TD*%
D14*
%TO.C,S11*%
X169264205Y-95968903D03*
D13*
X158272543Y-97838626D03*
D14*
X164722193Y-92934085D03*
D15*
X163688986Y-98793691D03*
D13*
X169105429Y-99748756D03*
D19*
X161496947Y-92365387D03*
X172489451Y-96537601D03*
%TD*%
D14*
%TO.C,S20*%
X304125440Y-88597629D03*
D15*
X304747384Y-94515034D03*
D13*
X299277514Y-95089941D03*
X310217254Y-93940127D03*
D14*
X309328012Y-90262935D03*
D27*
X300868380Y-88939959D03*
X312585071Y-89920604D03*
%TD*%
D14*
%TO.C,S31*%
X239132026Y-116438737D03*
D15*
X234859168Y-121000007D03*
D13*
X240275611Y-120044942D03*
X229442725Y-121955072D03*
D14*
X233825961Y-115140401D03*
D16*
X230600716Y-115709099D03*
X242357271Y-115870039D03*
%TD*%
D15*
%TO.C,S4*%
X125283890Y-109284087D03*
D13*
X119867447Y-108329022D03*
D14*
X130859109Y-106459299D03*
X126317097Y-103424481D03*
D13*
X130700333Y-110239152D03*
D19*
X123091851Y-102855783D03*
X134084355Y-107027997D03*
%TD*%
D15*
%TO.C,S26*%
X266535401Y-93329104D03*
D13*
X261118958Y-94284169D03*
D14*
X270808259Y-88767834D03*
D13*
X271951844Y-92374039D03*
D14*
X265502194Y-87469498D03*
D16*
X262276949Y-88038196D03*
X274033504Y-88199136D03*
%TD*%
D13*
%TO.C,S35*%
X248576680Y-136422111D03*
D15*
X243345869Y-138121704D03*
D13*
X238115058Y-139821297D03*
D14*
X246942338Y-133010157D03*
X241507218Y-132462918D03*
D28*
X238392508Y-133474948D03*
X250057048Y-131998126D03*
%TD*%
D13*
%TO.C,S27*%
X258166939Y-77542438D03*
D14*
X267856240Y-72026103D03*
X262550175Y-70727767D03*
D13*
X268999825Y-75632308D03*
D15*
X263583382Y-76587373D03*
D16*
X259324930Y-71296465D03*
X271081485Y-71457405D03*
%TD*%
D13*
%TO.C,S3*%
X115409732Y-78183071D03*
D14*
X115304453Y-74401349D03*
X110561806Y-71690759D03*
D15*
X109939862Y-77608164D03*
D13*
X104469992Y-77033257D03*
D24*
X107304747Y-71348428D03*
X118561512Y-74743680D03*
%TD*%
D14*
%TO.C,S32*%
X230873944Y-98398670D03*
D15*
X231907151Y-104258276D03*
D13*
X226490708Y-105213341D03*
X237323594Y-103303211D03*
D14*
X236180009Y-99697006D03*
D16*
X227648699Y-98967368D03*
X239405254Y-99128308D03*
%TD*%
D21*
%TO.C,PAD9*%
X162334023Y-127558753D03*
%TD*%
%TO.C,PAD12*%
X239374398Y-91898836D03*
%TD*%
D13*
%TO.C,S14*%
X186419556Y-105213340D03*
X175586670Y-103303210D03*
D15*
X181003113Y-104258275D03*
D14*
X182036320Y-98398669D03*
X186578332Y-101433487D03*
D19*
X178811074Y-97829971D03*
X189803578Y-102002185D03*
%TD*%
D21*
%TO.C,PAD3*%
X224199330Y-128210613D03*
%TD*%
%TO.C,PAD13*%
X250576238Y-127558754D03*
%TD*%
D13*
%TO.C,S19*%
X301054498Y-111996813D03*
D14*
X305902424Y-105504501D03*
D15*
X306524368Y-111421906D03*
D13*
X311994238Y-110846999D03*
D14*
X311104996Y-107169807D03*
D27*
X302645364Y-105846831D03*
X314362055Y-106827476D03*
%TD*%
D14*
%TO.C,S21*%
X302348454Y-71690757D03*
X307551026Y-73356063D03*
D13*
X308440268Y-77033255D03*
D15*
X302970398Y-77608162D03*
D13*
X297500528Y-78183069D03*
D27*
X299091394Y-72033087D03*
X310808085Y-73013732D03*
%TD*%
D14*
%TO.C,S6*%
X132221136Y-69941018D03*
D13*
X136604372Y-76755689D03*
X125771486Y-74845559D03*
D14*
X136763148Y-72975836D03*
D15*
X131187929Y-75800624D03*
D19*
X128995890Y-69372320D03*
X139988394Y-73544534D03*
%TD*%
D29*
%TO.C,B1*%
X209705130Y-126000007D03*
X203205130Y-126000007D03*
%TD*%
D13*
%TO.C,S28*%
X257589739Y-114580356D03*
D14*
X256446154Y-110974151D03*
D15*
X252173296Y-115535421D03*
D13*
X246756853Y-116490486D03*
D14*
X251140089Y-109675815D03*
D16*
X247914844Y-110244513D03*
X259671399Y-110405453D03*
%TD*%
D13*
%TO.C,S8*%
X151791303Y-94284169D03*
D14*
X147408067Y-87469498D03*
D13*
X140958417Y-92374039D03*
D14*
X151950079Y-90504316D03*
D15*
X146374860Y-93329104D03*
D19*
X144182821Y-86900800D03*
X155175325Y-91073014D03*
%TD*%
D21*
%TO.C,PAD8*%
X173535860Y-91898835D03*
%TD*%
%TO.C,PAD5*%
X221247311Y-111468882D03*
%TD*%
%TO.C,PAD10*%
X293144902Y-82417644D03*
%TD*%
D13*
%TO.C,S5*%
X122819466Y-91587291D03*
X133652352Y-93497421D03*
D15*
X128235909Y-92542356D03*
D14*
X133811128Y-89717568D03*
X129269116Y-86682750D03*
D19*
X126043870Y-86114052D03*
X137036374Y-90286266D03*
%TD*%
D14*
%TO.C,S10*%
X161770174Y-109675818D03*
D13*
X155320524Y-114580359D03*
D15*
X160736967Y-115535424D03*
D14*
X166312186Y-112710636D03*
D13*
X166153410Y-116490489D03*
D19*
X158544928Y-109107120D03*
X169537432Y-113279334D03*
%TD*%
D13*
%TO.C,S16*%
X156407424Y-134445898D03*
D15*
X150990981Y-133490833D03*
D13*
X145574538Y-132535768D03*
D14*
X152024188Y-127631227D03*
X156566200Y-130666045D03*
D19*
X148798942Y-127062529D03*
X159791446Y-131234743D03*
%TD*%
D21*
%TO.C,PAD4*%
X191662947Y-111468881D03*
%TD*%
D13*
%TO.C,S9*%
X154743323Y-77542437D03*
D14*
X154902099Y-73762584D03*
X150360087Y-70727766D03*
D15*
X149326880Y-76587372D03*
D13*
X143910437Y-75632307D03*
D19*
X147134841Y-70159068D03*
X158127345Y-74331282D03*
%TD*%
D21*
%TO.C,PAD6*%
X119765361Y-82417643D03*
%TD*%
D14*
%TO.C,S12*%
X167674212Y-76192353D03*
D13*
X161224562Y-81096894D03*
X172057448Y-83007024D03*
D14*
X172216224Y-79227171D03*
D15*
X166641005Y-82051959D03*
D19*
X164448966Y-75623655D03*
X175441470Y-79795869D03*
%TD*%
D30*
%TO.C,LED11*%
X259634989Y-80685261D03*
X260208028Y-83935126D03*
X255480951Y-84768637D03*
X254907912Y-81518772D03*
%TD*%
D31*
%TO.C,LED2*%
X115457372Y-81556527D03*
X115112428Y-84838449D03*
X110338722Y-84336713D03*
X110683666Y-81054791D03*
%TD*%
D32*
%TO.C,LED4*%
X151751017Y-116971852D03*
X151177978Y-120221717D03*
X146450901Y-119388206D03*
X147023940Y-116138341D03*
%TD*%
D33*
%TO.C,LED6*%
X208855131Y-140642429D03*
X208855131Y-143942429D03*
X204055131Y-143942429D03*
X204055131Y-140642429D03*
%TD*%
D32*
%TO.C,LED5*%
X184062357Y-129523340D03*
X183489318Y-132773205D03*
X178762241Y-131939694D03*
X179335280Y-128689829D03*
%TD*%
D31*
%TO.C,LED3*%
X113130863Y-98908398D03*
X112785919Y-102190320D03*
X108012213Y-101688584D03*
X108357157Y-98406662D03*
%TD*%
D32*
%TO.C,LED1*%
X158002351Y-81518774D03*
X157429312Y-84768639D03*
X152702235Y-83935128D03*
X153275274Y-80685263D03*
%TD*%
D30*
%TO.C,LED7*%
X233574984Y-128689832D03*
X234148023Y-131939697D03*
X229420946Y-132773208D03*
X228847907Y-129523343D03*
%TD*%
D34*
%TO.C,LED9*%
X304553105Y-98406661D03*
X304898049Y-101688583D03*
X300124343Y-102190319D03*
X299779399Y-98908397D03*
%TD*%
D30*
%TO.C,LED8*%
X265886321Y-116138339D03*
X266459360Y-119388204D03*
X261732283Y-120221715D03*
X261159244Y-116971850D03*
%TD*%
D34*
%TO.C,LED10*%
X302226596Y-81054793D03*
X302571540Y-84336715D03*
X297797834Y-84838451D03*
X297452890Y-81556529D03*
%TD*%
M02*
