%TF.GenerationSoftware,KiCad,Pcbnew,(6.0.7-1)-1*%
%TF.CreationDate,2022-09-13T11:26:25-04:00*%
%TF.ProjectId,egret,65677265-742e-46b6-9963-61645f706362,v1.0.0*%
%TF.SameCoordinates,Original*%
%TF.FileFunction,Paste,Bot*%
%TF.FilePolarity,Positive*%
%FSLAX46Y46*%
G04 Gerber Fmt 4.6, Leading zero omitted, Abs format (unit mm)*
G04 Created by KiCad (PCBNEW (6.0.7-1)-1) date 2022-09-13 11:26:25*
%MOMM*%
%LPD*%
G01*
G04 APERTURE LIST*
G04 Aperture macros list*
%AMRotRect*
0 Rectangle, with rotation*
0 The origin of the aperture is its center*
0 $1 length*
0 $2 width*
0 $3 Rotation angle, in degrees counterclockwise*
0 Add horizontal line*
21,1,$1,$2,0,0,$3*%
G04 Aperture macros list end*
%ADD10R,0.900000X0.900000*%
%ADD11R,0.900000X1.250000*%
%ADD12RotRect,2.600000X2.600000X10.000000*%
%ADD13RotRect,2.600000X2.600000X350.000000*%
%ADD14RotRect,2.600000X2.600000X26.000000*%
%ADD15RotRect,2.600000X2.600000X342.000000*%
%ADD16RotRect,2.600000X2.600000X334.000000*%
%ADD17RotRect,2.600000X2.600000X354.000000*%
%ADD18RotRect,2.600000X2.600000X6.000000*%
%ADD19RotRect,2.600000X2.600000X18.000000*%
%ADD20RotRect,1.800000X1.400000X10.000000*%
%ADD21RotRect,1.800000X1.400000X354.000000*%
%ADD22RotRect,1.800000X1.400000X350.000000*%
%ADD23R,1.800000X1.400000*%
%ADD24RotRect,1.800000X1.400000X6.000000*%
G04 APERTURE END LIST*
D10*
%TO.C,T1*%
X202755131Y-80416544D03*
X210155131Y-80416544D03*
X202755131Y-82616544D03*
X210155131Y-82616544D03*
D11*
X204205131Y-83591544D03*
X207205131Y-83591544D03*
X208705131Y-83591544D03*
%TD*%
D12*
%TO.C,S33*%
X224696679Y-82225638D03*
X236453234Y-82386578D03*
%TD*%
%TO.C,S24*%
X277463883Y-70509719D03*
X289220438Y-70670659D03*
%TD*%
D13*
%TO.C,S7*%
X141230804Y-103642533D03*
X152223308Y-107814747D03*
%TD*%
D12*
%TO.C,S30*%
X242010806Y-76761050D03*
X253767361Y-76921990D03*
%TD*%
%TO.C,S25*%
X265228967Y-104779927D03*
X276985522Y-104940867D03*
%TD*%
D14*
%TO.C,S36*%
X220045844Y-141380269D03*
X231391332Y-138294429D03*
%TD*%
D12*
%TO.C,S29*%
X244962824Y-93502782D03*
X256719379Y-93663722D03*
%TD*%
D15*
%TO.C,S17*%
X168288334Y-131450887D03*
X178593199Y-137112358D03*
%TD*%
D16*
%TO.C,S18*%
X186977318Y-138508938D03*
X196393973Y-145549472D03*
%TD*%
D17*
%TO.C,S2*%
X105527763Y-88255298D03*
X116784528Y-91650550D03*
%TD*%
D12*
%TO.C,S23*%
X280415902Y-87251448D03*
X292172457Y-87412388D03*
%TD*%
%TO.C,S22*%
X283367923Y-103993179D03*
X295124478Y-104154119D03*
%TD*%
D17*
%TO.C,S1*%
X103750779Y-105162170D03*
X115007544Y-108557422D03*
%TD*%
D12*
%TO.C,S34*%
X257660830Y-128199925D03*
X269417385Y-128360865D03*
%TD*%
D13*
%TO.C,S15*%
X181763093Y-81088241D03*
X192755597Y-85260455D03*
%TD*%
%TO.C,S13*%
X175859056Y-114571703D03*
X186851560Y-118743917D03*
%TD*%
%TO.C,S11*%
X161496947Y-92365387D03*
X172489451Y-96537601D03*
%TD*%
D18*
%TO.C,S20*%
X300868380Y-88939959D03*
X312585071Y-89920604D03*
%TD*%
D12*
%TO.C,S31*%
X230600716Y-115709099D03*
X242357271Y-115870039D03*
%TD*%
D13*
%TO.C,S4*%
X123091851Y-102855783D03*
X134084355Y-107027997D03*
%TD*%
D12*
%TO.C,S26*%
X262276949Y-88038196D03*
X274033504Y-88199136D03*
%TD*%
D19*
%TO.C,S35*%
X238392508Y-133474948D03*
X250057048Y-131998126D03*
%TD*%
D12*
%TO.C,S27*%
X259324930Y-71296465D03*
X271081485Y-71457405D03*
%TD*%
D17*
%TO.C,S3*%
X107304747Y-71348428D03*
X118561512Y-74743680D03*
%TD*%
D12*
%TO.C,S32*%
X227648699Y-98967368D03*
X239405254Y-99128308D03*
%TD*%
D13*
%TO.C,S14*%
X178811074Y-97829971D03*
X189803578Y-102002185D03*
%TD*%
D18*
%TO.C,S19*%
X302645364Y-105846831D03*
X314362055Y-106827476D03*
%TD*%
%TO.C,S21*%
X299091394Y-72033087D03*
X310808085Y-73013732D03*
%TD*%
D13*
%TO.C,S6*%
X128995890Y-69372320D03*
X139988394Y-73544534D03*
%TD*%
D12*
%TO.C,S28*%
X247914844Y-110244513D03*
X259671399Y-110405453D03*
%TD*%
D13*
%TO.C,S8*%
X144182821Y-86900800D03*
X155175325Y-91073014D03*
%TD*%
%TO.C,S5*%
X126043870Y-86114052D03*
X137036374Y-90286266D03*
%TD*%
%TO.C,S10*%
X158544928Y-109107120D03*
X169537432Y-113279334D03*
%TD*%
%TO.C,S16*%
X148798942Y-127062529D03*
X159791446Y-131234743D03*
%TD*%
%TO.C,S9*%
X147134841Y-70159068D03*
X158127345Y-74331282D03*
%TD*%
%TO.C,S12*%
X164448966Y-75623655D03*
X175441470Y-79795869D03*
%TD*%
D20*
%TO.C,LED11*%
X259634989Y-80685261D03*
X260208028Y-83935126D03*
X255480951Y-84768637D03*
X254907912Y-81518772D03*
%TD*%
D21*
%TO.C,LED2*%
X115457372Y-81556527D03*
X115112428Y-84838449D03*
X110338722Y-84336713D03*
X110683666Y-81054791D03*
%TD*%
D22*
%TO.C,LED4*%
X151751017Y-116971852D03*
X151177978Y-120221717D03*
X146450901Y-119388206D03*
X147023940Y-116138341D03*
%TD*%
D23*
%TO.C,LED6*%
X208855131Y-140642429D03*
X208855131Y-143942429D03*
X204055131Y-143942429D03*
X204055131Y-140642429D03*
%TD*%
D22*
%TO.C,LED5*%
X184062357Y-129523340D03*
X183489318Y-132773205D03*
X178762241Y-131939694D03*
X179335280Y-128689829D03*
%TD*%
D21*
%TO.C,LED3*%
X113130863Y-98908398D03*
X112785919Y-102190320D03*
X108012213Y-101688584D03*
X108357157Y-98406662D03*
%TD*%
D22*
%TO.C,LED1*%
X158002351Y-81518774D03*
X157429312Y-84768639D03*
X152702235Y-83935128D03*
X153275274Y-80685263D03*
%TD*%
D20*
%TO.C,LED7*%
X233574984Y-128689832D03*
X234148023Y-131939697D03*
X229420946Y-132773208D03*
X228847907Y-129523343D03*
%TD*%
D24*
%TO.C,LED9*%
X304553105Y-98406661D03*
X304898049Y-101688583D03*
X300124343Y-102190319D03*
X299779399Y-98908397D03*
%TD*%
D20*
%TO.C,LED8*%
X265886321Y-116138339D03*
X266459360Y-119388204D03*
X261732283Y-120221715D03*
X261159244Y-116971850D03*
%TD*%
D24*
%TO.C,LED10*%
X302226596Y-81054793D03*
X302571540Y-84336715D03*
X297797834Y-84838451D03*
X297452890Y-81556529D03*
%TD*%
M02*
