%TF.GenerationSoftware,KiCad,Pcbnew,(6.0.7-1)-1*%
%TF.CreationDate,2022-09-13T20:48:51-04:00*%
%TF.ProjectId,egret,65677265-742e-46b6-9963-61645f706362,v1.0.0*%
%TF.SameCoordinates,Original*%
%TF.FileFunction,Soldermask,Top*%
%TF.FilePolarity,Negative*%
%FSLAX46Y46*%
G04 Gerber Fmt 4.6, Leading zero omitted, Abs format (unit mm)*
G04 Created by KiCad (PCBNEW (6.0.7-1)-1) date 2022-09-13 20:48:51*
%MOMM*%
%LPD*%
G01*
G04 APERTURE LIST*
G04 Aperture macros list*
%AMRoundRect*
0 Rectangle with rounded corners*
0 $1 Rounding radius*
0 $2 $3 $4 $5 $6 $7 $8 $9 X,Y pos of 4 corners*
0 Add a 4 corners polygon primitive as box body*
4,1,4,$2,$3,$4,$5,$6,$7,$8,$9,$2,$3,0*
0 Add four circle primitives for the rounded corners*
1,1,$1+$1,$2,$3*
1,1,$1+$1,$4,$5*
1,1,$1+$1,$6,$7*
1,1,$1+$1,$8,$9*
0 Add four rect primitives between the rounded corners*
20,1,$1+$1,$2,$3,$4,$5,0*
20,1,$1+$1,$4,$5,$6,$7,0*
20,1,$1+$1,$6,$7,$8,$9,0*
20,1,$1+$1,$8,$9,$2,$3,0*%
G04 Aperture macros list end*
%ADD10C,1.100000*%
%ADD11RoundRect,0.050000X-0.547352X-0.512743X0.338975X-0.669026X0.547352X0.512743X-0.338975X0.669026X0*%
%ADD12C,1.801800*%
%ADD13C,3.100000*%
%ADD14C,3.529000*%
%ADD15RoundRect,0.050000X-0.876300X0.876300X-0.876300X-0.876300X0.876300X-0.876300X0.876300X0.876300X0*%
%ADD16C,1.852600*%
%ADD17RoundRect,0.050000X-0.667480X-0.342009X0.141435X-0.736543X0.667480X0.342009X-0.141435X0.736543X0*%
%ADD18RoundRect,0.050000X-0.338975X-0.669026X0.547352X-0.512743X0.338975X0.669026X-0.547352X0.512743X0*%
%ADD19C,4.500000*%
%ADD20RoundRect,0.050000X-0.510252X-0.549675X0.384818X-0.643751X0.510252X0.549675X-0.384818X0.643751X0*%
%ADD21RoundRect,0.050000X0.850000X-0.600000X0.850000X0.600000X-0.850000X0.600000X-0.850000X-0.600000X0*%
%ADD22O,1.800000X1.300000*%
%ADD23RoundRect,0.050000X-0.242565X-0.709692X0.613386X-0.431576X0.242565X0.709692X-0.613386X0.431576X0*%
%ADD24RoundRect,0.050000X-0.384818X-0.643751X0.510252X-0.549675X0.384818X0.643751X-0.510252X0.549675X0*%
%ADD25RoundRect,0.050000X-0.141435X-0.736543X0.667480X-0.342009X0.141435X0.736543X-0.667480X0.342009X0*%
%ADD26C,2.100000*%
%ADD27RoundRect,0.050000X-0.613386X-0.431576X0.242565X-0.709692X0.613386X0.431576X-0.242565X0.709692X0*%
G04 APERTURE END LIST*
D10*
%TO.C,T1*%
X207955131Y-81516544D03*
X204955131Y-81516544D03*
%TD*%
D11*
%TO.C,D11*%
X161247908Y-103135767D03*
X164497774Y-103708805D03*
%TD*%
%TO.C,D15*%
X181514051Y-91858622D03*
X184763917Y-92431660D03*
%TD*%
D12*
%TO.C,S33*%
X223538688Y-88471611D03*
D13*
X233227989Y-82955276D03*
D12*
X234371574Y-86561481D03*
D14*
X228955131Y-87516546D03*
D13*
X227921924Y-81656940D03*
%TD*%
D15*
%TO.C,MCU1*%
X214075131Y-85546547D03*
D16*
X214075131Y-88086547D03*
X214075131Y-90626547D03*
X214075131Y-93166547D03*
X214075131Y-95706547D03*
X214075131Y-98246547D03*
X214075131Y-100786547D03*
X214075131Y-103326547D03*
X214075131Y-105866547D03*
X214075131Y-108406547D03*
X214075131Y-110946547D03*
X214075131Y-113486547D03*
X198835131Y-85546547D03*
X198835131Y-88086547D03*
X198835131Y-90626547D03*
X198835131Y-93166547D03*
X198835131Y-95706547D03*
X198835131Y-98246547D03*
X198835131Y-100786547D03*
X198835131Y-103326547D03*
X198835131Y-105866547D03*
X198835131Y-108406547D03*
X198835131Y-110946547D03*
X198835131Y-113486547D03*
%TD*%
D12*
%TO.C,S24*%
X276305892Y-76755692D03*
D13*
X285995193Y-71239357D03*
D14*
X281722335Y-75800627D03*
D13*
X280689128Y-69941021D03*
D12*
X287138778Y-74845562D03*
%TD*%
D13*
%TO.C,S7*%
X148998062Y-107246049D03*
X144456050Y-104211231D03*
D14*
X143422843Y-110070837D03*
D12*
X148839286Y-111025902D03*
X138006400Y-109115772D03*
%TD*%
D11*
%TO.C,D16*%
X148549900Y-137832910D03*
X151799766Y-138405948D03*
%TD*%
D17*
%TO.C,D18*%
X183769204Y-148793449D03*
X186735224Y-150240073D03*
%TD*%
D13*
%TO.C,S30*%
X250542116Y-77490688D03*
D14*
X246269258Y-82051958D03*
D13*
X245236051Y-76192352D03*
D12*
X240852815Y-83007023D03*
X251685701Y-81096893D03*
%TD*%
D18*
%TO.C,D24*%
X280913548Y-80715740D03*
X284163414Y-80142702D03*
%TD*%
%TO.C,D23*%
X283865569Y-97457472D03*
X287115435Y-96884434D03*
%TD*%
D13*
%TO.C,S25*%
X273760277Y-105509565D03*
D14*
X269487419Y-110070835D03*
D13*
X268454212Y-104211229D03*
D12*
X274903862Y-109115770D03*
X264070976Y-111025900D03*
%TD*%
D13*
%TO.C,S36*%
X228447781Y-139730095D03*
D12*
X230541070Y-142881387D03*
D14*
X225597703Y-145292428D03*
D13*
X222989395Y-139944603D03*
D12*
X220654336Y-147703469D03*
%TD*%
D18*
%TO.C,D25*%
X268678631Y-114985951D03*
X271928497Y-114412913D03*
%TD*%
D19*
%TO.C,PAD7*%
X117404224Y-99263565D03*
%TD*%
D18*
%TO.C,D22*%
X286817586Y-114199203D03*
X290067452Y-113626165D03*
%TD*%
D13*
%TO.C,S29*%
X248188069Y-92934084D03*
D12*
X243804833Y-99748755D03*
D13*
X253494134Y-94232420D03*
D14*
X249221276Y-98793690D03*
D12*
X254637719Y-97838625D03*
%TD*%
%TO.C,S17*%
X164333582Y-136422111D03*
D13*
X175478489Y-136100327D03*
X171403044Y-132462918D03*
D14*
X169564393Y-138121704D03*
D12*
X174795204Y-139821297D03*
%TD*%
D20*
%TO.C,D1*%
X104253651Y-115923686D03*
X107535573Y-116268630D03*
%TD*%
D14*
%TO.C,S18*%
X187312560Y-145292428D03*
D12*
X192255927Y-147703469D03*
D13*
X189920868Y-139944603D03*
X193450422Y-144113806D03*
D12*
X182369193Y-142881387D03*
%TD*%
D13*
%TO.C,S2*%
X113527469Y-91308219D03*
D12*
X113632748Y-95089941D03*
D13*
X108784822Y-88597629D03*
D12*
X102693008Y-93940127D03*
D14*
X108162878Y-94515034D03*
%TD*%
D12*
%TO.C,S23*%
X279257911Y-93497421D03*
X290090797Y-91587291D03*
D14*
X284674354Y-92542356D03*
D13*
X288947212Y-87981086D03*
X283641147Y-86682750D03*
%TD*%
D18*
%TO.C,D26*%
X265726614Y-98244220D03*
X268976480Y-97671182D03*
%TD*%
D12*
%TO.C,S22*%
X293042818Y-108329022D03*
D14*
X287626375Y-109284087D03*
D12*
X282209932Y-110239152D03*
D13*
X286593168Y-103424481D03*
X291899233Y-104722817D03*
%TD*%
D12*
%TO.C,S1*%
X100916024Y-110846999D03*
D13*
X107007838Y-105504501D03*
D12*
X111855764Y-111996813D03*
D14*
X106385894Y-111421906D03*
D13*
X111750485Y-108215091D03*
%TD*%
D21*
%TO.C,JST1*%
X197455133Y-119966543D03*
D22*
X197455133Y-117966543D03*
%TD*%
D18*
%TO.C,D30*%
X245460469Y-86967074D03*
X248710335Y-86394036D03*
%TD*%
D19*
%TO.C,PAD2*%
X188710933Y-128210614D03*
%TD*%
D13*
%TO.C,S34*%
X266192140Y-128929563D03*
D14*
X261919282Y-133490833D03*
D12*
X267335725Y-132535768D03*
D13*
X260886075Y-127631227D03*
D12*
X256502839Y-134445898D03*
%TD*%
D13*
%TO.C,S15*%
X184988339Y-81656939D03*
D14*
X183955132Y-87516545D03*
D12*
X189371575Y-88471610D03*
X178538689Y-86561480D03*
D13*
X189530351Y-84691757D03*
%TD*%
D19*
%TO.C,PAD11*%
X295506037Y-99263563D03*
%TD*%
D11*
%TO.C,D8*%
X143933784Y-97671184D03*
X147183650Y-98244222D03*
%TD*%
%TO.C,D7*%
X140981763Y-114412913D03*
X144231629Y-114985951D03*
%TD*%
D12*
%TO.C,S13*%
X172634652Y-120044942D03*
D13*
X179084302Y-115140401D03*
X183626314Y-118175219D03*
D14*
X178051095Y-121000007D03*
D12*
X183467538Y-121955072D03*
%TD*%
D18*
%TO.C,D27*%
X262774593Y-81502489D03*
X266024459Y-80929451D03*
%TD*%
D11*
%TO.C,D13*%
X175610013Y-125342084D03*
X178859879Y-125915122D03*
%TD*%
D13*
%TO.C,S11*%
X169264205Y-95968903D03*
D12*
X158272543Y-97838626D03*
D13*
X164722193Y-92934085D03*
D14*
X163688986Y-98793691D03*
D12*
X169105429Y-99748756D03*
%TD*%
D20*
%TO.C,D2*%
X106030634Y-99016817D03*
X109312556Y-99361761D03*
%TD*%
D11*
%TO.C,D5*%
X125794829Y-96884434D03*
X129044695Y-97457472D03*
%TD*%
D13*
%TO.C,S20*%
X304125440Y-88597629D03*
D14*
X304747384Y-94515034D03*
D12*
X299277514Y-95089941D03*
X310217254Y-93940127D03*
D13*
X309328012Y-90262935D03*
%TD*%
D23*
%TO.C,D35*%
X243229003Y-143101547D03*
X246367489Y-142081791D03*
%TD*%
D18*
%TO.C,D29*%
X248412489Y-103708804D03*
X251662355Y-103135766D03*
%TD*%
D13*
%TO.C,S31*%
X239132026Y-116438737D03*
D14*
X234859168Y-121000007D03*
D12*
X240275611Y-120044942D03*
X229442725Y-121955072D03*
D13*
X233825961Y-115140401D03*
%TD*%
D14*
%TO.C,S4*%
X125283890Y-109284087D03*
D12*
X119867447Y-108329022D03*
D13*
X130859109Y-106459299D03*
X126317097Y-103424481D03*
D12*
X130700333Y-110239152D03*
%TD*%
D14*
%TO.C,S26*%
X266535401Y-93329104D03*
D12*
X261118958Y-94284169D03*
D13*
X270808259Y-88767834D03*
D12*
X271951844Y-92374039D03*
D13*
X265502194Y-87469498D03*
%TD*%
D24*
%TO.C,D19*%
X305374689Y-116268631D03*
X308656611Y-115923687D03*
%TD*%
D11*
%TO.C,D14*%
X178562031Y-108600353D03*
X181811897Y-109173391D03*
%TD*%
%TO.C,D12*%
X164199926Y-86394035D03*
X167449792Y-86967073D03*
%TD*%
D12*
%TO.C,S35*%
X248576680Y-136422111D03*
D14*
X243345869Y-138121704D03*
D12*
X238115058Y-139821297D03*
D13*
X246942338Y-133010157D03*
X241507218Y-132462918D03*
%TD*%
D12*
%TO.C,S27*%
X258166939Y-77542438D03*
D13*
X267856240Y-72026103D03*
X262550175Y-70727767D03*
D12*
X268999825Y-75632308D03*
D14*
X263583382Y-76587373D03*
%TD*%
D18*
%TO.C,D34*%
X261110497Y-138405949D03*
X264360363Y-137832911D03*
%TD*%
D11*
%TO.C,D9*%
X146885803Y-80929451D03*
X150135669Y-81502489D03*
%TD*%
D12*
%TO.C,S3*%
X115409732Y-78183071D03*
D13*
X115304453Y-74401349D03*
X110561806Y-71690759D03*
D14*
X109939862Y-77608164D03*
D12*
X104469992Y-77033257D03*
%TD*%
D13*
%TO.C,S32*%
X230873944Y-98398670D03*
D14*
X231907151Y-104258276D03*
D12*
X226490708Y-105213341D03*
X237323594Y-103303211D03*
D13*
X236180009Y-99697006D03*
%TD*%
D19*
%TO.C,PAD9*%
X162334023Y-127558753D03*
%TD*%
%TO.C,PAD12*%
X239374398Y-91898836D03*
%TD*%
D12*
%TO.C,S14*%
X186419556Y-105213340D03*
X175586670Y-103303210D03*
D14*
X181003113Y-104258275D03*
D13*
X182036320Y-98398669D03*
X186578332Y-101433487D03*
%TD*%
D19*
%TO.C,PAD3*%
X224199330Y-128210613D03*
%TD*%
D18*
%TO.C,D28*%
X251364509Y-120450537D03*
X254614375Y-119877499D03*
%TD*%
D19*
%TO.C,PAD13*%
X250576238Y-127558754D03*
%TD*%
D12*
%TO.C,S19*%
X301054498Y-111996813D03*
D13*
X305902424Y-105504501D03*
D14*
X306524368Y-111421906D03*
D12*
X311994238Y-110846999D03*
D13*
X311104996Y-107169807D03*
%TD*%
D25*
%TO.C,D36*%
X226175040Y-150240074D03*
X229141060Y-148793450D03*
%TD*%
D24*
%TO.C,D21*%
X301820725Y-82454886D03*
X305102647Y-82109942D03*
%TD*%
D11*
%TO.C,D10*%
X158295888Y-119877499D03*
X161545754Y-120450537D03*
%TD*%
D13*
%TO.C,S21*%
X302348454Y-71690757D03*
X307551026Y-73356063D03*
D12*
X308440268Y-77033255D03*
D14*
X302970398Y-77608162D03*
D12*
X297500528Y-78183069D03*
%TD*%
D20*
%TO.C,D3*%
X107807617Y-82109944D03*
X111089539Y-82454888D03*
%TD*%
D13*
%TO.C,S6*%
X132221136Y-69941018D03*
D12*
X136604372Y-76755689D03*
X125771486Y-74845559D03*
D13*
X136763148Y-72975836D03*
D14*
X131187929Y-75800624D03*
%TD*%
D26*
%TO.C,B1*%
X209705130Y-126000007D03*
X203205130Y-126000007D03*
%TD*%
D12*
%TO.C,S28*%
X257589739Y-114580356D03*
D13*
X256446154Y-110974151D03*
D14*
X252173296Y-115535421D03*
D12*
X246756853Y-116490486D03*
D13*
X251140089Y-109675815D03*
%TD*%
D12*
%TO.C,S8*%
X151791303Y-94284169D03*
D13*
X147408067Y-87469498D03*
D12*
X140958417Y-92374039D03*
D13*
X151950079Y-90504316D03*
D14*
X146374860Y-93329104D03*
%TD*%
D18*
%TO.C,D31*%
X234050383Y-125915122D03*
X237300249Y-125342084D03*
%TD*%
D24*
%TO.C,D20*%
X303597708Y-99361759D03*
X306879630Y-99016815D03*
%TD*%
D19*
%TO.C,PAD8*%
X173535860Y-91898835D03*
%TD*%
%TO.C,PAD5*%
X221247311Y-111468882D03*
%TD*%
%TO.C,PAD10*%
X293144902Y-82417644D03*
%TD*%
D11*
%TO.C,D4*%
X122842810Y-113626166D03*
X126092676Y-114199204D03*
%TD*%
D12*
%TO.C,S5*%
X122819466Y-91587291D03*
X133652352Y-93497421D03*
D14*
X128235909Y-92542356D03*
D13*
X133811128Y-89717568D03*
X129269116Y-86682750D03*
%TD*%
%TO.C,S10*%
X161770174Y-109675818D03*
D12*
X155320524Y-114580359D03*
D14*
X160736967Y-115535424D03*
D13*
X166312186Y-112710636D03*
D12*
X166153410Y-116490489D03*
%TD*%
%TO.C,S16*%
X156407424Y-134445898D03*
D14*
X150990981Y-133490833D03*
D12*
X145574538Y-132535768D03*
D13*
X152024188Y-127631227D03*
X156566200Y-130666045D03*
%TD*%
D18*
%TO.C,D32*%
X231098364Y-109173392D03*
X234348230Y-108600354D03*
%TD*%
D19*
%TO.C,PAD4*%
X191662947Y-111468881D03*
%TD*%
D11*
%TO.C,D6*%
X128746848Y-80142700D03*
X131996714Y-80715738D03*
%TD*%
D12*
%TO.C,S9*%
X154743323Y-77542437D03*
D13*
X154902099Y-73762584D03*
X150360087Y-70727766D03*
D14*
X149326880Y-76587372D03*
D12*
X143910437Y-75632307D03*
%TD*%
D19*
%TO.C,PAD6*%
X119765361Y-82417643D03*
%TD*%
D27*
%TO.C,D17*%
X166542769Y-142081790D03*
X169681255Y-143101546D03*
%TD*%
D13*
%TO.C,S12*%
X167674212Y-76192353D03*
D12*
X161224562Y-81096894D03*
X172057448Y-83007024D03*
D13*
X172216224Y-79227171D03*
D14*
X166641005Y-82051959D03*
%TD*%
D18*
%TO.C,D33*%
X228146346Y-92431659D03*
X231396212Y-91858621D03*
%TD*%
M02*
