M48
; DRILL file {KiCad (6.0.7-1)-1} date Tuesday, September 13, 2022 at 11:25:24 AM
; FORMAT={-:-/ absolute / inch / decimal}
; #@! TF.CreationDate,2022-09-13T11:25:24-04:00
; #@! TF.GenerationSoftware,Kicad,Pcbnew,(6.0.7-1)-1
; #@! TF.FileFunction,NonPlated,1,2,NPTH
FMAT,2
INCH
; #@! TA.AperFunction,NonPlated,NPTH,ComponentDrill
T1C0.0354
; #@! TA.AperFunction,NonPlated,NPTH,ComponentDrill
T2C0.0670
; #@! TA.AperFunction,NonPlated,NPTH,ComponentDrill
T3C0.1181
; #@! TA.AperFunction,NonPlated,NPTH,ComponentDrill
T4C0.1350
%
G90
G05
T1
X8.0691Y-3.2093
X8.1872Y-3.2093
T2
X3.9731Y-4.3641
X4.043Y-3.6984
X4.113Y-3.0328
X4.4038Y-4.4093
X4.4737Y-3.7437
X4.5437Y-3.0781
X4.7192Y-4.2649
X4.8354Y-3.6058
X4.9516Y-2.9467
X5.1457Y-4.3401
X5.2619Y-3.681
X5.3781Y-3.0219
X5.4333Y-4.2959
X5.5495Y-3.6368
X5.6658Y-2.9776
X5.7313Y-5.2179
X5.8598Y-4.3711
X5.976Y-3.712
X6.0923Y-3.0529
X6.115Y-4.511
X6.1578Y-5.2931
X6.2312Y-3.8519
X6.3474Y-3.1928
X6.4698Y-5.3709
X6.5415Y-4.5862
X6.6577Y-3.9271
X6.7739Y-3.268
X6.7966Y-4.7262
X6.8817Y-5.5048
X6.9129Y-4.0671
X7.0291Y-3.4079
X7.1799Y-5.6253
X7.2231Y-4.8014
X7.3394Y-4.1423
X7.4556Y-3.4831
X7.5691Y-5.8151
X8.6872Y-5.8151
X8.8007Y-3.4831
X8.917Y-4.1423
X9.0332Y-4.8014
X9.0764Y-5.6253
X9.2272Y-3.4079
X9.3434Y-4.0671
X9.3746Y-5.5048
X9.4597Y-4.7262
X9.4824Y-3.268
X9.5986Y-3.9271
X9.7148Y-4.5862
X9.7865Y-5.3709
X9.9089Y-3.1928
X10.0251Y-3.8519
X10.0985Y-5.2931
X10.1413Y-4.511
X10.1641Y-3.0529
X10.2803Y-3.712
X10.3965Y-4.3711
X10.525Y-5.2179
X10.5905Y-2.9776
X10.7068Y-3.6368
X10.823Y-4.2959
X10.8782Y-3.0219
X10.9944Y-3.681
X11.1106Y-4.3401
X11.3047Y-2.9467
X11.4209Y-3.6058
X11.5371Y-4.2649
X11.7126Y-3.0781
X11.7826Y-3.7437
X11.8525Y-4.4093
X12.1433Y-3.0328
X12.2133Y-3.6984
X12.2832Y-4.3641
T3
X4.2129Y-4.1537
X4.2829Y-3.4881
X4.3528Y-2.8225
X4.3996Y-4.2604
X4.4696Y-3.5948
X4.5395Y-2.9292
X4.9731Y-4.0718
X5.0893Y-3.4127
X5.1519Y-4.1913
X5.2056Y-2.7536
X5.2682Y-3.5322
X5.3844Y-2.8731
X5.6872Y-4.1028
X5.8035Y-3.4437
X5.8661Y-4.2223
X5.9197Y-2.7846
X5.9823Y-3.5632
X5.9852Y-5.0249
X6.0985Y-2.904
X6.164Y-5.1443
X6.3689Y-4.3179
X6.4851Y-3.6588
X6.5477Y-4.4374
X6.6013Y-2.9997
X6.6639Y-3.7783
X6.7482Y-5.2151
X6.7802Y-3.1192
X6.9086Y-5.3583
X7.0506Y-4.5331
X7.1668Y-3.874
X7.2294Y-4.6526
X7.283Y-3.2148
X7.3456Y-3.9934
X7.4618Y-3.3343
X7.4772Y-5.5096
X7.6162Y-5.6738
X8.7791Y-5.5096
X8.9733Y-3.2148
X8.994Y-5.5012
X9.0895Y-3.874
X9.1822Y-3.266
X9.2057Y-4.5331
X9.2984Y-3.9251
X9.4146Y-4.5842
X9.5082Y-5.2151
X9.655Y-2.9997
X9.7221Y-5.2366
X9.7712Y-3.6588
X9.8639Y-3.0508
X9.8874Y-4.3179
X9.9801Y-3.7099
X10.0963Y-4.3691
X10.2711Y-5.0249
X10.3366Y-2.7846
X10.4528Y-3.4437
X10.48Y-5.076
X10.5455Y-2.8357
X10.5691Y-4.1028
X10.6617Y-3.4948
X10.778Y-4.1539
X11.0508Y-2.7536
X11.167Y-3.4127
X11.2597Y-2.8047
X11.2832Y-4.0718
X11.3759Y-3.4638
X11.4921Y-4.1229
X11.9035Y-2.8225
X11.9734Y-3.4881
X12.0434Y-4.1537
X12.1083Y-2.888
X12.1783Y-3.5537
X12.2482Y-4.2193
T4
X4.1884Y-4.3867
X4.2584Y-3.7211
X4.3283Y-3.0554
X4.9324Y-4.3025
X5.0487Y-3.6434
X5.1649Y-2.9843
X5.6466Y-4.3335
X5.7628Y-3.6744
X5.879Y-3.0153
X5.9445Y-5.2555
X6.3282Y-4.5486
X6.4444Y-3.8895
X6.5607Y-3.2304
X6.6758Y-5.4379
X7.0099Y-4.7638
X7.1261Y-4.1047
X7.2423Y-3.4455
X7.3745Y-5.7202
X8.8818Y-5.7202
X9.014Y-3.4455
X9.1302Y-4.1047
X9.2464Y-4.7638
X9.5805Y-5.4379
X9.6956Y-3.2304
X9.8119Y-3.8895
X9.9281Y-4.5486
X10.3118Y-5.2555
X10.3773Y-3.0153
X10.4935Y-3.6744
X10.6097Y-4.3335
X11.0914Y-2.9843
X11.2077Y-3.6434
X11.3239Y-4.3025
X11.928Y-3.0554
X11.9979Y-3.7211
X12.0679Y-4.3867
T0
M30
