M48
; DRILL file {KiCad (6.0.7-1)-1} date Tuesday, September 13, 2022 at 08:48:34 PM
; FORMAT={-:-/ absolute / inch / decimal}
; #@! TF.CreationDate,2022-09-13T20:48:34-04:00
; #@! TF.GenerationSoftware,Kicad,Pcbnew,(6.0.7-1)-1
; #@! TF.FileFunction,Plated,1,2,PTH
FMAT,2
INCH
; #@! TA.AperFunction,Plated,PTH,ComponentDrill
T1C0.0118
; #@! TA.AperFunction,Plated,PTH,ViaDrill
T2C0.0157
; #@! TA.AperFunction,Plated,PTH,ComponentDrill
T3C0.0295
; #@! TA.AperFunction,Plated,PTH,ComponentDrill
T4C0.0430
; #@! TA.AperFunction,Plated,PTH,ComponentDrill
T5C0.0512
; #@! TA.AperFunction,Plated,PTH,ComponentDrill
T6C0.0866
%
G90
G05
T1
X4.0628Y-4.6031
X4.0762Y-4.2205
X4.1462Y-3.5549
X4.2027Y-3.2718
X4.2162Y-2.8893
X4.5188Y-4.3601
X4.5888Y-3.6944
X4.6587Y-3.0288
X4.792Y-4.5096
X4.8321Y-4.1289
X4.9082Y-3.8505
X4.9483Y-3.4698
X5.0244Y-3.1914
X5.0646Y-2.8107
X5.2639Y-4.299
X5.3801Y-3.6399
X5.4963Y-2.9808
X5.5061Y-4.5406
X5.5463Y-4.1599
X5.6223Y-3.8815
X5.6625Y-3.5008
X5.7386Y-3.2224
X5.7787Y-2.8417
X5.8041Y-5.4626
X5.8442Y-5.0819
X5.978Y-4.33
X6.0942Y-3.6709
X6.1878Y-4.7557
X6.2104Y-3.0117
X6.2279Y-4.375
X6.276Y-5.252
X6.304Y-4.0966
X6.3441Y-3.7159
X6.4202Y-3.4375
X6.4604Y-3.0568
X6.5078Y-5.6234
X6.6006Y-5.252
X6.6597Y-4.5451
X6.7759Y-3.886
X6.8694Y-4.9709
X6.8921Y-3.2269
X6.9096Y-4.5902
X6.9856Y-4.3118
X7.0045Y-5.4805
X7.0258Y-3.9311
X7.1019Y-3.6526
X7.142Y-3.2719
X7.1824Y-5.8805
X7.3413Y-4.7603
X7.4575Y-4.1011
X7.5738Y-3.442
X7.6941Y-5.8081
X8.8603Y-3.3167
X8.8899Y-5.9703
X8.9528Y-3.6882
X8.9766Y-3.9758
X9.069Y-4.3473
X9.0928Y-4.635
X9.1479Y-5.5225
X9.1702Y-4.9211
X9.307Y-5.2744
X9.3242Y-3.3289
X9.4404Y-3.988
X9.542Y-3.1016
X9.5538Y-5.6867
X9.5567Y-4.6471
X9.6345Y-3.473
X9.6582Y-3.7607
X9.7507Y-4.1322
X9.7744Y-4.4198
X9.8669Y-4.7913
X9.8715Y-5.2792
X10.0059Y-3.1137
X10.1221Y-3.7728
X10.1581Y-5.1267
X10.2237Y-2.8864
X10.2383Y-4.432
X10.2506Y-5.4982
X10.3161Y-3.2579
X10.3399Y-3.5456
X10.4324Y-3.917
X10.4561Y-4.2047
X10.5486Y-4.5761
X10.622Y-5.1389
X10.6875Y-2.8986
X10.8038Y-3.5577
X10.92Y-4.2168
X10.9378Y-2.8555
X11.0303Y-3.2269
X11.054Y-3.5146
X11.1465Y-3.8861
X11.1702Y-4.1737
X11.2627Y-4.5452
X11.4017Y-2.8676
X11.5179Y-3.5267
X11.6341Y-4.1859
X11.7837Y-2.9162
X11.8536Y-3.5818
X11.9236Y-4.2475
X11.99Y-4.6245
X12.2456Y-2.9607
X12.3156Y-3.6263
X12.3855Y-4.2919
T2
X4.7254Y-3.7362
X6.2136Y-3.4685
X6.3425Y-3.3415
X7.3612Y-5.1979
X8.1014Y-3.3652
X8.1024Y-4.4685
X8.6644Y-5.2658
X8.7106Y-3.7687
X11.8349Y-3.1309
X11.889Y-3.6453
X11.8937Y-4.5748
X12.1348Y-3.8711
T3
X7.7738Y-4.6444
X7.7738Y-4.7231
T4
X7.8282Y-3.368
X7.8282Y-3.468
X7.8282Y-3.568
X7.8282Y-3.668
X7.8282Y-3.768
X7.8282Y-3.868
X7.8282Y-3.968
X7.8282Y-4.068
X7.8282Y-4.168
X7.8282Y-4.268
X7.8282Y-4.368
X7.8282Y-4.468
X8.4282Y-3.368
X8.4282Y-3.468
X8.4282Y-3.568
X8.4282Y-3.668
X8.4282Y-3.768
X8.4282Y-3.868
X8.4282Y-3.968
X8.4282Y-4.068
X8.4282Y-4.168
X8.4282Y-4.268
X8.4282Y-4.368
X8.4282Y-4.468
T5
X8.0002Y-4.9606
X8.2561Y-4.9606
T6
X4.6222Y-3.908
X4.7152Y-3.2448
X6.3911Y-5.022
X6.8321Y-3.6181
X7.4296Y-5.0477
X7.5458Y-4.3885
X8.7105Y-4.3885
X8.8267Y-5.0477
X9.4242Y-3.6181
X9.8652Y-5.022
X11.5411Y-3.2448
X11.6341Y-3.908
T0
M30
