%TF.GenerationSoftware,KiCad,Pcbnew,(6.0.7-1)-1*%
%TF.CreationDate,2022-09-13T11:26:26-04:00*%
%TF.ProjectId,egret,65677265-742e-46b6-9963-61645f706362,v1.0.0*%
%TF.SameCoordinates,Original*%
%TF.FileFunction,Legend,Bot*%
%TF.FilePolarity,Positive*%
%FSLAX46Y46*%
G04 Gerber Fmt 4.6, Leading zero omitted, Abs format (unit mm)*
G04 Created by KiCad (PCBNEW (6.0.7-1)-1) date 2022-09-13 11:26:26*
%MOMM*%
%LPD*%
G01*
G04 APERTURE LIST*
%ADD10C,0.200000*%
%ADD11C,0.150000*%
%ADD12R,1.752600X1.752600*%
%ADD13C,1.752600*%
G04 APERTURE END LIST*
D10*
%TO.C,LED11*%
X264845238Y-82552380D02*
X265321428Y-82552380D01*
X265321428Y-81552380D01*
X264511904Y-82028571D02*
X264178571Y-82028571D01*
X264035714Y-82552380D02*
X264511904Y-82552380D01*
X264511904Y-81552380D01*
X264035714Y-81552380D01*
X263607142Y-82552380D02*
X263607142Y-81552380D01*
X263369047Y-81552380D01*
X263226190Y-81600000D01*
X263130952Y-81695238D01*
X263083333Y-81790476D01*
X263035714Y-81980952D01*
X263035714Y-82123809D01*
X263083333Y-82314285D01*
X263130952Y-82409523D01*
X263226190Y-82504761D01*
X263369047Y-82552380D01*
X263607142Y-82552380D01*
X262083333Y-82552380D02*
X262654761Y-82552380D01*
X262369047Y-82552380D02*
X262369047Y-81552380D01*
X262464285Y-81695238D01*
X262559523Y-81790476D01*
X262654761Y-81838095D01*
X261130952Y-82552380D02*
X261702380Y-82552380D01*
X261416666Y-82552380D02*
X261416666Y-81552380D01*
X261511904Y-81695238D01*
X261607142Y-81790476D01*
X261702380Y-81838095D01*
%TO.C,LED2*%
X108769047Y-82877380D02*
X109245238Y-82877380D01*
X109245238Y-81877380D01*
X108435714Y-82353571D02*
X108102380Y-82353571D01*
X107959523Y-82877380D02*
X108435714Y-82877380D01*
X108435714Y-81877380D01*
X107959523Y-81877380D01*
X107530952Y-82877380D02*
X107530952Y-81877380D01*
X107292857Y-81877380D01*
X107150000Y-81925000D01*
X107054761Y-82020238D01*
X107007142Y-82115476D01*
X106959523Y-82305952D01*
X106959523Y-82448809D01*
X107007142Y-82639285D01*
X107054761Y-82734523D01*
X107150000Y-82829761D01*
X107292857Y-82877380D01*
X107530952Y-82877380D01*
X106578571Y-81972619D02*
X106530952Y-81925000D01*
X106435714Y-81877380D01*
X106197619Y-81877380D01*
X106102380Y-81925000D01*
X106054761Y-81972619D01*
X106007142Y-82067857D01*
X106007142Y-82163095D01*
X106054761Y-82305952D01*
X106626190Y-82877380D01*
X106007142Y-82877380D01*
%TO.C,LED4*%
X144819047Y-117902379D02*
X145295238Y-117902379D01*
X145295238Y-116902379D01*
X144485714Y-117378570D02*
X144152380Y-117378570D01*
X144009523Y-117902379D02*
X144485714Y-117902379D01*
X144485714Y-116902379D01*
X144009523Y-116902379D01*
X143580952Y-117902379D02*
X143580952Y-116902379D01*
X143342857Y-116902379D01*
X143200000Y-116949999D01*
X143104761Y-117045237D01*
X143057142Y-117140475D01*
X143009523Y-117330951D01*
X143009523Y-117473808D01*
X143057142Y-117664284D01*
X143104761Y-117759522D01*
X143200000Y-117854760D01*
X143342857Y-117902379D01*
X143580952Y-117902379D01*
X142152380Y-117235713D02*
X142152380Y-117902379D01*
X142390476Y-116854760D02*
X142628571Y-117569046D01*
X142009523Y-117569046D01*
%TO.C,LED6*%
X207574178Y-139044809D02*
X208050369Y-139044809D01*
X208050369Y-138044809D01*
X207240845Y-138521000D02*
X206907511Y-138521000D01*
X206764654Y-139044809D02*
X207240845Y-139044809D01*
X207240845Y-138044809D01*
X206764654Y-138044809D01*
X206336083Y-139044809D02*
X206336083Y-138044809D01*
X206097988Y-138044809D01*
X205955131Y-138092429D01*
X205859892Y-138187667D01*
X205812273Y-138282905D01*
X205764654Y-138473381D01*
X205764654Y-138616238D01*
X205812273Y-138806714D01*
X205859892Y-138901952D01*
X205955131Y-138997190D01*
X206097988Y-139044809D01*
X206336083Y-139044809D01*
X204907511Y-138044809D02*
X205097988Y-138044809D01*
X205193226Y-138092429D01*
X205240845Y-138140048D01*
X205336083Y-138282905D01*
X205383702Y-138473381D01*
X205383702Y-138854333D01*
X205336083Y-138949571D01*
X205288464Y-138997190D01*
X205193226Y-139044809D01*
X205002750Y-139044809D01*
X204907511Y-138997190D01*
X204859892Y-138949571D01*
X204812273Y-138854333D01*
X204812273Y-138616238D01*
X204859892Y-138521000D01*
X204907511Y-138473381D01*
X205002750Y-138425762D01*
X205193226Y-138425762D01*
X205288464Y-138473381D01*
X205336083Y-138521000D01*
X205383702Y-138616238D01*
%TO.C,LED5*%
X176919047Y-130427380D02*
X177395238Y-130427380D01*
X177395238Y-129427380D01*
X176585714Y-129903571D02*
X176252380Y-129903571D01*
X176109523Y-130427380D02*
X176585714Y-130427380D01*
X176585714Y-129427380D01*
X176109523Y-129427380D01*
X175680952Y-130427380D02*
X175680952Y-129427380D01*
X175442857Y-129427380D01*
X175300000Y-129475000D01*
X175204761Y-129570238D01*
X175157142Y-129665476D01*
X175109523Y-129855952D01*
X175109523Y-129998809D01*
X175157142Y-130189285D01*
X175204761Y-130284523D01*
X175300000Y-130379761D01*
X175442857Y-130427380D01*
X175680952Y-130427380D01*
X174204761Y-129427380D02*
X174680952Y-129427380D01*
X174728571Y-129903571D01*
X174680952Y-129855952D01*
X174585714Y-129808333D01*
X174347619Y-129808333D01*
X174252380Y-129855952D01*
X174204761Y-129903571D01*
X174157142Y-129998809D01*
X174157142Y-130236904D01*
X174204761Y-130332142D01*
X174252380Y-130379761D01*
X174347619Y-130427380D01*
X174585714Y-130427380D01*
X174680952Y-130379761D01*
X174728571Y-130332142D01*
%TO.C,LED3*%
X106169047Y-100327380D02*
X106645238Y-100327380D01*
X106645238Y-99327380D01*
X105835714Y-99803571D02*
X105502380Y-99803571D01*
X105359523Y-100327380D02*
X105835714Y-100327380D01*
X105835714Y-99327380D01*
X105359523Y-99327380D01*
X104930952Y-100327380D02*
X104930952Y-99327380D01*
X104692857Y-99327380D01*
X104550000Y-99375000D01*
X104454761Y-99470238D01*
X104407142Y-99565476D01*
X104359523Y-99755952D01*
X104359523Y-99898809D01*
X104407142Y-100089285D01*
X104454761Y-100184523D01*
X104550000Y-100279761D01*
X104692857Y-100327380D01*
X104930952Y-100327380D01*
X104026190Y-99327380D02*
X103407142Y-99327380D01*
X103740476Y-99708333D01*
X103597619Y-99708333D01*
X103502380Y-99755952D01*
X103454761Y-99803571D01*
X103407142Y-99898809D01*
X103407142Y-100136904D01*
X103454761Y-100232142D01*
X103502380Y-100279761D01*
X103597619Y-100327380D01*
X103883333Y-100327380D01*
X103978571Y-100279761D01*
X104026190Y-100232142D01*
%TO.C,LED1*%
X151044047Y-82452380D02*
X151520238Y-82452380D01*
X151520238Y-81452380D01*
X150710714Y-81928571D02*
X150377380Y-81928571D01*
X150234523Y-82452380D02*
X150710714Y-82452380D01*
X150710714Y-81452380D01*
X150234523Y-81452380D01*
X149805952Y-82452380D02*
X149805952Y-81452380D01*
X149567857Y-81452380D01*
X149425000Y-81500000D01*
X149329761Y-81595238D01*
X149282142Y-81690476D01*
X149234523Y-81880952D01*
X149234523Y-82023809D01*
X149282142Y-82214285D01*
X149329761Y-82309523D01*
X149425000Y-82404761D01*
X149567857Y-82452380D01*
X149805952Y-82452380D01*
X148282142Y-82452380D02*
X148853571Y-82452380D01*
X148567857Y-82452380D02*
X148567857Y-81452380D01*
X148663095Y-81595238D01*
X148758333Y-81690476D01*
X148853571Y-81738095D01*
%TO.C,LED7*%
X237894047Y-130552380D02*
X238370238Y-130552380D01*
X238370238Y-129552380D01*
X237560714Y-130028571D02*
X237227380Y-130028571D01*
X237084523Y-130552380D02*
X237560714Y-130552380D01*
X237560714Y-129552380D01*
X237084523Y-129552380D01*
X236655952Y-130552380D02*
X236655952Y-129552380D01*
X236417857Y-129552380D01*
X236275000Y-129600000D01*
X236179761Y-129695238D01*
X236132142Y-129790476D01*
X236084523Y-129980952D01*
X236084523Y-130123809D01*
X236132142Y-130314285D01*
X236179761Y-130409523D01*
X236275000Y-130504761D01*
X236417857Y-130552380D01*
X236655952Y-130552380D01*
X235751190Y-129552380D02*
X235084523Y-129552380D01*
X235513095Y-130552380D01*
%TO.C,LED9*%
X308844047Y-100402380D02*
X309320238Y-100402380D01*
X309320238Y-99402380D01*
X308510714Y-99878571D02*
X308177380Y-99878571D01*
X308034523Y-100402380D02*
X308510714Y-100402380D01*
X308510714Y-99402380D01*
X308034523Y-99402380D01*
X307605952Y-100402380D02*
X307605952Y-99402380D01*
X307367857Y-99402380D01*
X307225000Y-99450000D01*
X307129761Y-99545238D01*
X307082142Y-99640476D01*
X307034523Y-99830952D01*
X307034523Y-99973809D01*
X307082142Y-100164285D01*
X307129761Y-100259523D01*
X307225000Y-100354761D01*
X307367857Y-100402380D01*
X307605952Y-100402380D01*
X306558333Y-100402380D02*
X306367857Y-100402380D01*
X306272619Y-100354761D01*
X306225000Y-100307142D01*
X306129761Y-100164285D01*
X306082142Y-99973809D01*
X306082142Y-99592857D01*
X306129761Y-99497619D01*
X306177380Y-99450000D01*
X306272619Y-99402380D01*
X306463095Y-99402380D01*
X306558333Y-99450000D01*
X306605952Y-99497619D01*
X306653571Y-99592857D01*
X306653571Y-99830952D01*
X306605952Y-99926190D01*
X306558333Y-99973809D01*
X306463095Y-100021428D01*
X306272619Y-100021428D01*
X306177380Y-99973809D01*
X306129761Y-99926190D01*
X306082142Y-99830952D01*
%TO.C,LED8*%
X270294047Y-118127380D02*
X270770238Y-118127380D01*
X270770238Y-117127380D01*
X269960714Y-117603571D02*
X269627380Y-117603571D01*
X269484523Y-118127380D02*
X269960714Y-118127380D01*
X269960714Y-117127380D01*
X269484523Y-117127380D01*
X269055952Y-118127380D02*
X269055952Y-117127380D01*
X268817857Y-117127380D01*
X268675000Y-117175000D01*
X268579761Y-117270238D01*
X268532142Y-117365476D01*
X268484523Y-117555952D01*
X268484523Y-117698809D01*
X268532142Y-117889285D01*
X268579761Y-117984523D01*
X268675000Y-118079761D01*
X268817857Y-118127380D01*
X269055952Y-118127380D01*
X267913095Y-117555952D02*
X268008333Y-117508333D01*
X268055952Y-117460714D01*
X268103571Y-117365476D01*
X268103571Y-117317857D01*
X268055952Y-117222619D01*
X268008333Y-117175000D01*
X267913095Y-117127380D01*
X267722619Y-117127380D01*
X267627380Y-117175000D01*
X267579761Y-117222619D01*
X267532142Y-117317857D01*
X267532142Y-117365476D01*
X267579761Y-117460714D01*
X267627380Y-117508333D01*
X267722619Y-117555952D01*
X267913095Y-117555952D01*
X268008333Y-117603571D01*
X268055952Y-117651190D01*
X268103571Y-117746428D01*
X268103571Y-117936904D01*
X268055952Y-118032142D01*
X268008333Y-118079761D01*
X267913095Y-118127380D01*
X267722619Y-118127380D01*
X267627380Y-118079761D01*
X267579761Y-118032142D01*
X267532142Y-117936904D01*
X267532142Y-117746428D01*
X267579761Y-117651190D01*
X267627380Y-117603571D01*
X267722619Y-117555952D01*
%TO.C,LED10*%
X307345238Y-82902380D02*
X307821428Y-82902380D01*
X307821428Y-81902380D01*
X307011904Y-82378571D02*
X306678571Y-82378571D01*
X306535714Y-82902380D02*
X307011904Y-82902380D01*
X307011904Y-81902380D01*
X306535714Y-81902380D01*
X306107142Y-82902380D02*
X306107142Y-81902380D01*
X305869047Y-81902380D01*
X305726190Y-81950000D01*
X305630952Y-82045238D01*
X305583333Y-82140476D01*
X305535714Y-82330952D01*
X305535714Y-82473809D01*
X305583333Y-82664285D01*
X305630952Y-82759523D01*
X305726190Y-82854761D01*
X305869047Y-82902380D01*
X306107142Y-82902380D01*
X304583333Y-82902380D02*
X305154761Y-82902380D01*
X304869047Y-82902380D02*
X304869047Y-81902380D01*
X304964285Y-82045238D01*
X305059523Y-82140476D01*
X305154761Y-82188095D01*
X303964285Y-81902380D02*
X303869047Y-81902380D01*
X303773809Y-81950000D01*
X303726190Y-81997619D01*
X303678571Y-82092857D01*
X303630952Y-82283333D01*
X303630952Y-82521428D01*
X303678571Y-82711904D01*
X303726190Y-82807142D01*
X303773809Y-82854761D01*
X303869047Y-82902380D01*
X303964285Y-82902380D01*
X304059523Y-82854761D01*
X304107142Y-82807142D01*
X304154761Y-82711904D01*
X304202380Y-82521428D01*
X304202380Y-82283333D01*
X304154761Y-82092857D01*
X304107142Y-81997619D01*
X304059523Y-81950000D01*
X303964285Y-81902380D01*
D11*
%TO.C,T1*%
X203155131Y-83016544D02*
X209755131Y-83016544D01*
X206455131Y-80166544D02*
X209755131Y-80166544D01*
X208405131Y-80166544D02*
X204505131Y-80166544D01*
X203155131Y-80166544D02*
X203155131Y-83016544D01*
X206455131Y-80166544D02*
X203155131Y-80166544D01*
X209755131Y-83016544D02*
X209755131Y-80166544D01*
%TO.C,S33*%
X229761304Y-80571038D02*
X229587656Y-79586230D01*
X226256193Y-83727650D02*
X226835421Y-84133230D01*
X226835421Y-84133230D02*
X229297440Y-83699109D01*
X234772167Y-80195201D02*
X230340532Y-80976617D01*
X231035124Y-84915848D02*
X231156678Y-85605214D01*
X229008428Y-79180650D02*
X229587656Y-79586230D01*
X231156678Y-85605214D02*
X235588313Y-84823797D01*
X234876355Y-80786085D02*
X234772167Y-80195201D01*
X235588313Y-84823797D02*
X235501489Y-84331393D01*
X226054004Y-79701595D02*
X229008428Y-79180650D01*
X225648425Y-80280823D02*
X226054004Y-79701595D01*
X229761305Y-80571038D02*
G75*
G03*
X230340532Y-80976617I492403J86824D01*
G01*
X231035124Y-84915848D02*
G75*
G03*
X229297440Y-83699109I-1477211J-260473D01*
G01*
%TO.C,S24*%
X283923882Y-73889295D02*
X288355517Y-73107878D01*
X279602625Y-72417311D02*
X282064644Y-71983190D01*
X288355517Y-73107878D02*
X288268693Y-72615474D01*
X283802328Y-73199929D02*
X283923882Y-73889295D01*
X287539371Y-68479282D02*
X283107736Y-69260698D01*
X278415629Y-68564904D02*
X278821208Y-67985676D01*
X281775632Y-67464731D02*
X282354860Y-67870311D01*
X287643559Y-69070166D02*
X287539371Y-68479282D01*
X282528508Y-68855119D02*
X282354860Y-67870311D01*
X278821208Y-67985676D02*
X281775632Y-67464731D01*
X279023397Y-72011731D02*
X279602625Y-72417311D01*
X282528509Y-68855119D02*
G75*
G03*
X283107736Y-69260698I492403J86824D01*
G01*
X283802328Y-73199929D02*
G75*
G03*
X282064644Y-71983190I-1477211J-260473D01*
G01*
%TO.C,S7*%
X146555901Y-103819921D02*
X146729549Y-102835114D01*
X146323970Y-102255886D02*
X146729549Y-102835114D01*
X146266888Y-108338380D02*
X146145335Y-109027746D01*
X146145335Y-109027746D02*
X150576970Y-109809163D01*
X142182550Y-105587348D02*
X142588130Y-106166576D01*
X150576970Y-109809163D02*
X150663794Y-109316759D01*
X142588130Y-106166576D02*
X145050149Y-106600696D01*
X151288927Y-105771451D02*
X151393116Y-105180566D01*
X143369546Y-101734941D02*
X146323970Y-102255886D01*
X151393116Y-105180566D02*
X146961481Y-104399149D01*
X142790318Y-102140521D02*
X143369546Y-101734941D01*
X146555901Y-103819921D02*
G75*
G03*
X146961481Y-104399149I492404J-86824D01*
G01*
X146266889Y-108338380D02*
G75*
G03*
X145050149Y-106600696I-1477212J260472D01*
G01*
%TO.C,S30*%
X246322555Y-73716062D02*
X246901783Y-74121642D01*
X248349251Y-79451260D02*
X248470805Y-80140626D01*
X247075431Y-75106450D02*
X246901783Y-74121642D01*
X252086294Y-74730613D02*
X247654659Y-75512029D01*
X243570320Y-78263062D02*
X244149548Y-78668642D01*
X243368131Y-74237007D02*
X246322555Y-73716062D01*
X248470805Y-80140626D02*
X252902440Y-79359209D01*
X252190482Y-75321497D02*
X252086294Y-74730613D01*
X244149548Y-78668642D02*
X246611567Y-78234521D01*
X252902440Y-79359209D02*
X252815616Y-78866805D01*
X242962552Y-74816235D02*
X243368131Y-74237007D01*
X247075432Y-75106450D02*
G75*
G03*
X247654659Y-75512029I492403J86824D01*
G01*
X248349251Y-79451260D02*
G75*
G03*
X246611567Y-78234521I-1477211J-260473D01*
G01*
%TO.C,S25*%
X266586292Y-102255884D02*
X269540716Y-101734939D01*
X267367709Y-106687519D02*
X269829728Y-106253398D01*
X275304455Y-102749490D02*
X270872820Y-103530906D01*
X266180713Y-102835112D02*
X266586292Y-102255884D01*
X276120601Y-107378086D02*
X276033777Y-106885682D01*
X271567412Y-107470137D02*
X271688966Y-108159503D01*
X271688966Y-108159503D02*
X276120601Y-107378086D01*
X269540716Y-101734939D02*
X270119944Y-102140519D01*
X266788481Y-106281939D02*
X267367709Y-106687519D01*
X270293592Y-103125327D02*
X270119944Y-102140519D01*
X275408643Y-103340374D02*
X275304455Y-102749490D01*
X271567412Y-107470137D02*
G75*
G03*
X269829728Y-106253398I-1477211J-260473D01*
G01*
X270293593Y-103125327D02*
G75*
G03*
X270872820Y-103530906I492403J86824D01*
G01*
%TO.C,S36*%
X224458204Y-138393766D02*
X224019833Y-137494972D01*
X220654869Y-138579874D02*
X223351251Y-137264760D01*
X229434383Y-137190583D02*
X229171360Y-136651307D01*
X226880272Y-142219153D02*
X227187131Y-142848309D01*
X223351251Y-137264760D02*
X224019833Y-137494972D01*
X227187131Y-142848309D02*
X231231705Y-140875639D01*
X220424657Y-139248456D02*
X220654869Y-138579874D01*
X221958956Y-142394235D02*
X222627539Y-142624447D01*
X231231705Y-140875639D02*
X231012519Y-140426242D01*
X222627539Y-142624447D02*
X224874524Y-141528519D01*
X229171360Y-136651307D02*
X225126787Y-138623977D01*
X224458204Y-138393766D02*
G75*
G03*
X225126787Y-138623977I449397J219186D01*
G01*
X226880272Y-142219153D02*
G75*
G03*
X224874524Y-141528519I-1348191J-657557D01*
G01*
%TO.C,S29*%
X249274573Y-90457794D02*
X249853801Y-90863374D01*
X255142500Y-92063229D02*
X255038312Y-91472345D01*
X251301269Y-96192992D02*
X251422823Y-96882358D01*
X251422823Y-96882358D02*
X255854458Y-96100941D01*
X250027449Y-91848182D02*
X249853801Y-90863374D01*
X255854458Y-96100941D02*
X255767634Y-95608537D01*
X255038312Y-91472345D02*
X250606677Y-92253761D01*
X247101566Y-95410374D02*
X249563585Y-94976253D01*
X246522338Y-95004794D02*
X247101566Y-95410374D01*
X246320149Y-90978739D02*
X249274573Y-90457794D01*
X245914570Y-91557967D02*
X246320149Y-90978739D01*
X251301269Y-96192992D02*
G75*
G03*
X249563585Y-94976253I-1477211J-260473D01*
G01*
X250027450Y-91848182D02*
G75*
G03*
X250606677Y-92253761I492403J86824D01*
G01*
%TO.C,S17*%
X178137694Y-134388273D02*
X173857940Y-132997696D01*
X172621872Y-136801922D02*
X172405560Y-137467662D01*
X173536920Y-132367659D02*
X173845937Y-131416603D01*
X170671748Y-129859515D02*
X173524917Y-130786566D01*
X170041711Y-130180535D02*
X170671748Y-129859515D01*
X177952284Y-134958906D02*
X178137694Y-134388273D01*
X168960151Y-133509233D02*
X169281171Y-134139269D01*
X176685314Y-138858238D02*
X176839823Y-138382710D01*
X169281171Y-134139269D02*
X171658812Y-134911812D01*
X173524917Y-130786566D02*
X173845937Y-131416603D01*
X172405560Y-137467662D02*
X176685314Y-138858238D01*
X173536920Y-132367659D02*
G75*
G03*
X173857940Y-132997696I475528J-154509D01*
G01*
X172621872Y-136801922D02*
G75*
G03*
X171658812Y-134911812I-1426585J463525D01*
G01*
%TO.C,S18*%
X189559012Y-137264760D02*
X192255394Y-138579874D01*
X190523962Y-144411009D02*
X190217102Y-145040165D01*
X187586342Y-141309333D02*
X189833327Y-142405261D01*
X192047235Y-140147250D02*
X192485606Y-139248456D01*
X194261675Y-147012835D02*
X194480861Y-146563438D01*
X196322019Y-142788503D02*
X192277446Y-140815833D01*
X187356131Y-140640751D02*
X187586342Y-141309333D01*
X196058997Y-143327779D02*
X196322019Y-142788503D01*
X192255394Y-138579874D02*
X192485606Y-139248456D01*
X190217102Y-145040165D02*
X194261675Y-147012835D01*
X188890430Y-137494972D02*
X189559012Y-137264760D01*
X190523962Y-144411009D02*
G75*
G03*
X189833327Y-142405261I-1348191J657557D01*
G01*
X192047235Y-140147250D02*
G75*
G03*
X192277446Y-140815833I449397J-219186D01*
G01*
%TO.C,S2*%
X110511794Y-86516747D02*
X110956791Y-87066272D01*
X115709891Y-89677411D02*
X115772608Y-89080697D01*
X115772608Y-89080697D02*
X111297259Y-88610319D01*
X110879145Y-92588407D02*
X110805975Y-93284572D01*
X107057850Y-90678510D02*
X109544155Y-90939831D01*
X106978703Y-86648158D02*
X107528229Y-86203162D01*
X115281324Y-93754950D02*
X115333588Y-93257689D01*
X106612854Y-90128985D02*
X107057850Y-90678510D01*
X110852262Y-88060794D02*
X110956791Y-87066272D01*
X107528229Y-86203162D02*
X110511794Y-86516747D01*
X110805975Y-93284572D02*
X115281324Y-93754950D01*
X110852262Y-88060794D02*
G75*
G03*
X111297259Y-88610319I497261J-52264D01*
G01*
X110879146Y-92588407D02*
G75*
G03*
X109544155Y-90939831I-1491783J156793D01*
G01*
%TO.C,S23*%
X290491390Y-85221011D02*
X286059755Y-86002427D01*
X282554644Y-89159040D02*
X285016663Y-88724919D01*
X291307536Y-89849607D02*
X291220712Y-89357203D01*
X286875901Y-90631024D02*
X291307536Y-89849607D01*
X281773227Y-84727405D02*
X284727651Y-84206460D01*
X281367648Y-85306633D02*
X281773227Y-84727405D01*
X290595578Y-85811895D02*
X290491390Y-85221011D01*
X285480527Y-85596848D02*
X285306879Y-84612040D01*
X281975416Y-88753460D02*
X282554644Y-89159040D01*
X286754347Y-89941658D02*
X286875901Y-90631024D01*
X284727651Y-84206460D02*
X285306879Y-84612040D01*
X286754347Y-89941658D02*
G75*
G03*
X285016663Y-88724919I-1477211J-260473D01*
G01*
X285480528Y-85596848D02*
G75*
G03*
X286059755Y-86002427I492403J86824D01*
G01*
%TO.C,S22*%
X287679672Y-100948191D02*
X288258900Y-101353771D01*
X284725248Y-101469136D02*
X287679672Y-100948191D01*
X294259557Y-106591338D02*
X294172733Y-106098934D01*
X289706368Y-106683389D02*
X289827922Y-107372755D01*
X293443411Y-101962742D02*
X289011776Y-102744158D01*
X288432548Y-102338579D02*
X288258900Y-101353771D01*
X293547599Y-102553626D02*
X293443411Y-101962742D01*
X289827922Y-107372755D02*
X294259557Y-106591338D01*
X284927437Y-105495191D02*
X285506665Y-105900771D01*
X284319669Y-102048364D02*
X284725248Y-101469136D01*
X285506665Y-105900771D02*
X287968684Y-105466650D01*
X288432549Y-102338579D02*
G75*
G03*
X289011776Y-102744158I492403J86824D01*
G01*
X289706368Y-106683389D02*
G75*
G03*
X287968684Y-105466650I-1477211J-260473D01*
G01*
%TO.C,S1*%
X109075278Y-104967666D02*
X109179807Y-103973144D01*
X105280866Y-107585382D02*
X107767171Y-107846703D01*
X109102161Y-109495279D02*
X109028991Y-110191444D01*
X104835870Y-107035857D02*
X105280866Y-107585382D01*
X113995624Y-105987569D02*
X109520275Y-105517191D01*
X108734810Y-103423619D02*
X109179807Y-103973144D01*
X105201719Y-103555030D02*
X105751245Y-103110034D01*
X113932907Y-106584283D02*
X113995624Y-105987569D01*
X113504340Y-110661822D02*
X113556604Y-110164561D01*
X105751245Y-103110034D02*
X108734810Y-103423619D01*
X109028991Y-110191444D02*
X113504340Y-110661822D01*
X109102162Y-109495279D02*
G75*
G03*
X107767171Y-107846703I-1491783J156793D01*
G01*
X109075278Y-104967666D02*
G75*
G03*
X109520275Y-105517191I497261J-52264D01*
G01*
%TO.C,S34*%
X259220344Y-129701937D02*
X259799572Y-130107517D01*
X259799572Y-130107517D02*
X262261591Y-129673396D01*
X261972579Y-125154937D02*
X262551807Y-125560517D01*
X267840506Y-126760372D02*
X267736318Y-126169488D01*
X268552464Y-130798084D02*
X268465640Y-130305680D01*
X259018155Y-125675882D02*
X261972579Y-125154937D01*
X263999275Y-130890135D02*
X264120829Y-131579501D01*
X264120829Y-131579501D02*
X268552464Y-130798084D01*
X262725455Y-126545325D02*
X262551807Y-125560517D01*
X258612576Y-126255110D02*
X259018155Y-125675882D01*
X267736318Y-126169488D02*
X263304683Y-126950904D01*
X262725456Y-126545325D02*
G75*
G03*
X263304683Y-126950904I492403J86824D01*
G01*
X263999275Y-130890135D02*
G75*
G03*
X262261591Y-129673396I-1477211J-260473D01*
G01*
%TO.C,S15*%
X186799177Y-85784088D02*
X186677624Y-86473454D01*
X186856259Y-79701594D02*
X187261838Y-80280822D01*
X187088190Y-81265629D02*
X187261838Y-80280822D01*
X183901835Y-79180649D02*
X186856259Y-79701594D01*
X182714839Y-83033056D02*
X183120419Y-83612284D01*
X191821216Y-83217159D02*
X191925405Y-82626274D01*
X186677624Y-86473454D02*
X191109259Y-87254871D01*
X183322607Y-79586229D02*
X183901835Y-79180649D01*
X183120419Y-83612284D02*
X185582438Y-84046404D01*
X191109259Y-87254871D02*
X191196083Y-86762467D01*
X191925405Y-82626274D02*
X187493770Y-81844857D01*
X186799178Y-85784088D02*
G75*
G03*
X185582438Y-84046404I-1477212J260472D01*
G01*
X187088190Y-81265629D02*
G75*
G03*
X187493770Y-81844857I492404J-86824D01*
G01*
%TO.C,S13*%
X186021368Y-116109736D02*
X181589733Y-115328319D01*
X177216382Y-117095746D02*
X179678401Y-117529866D01*
X177418570Y-113069691D02*
X177997798Y-112664111D01*
X176810802Y-116516518D02*
X177216382Y-117095746D01*
X180952222Y-113185056D02*
X181357801Y-113764284D01*
X185205222Y-120738333D02*
X185292046Y-120245929D01*
X181184153Y-114749091D02*
X181357801Y-113764284D01*
X180895140Y-119267550D02*
X180773587Y-119956916D01*
X177997798Y-112664111D02*
X180952222Y-113185056D01*
X185917179Y-116700621D02*
X186021368Y-116109736D01*
X180773587Y-119956916D02*
X185205222Y-120738333D01*
X180895141Y-119267550D02*
G75*
G03*
X179678401Y-117529866I-1477212J260472D01*
G01*
X181184153Y-114749091D02*
G75*
G03*
X181589733Y-115328319I492404J-86824D01*
G01*
%TO.C,S11*%
X170843113Y-98532017D02*
X170929937Y-98039613D01*
X163056461Y-90863375D02*
X163635689Y-90457795D01*
X166533031Y-97061234D02*
X166411478Y-97750600D01*
X162854273Y-94889430D02*
X165316292Y-95323550D01*
X162448693Y-94310202D02*
X162854273Y-94889430D01*
X171555070Y-94494305D02*
X171659259Y-93903420D01*
X163635689Y-90457795D02*
X166590113Y-90978740D01*
X171659259Y-93903420D02*
X167227624Y-93122003D01*
X166822044Y-92542775D02*
X166995692Y-91557968D01*
X166411478Y-97750600D02*
X170843113Y-98532017D01*
X166590113Y-90978740D02*
X166995692Y-91557968D01*
X166533032Y-97061234D02*
G75*
G03*
X165316292Y-95323550I-1477212J260472D01*
G01*
X166822044Y-92542775D02*
G75*
G03*
X167227624Y-93122003I492404J-86824D01*
G01*
%TO.C,S20*%
X302319321Y-90547099D02*
X302868846Y-90992096D01*
X305382033Y-86203162D02*
X305931559Y-86648158D01*
X306036087Y-87642680D02*
X305931559Y-86648158D01*
X307076896Y-92761930D02*
X311552245Y-92291552D01*
X307003726Y-92065765D02*
X307076896Y-92761930D01*
X302868846Y-90992096D02*
X305355151Y-90730775D01*
X311060961Y-87617299D02*
X306585612Y-88087677D01*
X301953471Y-87066272D02*
X302398468Y-86516747D01*
X311123678Y-88214012D02*
X311060961Y-87617299D01*
X302398468Y-86516747D02*
X305382033Y-86203162D01*
X311552245Y-92291552D02*
X311499980Y-91794291D01*
X306036087Y-87642680D02*
G75*
G03*
X306585612Y-88087677I497261J52264D01*
G01*
X307003725Y-92065765D02*
G75*
G03*
X305355151Y-90730775I-1491782J-156792D01*
G01*
%TO.C,S31*%
X236939161Y-118399309D02*
X237060715Y-119088675D01*
X231958041Y-113185056D02*
X234912465Y-112664111D01*
X240780392Y-114269546D02*
X240676204Y-113678662D01*
X232739458Y-117616691D02*
X235201477Y-117182570D01*
X240676204Y-113678662D02*
X236244569Y-114460078D01*
X231552462Y-113764284D02*
X231958041Y-113185056D01*
X235665341Y-114054499D02*
X235491693Y-113069691D01*
X237060715Y-119088675D02*
X241492350Y-118307258D01*
X232160230Y-117211111D02*
X232739458Y-117616691D01*
X234912465Y-112664111D02*
X235491693Y-113069691D01*
X241492350Y-118307258D02*
X241405526Y-117814854D01*
X235665342Y-114054499D02*
G75*
G03*
X236244569Y-114460078I492403J86824D01*
G01*
X236939161Y-118399309D02*
G75*
G03*
X235201477Y-117182570I-1477211J-260473D01*
G01*
%TO.C,S4*%
X124043597Y-104800598D02*
X124449177Y-105379826D01*
X125230593Y-100948191D02*
X128185017Y-101469136D01*
X124651365Y-101353771D02*
X125230593Y-100948191D01*
X128006382Y-108240996D02*
X132438017Y-109022413D01*
X124449177Y-105379826D02*
X126911196Y-105813946D01*
X128416948Y-103033171D02*
X128590596Y-102048364D01*
X132438017Y-109022413D02*
X132524841Y-108530009D01*
X128127935Y-107551630D02*
X128006382Y-108240996D01*
X128185017Y-101469136D02*
X128590596Y-102048364D01*
X133149974Y-104984701D02*
X133254163Y-104393816D01*
X133254163Y-104393816D02*
X128822528Y-103612399D01*
X128416948Y-103033171D02*
G75*
G03*
X128822528Y-103612399I492404J-86824D01*
G01*
X128127936Y-107551630D02*
G75*
G03*
X126911196Y-105813946I-1477212J260472D01*
G01*
%TO.C,S26*%
X263836463Y-89540208D02*
X264415691Y-89945788D01*
X264415691Y-89945788D02*
X266877710Y-89511667D01*
X268736948Y-91417772D02*
X273168583Y-90636355D01*
X273168583Y-90636355D02*
X273081759Y-90143951D01*
X266588698Y-84993208D02*
X267167926Y-85398788D01*
X268615394Y-90728406D02*
X268736948Y-91417772D01*
X263634274Y-85514153D02*
X266588698Y-84993208D01*
X272352437Y-86007759D02*
X267920802Y-86789175D01*
X267341574Y-86383596D02*
X267167926Y-85398788D01*
X263228695Y-86093381D02*
X263634274Y-85514153D01*
X272456625Y-86598643D02*
X272352437Y-86007759D01*
X268615394Y-90728406D02*
G75*
G03*
X266877710Y-89511667I-1477211J-260473D01*
G01*
X267341575Y-86383596D02*
G75*
G03*
X267920802Y-86789175I492403J86824D01*
G01*
%TO.C,S35*%
X239064325Y-131416603D02*
X239385345Y-130786566D01*
X245259985Y-135922577D02*
X249539739Y-134532000D01*
X239385345Y-130786566D02*
X242238514Y-129859515D01*
X249539739Y-134532000D02*
X249385231Y-134056472D01*
X240775921Y-135066320D02*
X243153563Y-134293778D01*
X245043673Y-135256837D02*
X245259985Y-135922577D01*
X248272769Y-130632669D02*
X248087359Y-130062035D01*
X242238514Y-129859515D02*
X242868551Y-130180535D01*
X248087359Y-130062035D02*
X243807605Y-131452611D01*
X240145885Y-134745301D02*
X240775921Y-135066320D01*
X243177568Y-131131591D02*
X242868551Y-130180535D01*
X245043673Y-135256837D02*
G75*
G03*
X243153563Y-134293778I-1426585J-463526D01*
G01*
X243177568Y-131131591D02*
G75*
G03*
X243807605Y-131452611I475528J154508D01*
G01*
%TO.C,S27*%
X265784929Y-74676041D02*
X270216564Y-73894624D01*
X260276676Y-69351650D02*
X260682255Y-68772422D01*
X261463672Y-73204057D02*
X263925691Y-72769936D01*
X269504606Y-69856912D02*
X269400418Y-69266028D01*
X264389555Y-69641865D02*
X264215907Y-68657057D01*
X260682255Y-68772422D02*
X263636679Y-68251477D01*
X270216564Y-73894624D02*
X270129740Y-73402220D01*
X260884444Y-72798477D02*
X261463672Y-73204057D01*
X263636679Y-68251477D02*
X264215907Y-68657057D01*
X265663375Y-73986675D02*
X265784929Y-74676041D01*
X269400418Y-69266028D02*
X264968783Y-70047444D01*
X264389556Y-69641865D02*
G75*
G03*
X264968783Y-70047444I492403J86824D01*
G01*
X265663375Y-73986675D02*
G75*
G03*
X263925691Y-72769936I-1477211J-260473D01*
G01*
%TO.C,S3*%
X117486875Y-72770541D02*
X117549592Y-72173827D01*
X117058308Y-76848080D02*
X117110572Y-76350819D01*
X112629246Y-71153924D02*
X112733775Y-70159402D01*
X112288778Y-69609877D02*
X112733775Y-70159402D01*
X108834834Y-73771640D02*
X111321139Y-74032961D01*
X108389838Y-73222115D02*
X108834834Y-73771640D01*
X112656129Y-75681537D02*
X112582959Y-76377702D01*
X112582959Y-76377702D02*
X117058308Y-76848080D01*
X109305213Y-69296292D02*
X112288778Y-69609877D01*
X117549592Y-72173827D02*
X113074243Y-71703449D01*
X108755687Y-69741288D02*
X109305213Y-69296292D01*
X112656130Y-75681537D02*
G75*
G03*
X111321139Y-74032961I-1491783J156793D01*
G01*
X112629246Y-71153924D02*
G75*
G03*
X113074243Y-71703449I497261J-52264D01*
G01*
%TO.C,S32*%
X229006024Y-96443325D02*
X231960448Y-95922380D01*
X233987144Y-101657578D02*
X234108698Y-102346944D01*
X229208213Y-100469380D02*
X229787441Y-100874960D01*
X237724187Y-96936931D02*
X233292552Y-97718347D01*
X237828375Y-97527815D02*
X237724187Y-96936931D01*
X238540333Y-101565527D02*
X238453509Y-101073123D01*
X231960448Y-95922380D02*
X232539676Y-96327960D01*
X228600445Y-97022553D02*
X229006024Y-96443325D01*
X229787441Y-100874960D02*
X232249460Y-100440839D01*
X234108698Y-102346944D02*
X238540333Y-101565527D01*
X232713324Y-97312768D02*
X232539676Y-96327960D01*
X232713325Y-97312768D02*
G75*
G03*
X233292552Y-97718347I492403J86824D01*
G01*
X233987144Y-101657578D02*
G75*
G03*
X232249460Y-100440839I-1477211J-260473D01*
G01*
%TO.C,S14*%
X183725605Y-103215184D02*
X188157240Y-103996601D01*
X180949816Y-95922379D02*
X183904240Y-96443324D01*
X188973386Y-99368004D02*
X184541751Y-98586587D01*
X184136171Y-98007359D02*
X184309819Y-97022552D01*
X180168400Y-100354014D02*
X182630419Y-100788134D01*
X179762820Y-99774786D02*
X180168400Y-100354014D01*
X188157240Y-103996601D02*
X188244064Y-103504197D01*
X183904240Y-96443324D02*
X184309819Y-97022552D01*
X188869197Y-99958889D02*
X188973386Y-99368004D01*
X180370588Y-96327959D02*
X180949816Y-95922379D01*
X183847158Y-102525818D02*
X183725605Y-103215184D01*
X183847159Y-102525818D02*
G75*
G03*
X182630419Y-100788134I-1477212J260472D01*
G01*
X184136171Y-98007359D02*
G75*
G03*
X184541751Y-98586587I492404J-86824D01*
G01*
%TO.C,S19*%
X307813071Y-104549552D02*
X307708543Y-103555030D01*
X312837945Y-104524171D02*
X308362596Y-104994549D01*
X304645830Y-107898968D02*
X307132135Y-107637647D01*
X308780710Y-108972637D02*
X308853880Y-109668802D01*
X303730455Y-103973144D02*
X304175452Y-103423619D01*
X307159017Y-103110034D02*
X307708543Y-103555030D01*
X304096305Y-107453971D02*
X304645830Y-107898968D01*
X313329229Y-109198424D02*
X313276964Y-108701163D01*
X308853880Y-109668802D02*
X313329229Y-109198424D01*
X312900662Y-105120884D02*
X312837945Y-104524171D01*
X304175452Y-103423619D02*
X307159017Y-103110034D01*
X308780709Y-108972637D02*
G75*
G03*
X307132135Y-107637647I-1491782J-156792D01*
G01*
X307813071Y-104549552D02*
G75*
G03*
X308362596Y-104994549I497261J52264D01*
G01*
%TO.C,S21*%
X301091860Y-74085224D02*
X303578165Y-73823903D01*
X305226740Y-75158893D02*
X305299910Y-75855058D01*
X303605047Y-69296290D02*
X304154573Y-69741286D01*
X300176485Y-70159400D02*
X300621482Y-69609875D01*
X309775259Y-75384680D02*
X309722994Y-74887419D01*
X305299910Y-75855058D02*
X309775259Y-75384680D01*
X300621482Y-69609875D02*
X303605047Y-69296290D01*
X309283975Y-70710427D02*
X304808626Y-71180805D01*
X300542335Y-73640227D02*
X301091860Y-74085224D01*
X309346692Y-71307140D02*
X309283975Y-70710427D01*
X304259101Y-70735808D02*
X304154573Y-69741286D01*
X304259101Y-70735808D02*
G75*
G03*
X304808626Y-71180805I497261J52264D01*
G01*
X305226739Y-75158893D02*
G75*
G03*
X303578165Y-73823903I-1491782J-156792D01*
G01*
%TO.C,S6*%
X131134632Y-67464728D02*
X134089056Y-67985673D01*
X130555404Y-67870308D02*
X131134632Y-67464728D01*
X134031974Y-74068167D02*
X133910421Y-74757533D01*
X134320987Y-69549708D02*
X134494635Y-68564901D01*
X129947636Y-71317135D02*
X130353216Y-71896363D01*
X138342056Y-75538950D02*
X138428880Y-75046546D01*
X134089056Y-67985673D02*
X134494635Y-68564901D01*
X133910421Y-74757533D02*
X138342056Y-75538950D01*
X139054013Y-71501238D02*
X139158202Y-70910353D01*
X139158202Y-70910353D02*
X134726567Y-70128936D01*
X130353216Y-71896363D02*
X132815235Y-72330483D01*
X134320987Y-69549708D02*
G75*
G03*
X134726567Y-70128936I492404J-86824D01*
G01*
X134031975Y-74068167D02*
G75*
G03*
X132815235Y-72330483I-1477212J260472D01*
G01*
%TO.C,S28*%
X252979469Y-108589913D02*
X252805821Y-107605105D01*
X250053586Y-112152105D02*
X252515605Y-111717984D01*
X258806478Y-112842672D02*
X258719654Y-112350268D01*
X258094520Y-108804960D02*
X257990332Y-108214076D01*
X249272169Y-107720470D02*
X252226593Y-107199525D01*
X249474358Y-111746525D02*
X250053586Y-112152105D01*
X252226593Y-107199525D02*
X252805821Y-107605105D01*
X257990332Y-108214076D02*
X253558697Y-108995492D01*
X254253289Y-112934723D02*
X254374843Y-113624089D01*
X254374843Y-113624089D02*
X258806478Y-112842672D01*
X248866590Y-108299698D02*
X249272169Y-107720470D01*
X254253289Y-112934723D02*
G75*
G03*
X252515605Y-111717984I-1477211J-260473D01*
G01*
X252979470Y-108589913D02*
G75*
G03*
X253558697Y-108995492I492403J86824D01*
G01*
%TO.C,S8*%
X149218905Y-91596647D02*
X149097352Y-92286013D01*
X145134567Y-88845615D02*
X145540147Y-89424843D01*
X149097352Y-92286013D02*
X153528987Y-93067430D01*
X154345133Y-88438833D02*
X149913498Y-87657416D01*
X145540147Y-89424843D02*
X148002166Y-89858963D01*
X149275987Y-85514153D02*
X149681566Y-86093381D01*
X149507918Y-87078188D02*
X149681566Y-86093381D01*
X153528987Y-93067430D02*
X153615811Y-92575026D01*
X146321563Y-84993208D02*
X149275987Y-85514153D01*
X145742335Y-85398788D02*
X146321563Y-84993208D01*
X154240944Y-89029718D02*
X154345133Y-88438833D01*
X149507918Y-87078188D02*
G75*
G03*
X149913498Y-87657416I492404J-86824D01*
G01*
X149218906Y-91596647D02*
G75*
G03*
X148002166Y-89858963I-1477212J260472D01*
G01*
%TO.C,S5*%
X131368967Y-86291440D02*
X131542615Y-85306633D01*
X136101993Y-88242970D02*
X136206182Y-87652085D01*
X135390036Y-92280682D02*
X135476860Y-91788278D01*
X136206182Y-87652085D02*
X131774547Y-86870668D01*
X127603384Y-84612040D02*
X128182612Y-84206460D01*
X131079954Y-90809899D02*
X130958401Y-91499265D01*
X130958401Y-91499265D02*
X135390036Y-92280682D01*
X127401196Y-88638095D02*
X129863215Y-89072215D01*
X128182612Y-84206460D02*
X131137036Y-84727405D01*
X131137036Y-84727405D02*
X131542615Y-85306633D01*
X126995616Y-88058867D02*
X127401196Y-88638095D01*
X131079955Y-90809899D02*
G75*
G03*
X129863215Y-89072215I-1477212J260472D01*
G01*
X131368967Y-86291440D02*
G75*
G03*
X131774547Y-86870668I492404J-86824D01*
G01*
%TO.C,S10*%
X163638094Y-107720473D02*
X164043673Y-108299701D01*
X160683670Y-107199528D02*
X163638094Y-107720473D01*
X159496674Y-111051935D02*
X159902254Y-111631163D01*
X168707240Y-110645153D02*
X164275605Y-109863736D01*
X159902254Y-111631163D02*
X162364273Y-112065283D01*
X163459459Y-114492333D02*
X167891094Y-115273750D01*
X163870025Y-109284508D02*
X164043673Y-108299701D01*
X163581012Y-113802967D02*
X163459459Y-114492333D01*
X167891094Y-115273750D02*
X167977918Y-114781346D01*
X160104442Y-107605108D02*
X160683670Y-107199528D01*
X168603051Y-111236038D02*
X168707240Y-110645153D01*
X163581013Y-113802967D02*
G75*
G03*
X162364273Y-112065283I-1477212J260472D01*
G01*
X163870025Y-109284508D02*
G75*
G03*
X164275605Y-109863736I492404J-86824D01*
G01*
%TO.C,S16*%
X154124039Y-127239917D02*
X154297687Y-126255110D01*
X150937684Y-125154937D02*
X153892108Y-125675882D01*
X150358456Y-125560517D02*
X150937684Y-125154937D01*
X158857065Y-129191447D02*
X158961254Y-128600562D01*
X158145108Y-133229159D02*
X158231932Y-132736755D01*
X153713473Y-132447742D02*
X158145108Y-133229159D01*
X150156268Y-129586572D02*
X152618287Y-130020692D01*
X153835026Y-131758376D02*
X153713473Y-132447742D01*
X153892108Y-125675882D02*
X154297687Y-126255110D01*
X149750688Y-129007344D02*
X150156268Y-129586572D01*
X158961254Y-128600562D02*
X154529619Y-127819145D01*
X154124039Y-127239917D02*
G75*
G03*
X154529619Y-127819145I492404J-86824D01*
G01*
X153835027Y-131758376D02*
G75*
G03*
X152618287Y-130020692I-1477212J260472D01*
G01*
%TO.C,S9*%
X148694355Y-68657056D02*
X149273583Y-68251476D01*
X157192964Y-72287986D02*
X157297153Y-71697101D01*
X149273583Y-68251476D02*
X152228007Y-68772421D01*
X148086587Y-72103883D02*
X148492167Y-72683111D01*
X152228007Y-68772421D02*
X152633586Y-69351649D01*
X152170925Y-74854915D02*
X152049372Y-75544281D01*
X157297153Y-71697101D02*
X152865518Y-70915684D01*
X152049372Y-75544281D02*
X156481007Y-76325698D01*
X148492167Y-72683111D02*
X150954186Y-73117231D01*
X152459938Y-70336456D02*
X152633586Y-69351649D01*
X156481007Y-76325698D02*
X156567831Y-75833294D01*
X152459938Y-70336456D02*
G75*
G03*
X152865518Y-70915684I492404J-86824D01*
G01*
X152170926Y-74854915D02*
G75*
G03*
X150954186Y-73117231I-1477212J260472D01*
G01*
%TO.C,S12*%
X173795132Y-81790285D02*
X173881956Y-81297881D01*
X169363497Y-81008868D02*
X173795132Y-81790285D01*
X165806292Y-78147698D02*
X168268311Y-78581818D01*
X166008480Y-74121643D02*
X166587708Y-73716063D01*
X174611278Y-77161688D02*
X170179643Y-76380271D01*
X169542132Y-74237008D02*
X169947711Y-74816236D01*
X174507089Y-77752573D02*
X174611278Y-77161688D01*
X165400712Y-77568470D02*
X165806292Y-78147698D01*
X169485050Y-80319502D02*
X169363497Y-81008868D01*
X169774063Y-75801043D02*
X169947711Y-74816236D01*
X166587708Y-73716063D02*
X169542132Y-74237008D01*
X169485051Y-80319502D02*
G75*
G03*
X168268311Y-78581818I-1477212J260472D01*
G01*
X169774063Y-75801043D02*
G75*
G03*
X170179643Y-76380271I492404J-86824D01*
G01*
D10*
%TO.C,LED11*%
X258369130Y-81568493D02*
X256399514Y-81915789D01*
X258976898Y-85015320D02*
X257007283Y-85362617D01*
X257239214Y-83798581D02*
X258716426Y-83538109D01*
X255182775Y-83653473D02*
X255009127Y-82668666D01*
X258716426Y-83538109D02*
X258369130Y-81568493D01*
X256399514Y-81915789D02*
X256659986Y-83393001D01*
X258108657Y-80091281D02*
X256139042Y-80438578D01*
X256659986Y-83393001D02*
X257239214Y-83798581D01*
X260106813Y-82785232D02*
X259933165Y-81800425D01*
%TO.C,LED2*%
X113631248Y-85537453D02*
X111642204Y-85328396D01*
X113997097Y-82056627D02*
X112008054Y-81847570D01*
X112008054Y-81847570D02*
X111851261Y-83339352D01*
X110359478Y-83182560D02*
X110464006Y-82188038D01*
X114153890Y-80564844D02*
X112164846Y-80355787D01*
X111851261Y-83339352D02*
X112296258Y-83888878D01*
X112296258Y-83888878D02*
X113788040Y-84045670D01*
X115332088Y-83705202D02*
X115436616Y-82710680D01*
X113788040Y-84045670D02*
X113997097Y-82056627D01*
%TO.C,LED4*%
X146552116Y-118238312D02*
X146725764Y-117253505D01*
X151476154Y-119106553D02*
X151649802Y-118121746D01*
X148289799Y-117021573D02*
X148029327Y-118498785D01*
X148434907Y-119078013D02*
X149912119Y-119338485D01*
X149912119Y-119338485D02*
X150259415Y-117368869D01*
X150259415Y-117368869D02*
X148289799Y-117021573D01*
X150519887Y-115891658D02*
X148550272Y-115544361D01*
X148029327Y-118498785D02*
X148434907Y-119078013D01*
X149651646Y-120815697D02*
X147682031Y-120468400D01*
%TO.C,LED6*%
X205455131Y-142792429D02*
X205955131Y-143292429D01*
X203955131Y-142792429D02*
X203955131Y-141792429D01*
X207455131Y-144792429D02*
X205455131Y-144792429D01*
X207455131Y-143292429D02*
X207455131Y-141292429D01*
X207455131Y-139792429D02*
X205455131Y-139792429D01*
X207455131Y-141292429D02*
X205455131Y-141292429D01*
X208955131Y-142792429D02*
X208955131Y-141792429D01*
X205955131Y-143292429D02*
X207455131Y-143292429D01*
X205455131Y-141292429D02*
X205455131Y-142792429D01*
%TO.C,LED5*%
X180601139Y-129573061D02*
X180340667Y-131050273D01*
X181962986Y-133367185D02*
X179993371Y-133019888D01*
X182570755Y-129920357D02*
X180601139Y-129573061D01*
X183787494Y-131658041D02*
X183961142Y-130673234D01*
X182831227Y-128443146D02*
X180861612Y-128095849D01*
X182223459Y-131889973D02*
X182570755Y-129920357D01*
X178863456Y-130789800D02*
X179037104Y-129804993D01*
X180746247Y-131629501D02*
X182223459Y-131889973D01*
X180340667Y-131050273D02*
X180746247Y-131629501D01*
%TO.C,LED3*%
X109969749Y-101240749D02*
X111461531Y-101397541D01*
X111670588Y-99408498D02*
X109681545Y-99199441D01*
X111461531Y-101397541D02*
X111670588Y-99408498D01*
X111827381Y-97916715D02*
X109838337Y-97707658D01*
X109681545Y-99199441D02*
X109524752Y-100691223D01*
X111304739Y-102889324D02*
X109315695Y-102680267D01*
X109524752Y-100691223D02*
X109969749Y-101240749D01*
X108032969Y-100534431D02*
X108137497Y-99539909D01*
X113005579Y-101057073D02*
X113110107Y-100062551D01*
%TO.C,LED1*%
X156163453Y-83885407D02*
X156510749Y-81915791D01*
X156510749Y-81915791D02*
X154541133Y-81568495D01*
X155902980Y-85362619D02*
X153933365Y-85015322D01*
X154541133Y-81568495D02*
X154280661Y-83045707D01*
X157727488Y-83653475D02*
X157901136Y-82668668D01*
X154686241Y-83624935D02*
X156163453Y-83885407D01*
X152803450Y-82785234D02*
X152977098Y-81800427D01*
X154280661Y-83045707D02*
X154686241Y-83624935D01*
X156771221Y-80438580D02*
X154801606Y-80091283D01*
%TO.C,LED7*%
X230339509Y-129920360D02*
X230599981Y-131397572D01*
X232916893Y-133019891D02*
X230947278Y-133367188D01*
X232048652Y-128095852D02*
X230079037Y-128443149D01*
X232656421Y-131542680D02*
X232309125Y-129573064D01*
X234046808Y-130789803D02*
X233873160Y-129804996D01*
X230599981Y-131397572D02*
X231179209Y-131803152D01*
X229122770Y-131658044D02*
X228949122Y-130673237D01*
X232309125Y-129573064D02*
X230339509Y-129920360D01*
X231179209Y-131803152D02*
X232656421Y-131542680D01*
%TO.C,LED9*%
X303071925Y-97707657D02*
X301082881Y-97916714D01*
X304877293Y-100534430D02*
X304772765Y-99539908D01*
X301396466Y-100900279D02*
X301945992Y-101345276D01*
X303437774Y-101188483D02*
X303228717Y-99199440D01*
X303594567Y-102680266D02*
X301605523Y-102889323D01*
X299904683Y-101057072D02*
X299800155Y-100062550D01*
X303228717Y-99199440D02*
X301239674Y-99408497D01*
X301239674Y-99408497D02*
X301396466Y-100900279D01*
X301945992Y-101345276D02*
X303437774Y-101188483D01*
%TO.C,LED8*%
X263490546Y-119251659D02*
X264967758Y-118991187D01*
X262650846Y-117368867D02*
X262911318Y-118846079D01*
X266358145Y-118238310D02*
X266184497Y-117253503D01*
X264620462Y-117021571D02*
X262650846Y-117368867D01*
X262911318Y-118846079D02*
X263490546Y-119251659D01*
X265228230Y-120468398D02*
X263258615Y-120815695D01*
X264359989Y-115544359D02*
X262390374Y-115891656D01*
X264967758Y-118991187D02*
X264620462Y-117021571D01*
X261434107Y-119106551D02*
X261260459Y-118121744D01*
%TO.C,LED10*%
X299069957Y-83548411D02*
X299619483Y-83993408D01*
X299619483Y-83993408D02*
X301111265Y-83836615D01*
X300902208Y-81847572D02*
X298913165Y-82056629D01*
X301111265Y-83836615D02*
X300902208Y-81847572D01*
X297578174Y-83705204D02*
X297473646Y-82710682D01*
X301268058Y-85328398D02*
X299279014Y-85537455D01*
X300745416Y-80355789D02*
X298756372Y-80564846D01*
X298913165Y-82056629D02*
X299069957Y-83548411D01*
X302550784Y-83182562D02*
X302446256Y-82188040D01*
%TD*%
D12*
%TO.C,MCU1*%
X214075131Y-85546547D03*
D13*
X214075131Y-88086547D03*
X214075131Y-90626547D03*
X214075131Y-93166547D03*
X214075131Y-95706547D03*
X214075131Y-98246547D03*
X214075131Y-100786547D03*
X214075131Y-103326547D03*
X214075131Y-105866547D03*
X214075131Y-108406547D03*
X214075131Y-110946547D03*
X214075131Y-113486547D03*
X198835131Y-85546547D03*
X198835131Y-88086547D03*
X198835131Y-90626547D03*
X198835131Y-93166547D03*
X198835131Y-95706547D03*
X198835131Y-98246547D03*
X198835131Y-100786547D03*
X198835131Y-103326547D03*
X198835131Y-105866547D03*
X198835131Y-108406547D03*
X198835131Y-110946547D03*
X198835131Y-113486547D03*
%TD*%
M02*
