0
SECTION
2
HEADER
9
$INSUNITS
70
4
0
ENDSEC
0
SECTION
2
TABLES
0
TABLE
2
LTYPE
0
LTYPE
72
65
70
64
2
CONTINUOUS
3
______
73
0
40
0
0
ENDTAB
0
TABLE
2
LAYER
0
ENDTAB
0
ENDSEC
0
SECTION
2
ENTITIES
0
LINE
8
0
10
95.1382102
20
-120.8567166
11
116.5204309
21
-123.1040786
0
LINE
8
0
10
116.5204309
20
-123.1040786
11
117.0037031
21
-118.506051
0
LINE
8
0
10
95.1382102
20
-120.8567166
11
100.8350115
21
-66.6552733
0
LINE
8
0
10
100.8350115
20
-66.6552733
11
122.0702555
21
-68.8871874
0
LINE
8
0
10
117.0037031
20
-118.506051
11
142.5036797
21
-123.002385
0
LINE
8
0
10
140.62252
20
-67.3299353
11
122.8959805
21
-64.2042681
0
LINE
8
0
10
122.8959805
20
-64.2042681
11
122.0702555
21
-68.8871874
0
LINE
8
0
10
161.7958867
20
-71.0633712
11
162.2083011
21
-68.7244527
0
LINE
8
0
10
162.2083011
20
-68.7244527
11
141.0349344
21
-64.9910169
0
LINE
8
0
10
141.0349344
20
-64.9910169
11
140.62252
21
-67.3299353
0
LINE
8
0
10
179.1100118
20
-76.5279567
11
179.5224262
21
-74.1890384
0
LINE
8
0
10
179.5224262
20
-74.1890384
11
161.7958867
21
-71.0633712
0
LINE
8
0
10
196.8365515
20
-79.6536239
11
179.1100118
21
-76.5279567
0
LINE
8
0
10
139.1392462
20
-142.0830352
11
158.4686873
21
-145.4913372
0
LINE
8
0
10
139.1392462
20
-142.0830352
11
142.5036797
21
-123.002385
0
LINE
8
0
10
158.4686873
20
-145.4913372
11
175.3549384
21
-150.9780128
0
LINE
8
0
10
175.3549384
20
-150.9780128
11
192.9961338
21
-159.5821987
0
LINE
8
0
10
297.4195177
20
-123.1040786
11
318.8017384
21
-120.8567166
0
LINE
8
0
10
313.1049371
20
-66.6552733
11
318.8017384
21
-120.8567166
0
LINE
8
0
10
296.9362455
20
-118.506051
11
297.4195177
21
-123.1040786
0
LINE
8
0
10
291.8696931
20
-68.8871874
11
313.1049371
21
-66.6552733
0
LINE
8
0
10
271.4362689
20
-123.002385
11
296.9362455
21
-118.506051
0
LINE
8
0
10
291.8696931
20
-68.8871874
11
291.0439681
21
-64.2042681
0
LINE
8
0
10
291.0439681
20
-64.2042681
11
273.3174286
21
-67.3299353
0
LINE
8
0
10
273.3174286
20
-67.3299353
11
272.9050142
21
-64.9910169
0
LINE
8
0
10
272.9050142
20
-64.9910169
11
251.7316475
21
-68.7244527
0
LINE
8
0
10
251.7316475
20
-68.7244527
11
252.1440619
21
-71.0633712
0
LINE
8
0
10
252.1440619
20
-71.0633712
11
234.4175224
21
-74.1890384
0
LINE
8
0
10
234.4175224
20
-74.1890384
11
234.8299368
21
-76.5279567
0
LINE
8
0
10
234.8299368
20
-76.5279567
11
217.1033971
21
-79.6536239
0
LINE
8
0
10
255.4712613
20
-145.4913372
11
274.8007024
21
-142.0830352
0
LINE
8
0
10
271.4362689
20
-123.002385
11
274.8007024
21
-142.0830352
0
LINE
8
0
10
238.5850102
20
-150.9780128
11
255.4712613
21
-145.4913372
0
LINE
8
0
10
220.9438148
20
-159.5821987
11
238.5850102
21
-150.9780128
0
LINE
8
0
10
196.8365515
20
-79.6536239
11
202.3199743
21
-79.6536239
0
LINE
8
0
10
211.6199743
20
-79.6536239
11
217.1033971
21
-79.6536239
0
LINE
8
0
10
220.9438148
20
-159.5821987
11
206.9699743
21
-157.4070699
0
LINE
8
0
10
206.9699743
20
-157.4070699
11
192.9961338
21
-159.5821987
0
LINE
8
0
10
202.3199743
20
-85.0311855
11
211.6199743
21
-85.0311855
0
LINE
8
0
10
211.6199743
20
-85.0311855
11
211.6199743
21
-79.6536239
0
LINE
8
0
10
202.3199743
20
-79.6536239
11
202.3199743
21
-85.0311855
0
CIRCLE
8
0
10
189.2257744
20
-128.5752559
40
1
0
CIRCLE
8
0
10
224.7141742
20
-128.5752559
40
1
0
CIRCLE
8
0
10
192.1777934
20
-111.8335242
40
1
0
CIRCLE
8
0
10
221.7621552
20
-111.8335242
40
1
0
CIRCLE
8
0
10
120.2802022
20
-82.7822848
40
1
0
CIRCLE
8
0
10
293.6597464
20
-82.7822848
40
1
0
CIRCLE
8
0
10
117.9190677
20
-99.6282056
40
1
0
CIRCLE
8
0
10
296.0208809
20
-99.6282056
40
1
0
CIRCLE
8
0
10
174.0507054
20
-92.2634754
40
1
0
CIRCLE
8
0
10
239.8892432
20
-92.2634754
40
1
0
CIRCLE
8
0
10
162.8488662
20
-127.9233959
40
1
0
CIRCLE
8
0
10
251.0910824
20
-127.9233959
40
1
0
ENDSEC
0
EOF