0
SECTION
2
HEADER
9
$INSUNITS
70
4
0
ENDSEC
0
SECTION
2
TABLES
0
TABLE
2
LTYPE
0
LTYPE
72
65
70
64
2
CONTINUOUS
3
______
73
0
40
0
0
ENDTAB
0
TABLE
2
LAYER
0
ENDTAB
0
ENDSEC
0
SECTION
2
ENTITIES
0
LINE
8
0
10
95.1382102
20
-120.8567166
11
116.5204309
21
-123.1040786
0
LINE
8
0
10
116.5204309
20
-123.1040786
11
117.0037031
21
-118.506051
0
LINE
8
0
10
95.1382102
20
-120.8567166
11
100.8350115
21
-66.6552733
0
LINE
8
0
10
100.8350115
20
-66.6552733
11
122.0702555
21
-68.8871874
0
LINE
8
0
10
117.0037031
20
-118.506051
11
142.5036797
21
-123.002385
0
LINE
8
0
10
140.62252
20
-67.3299353
11
122.8959805
21
-64.2042681
0
LINE
8
0
10
122.8959805
20
-64.2042681
11
122.0702555
21
-68.8871874
0
LINE
8
0
10
161.7958867
20
-71.0633712
11
162.2083011
21
-68.7244527
0
LINE
8
0
10
162.2083011
20
-68.7244527
11
141.0349344
21
-64.9910169
0
LINE
8
0
10
141.0349344
20
-64.9910169
11
140.62252
21
-67.3299353
0
LINE
8
0
10
179.1100118
20
-76.5279567
11
179.5224262
21
-74.1890384
0
LINE
8
0
10
179.5224262
20
-74.1890384
11
161.7958867
21
-71.0633712
0
LINE
8
0
10
196.8365515
20
-79.6536239
11
179.1100118
21
-76.5279567
0
LINE
8
0
10
139.1392462
20
-142.0830352
11
158.4686873
21
-145.4913372
0
LINE
8
0
10
139.1392462
20
-142.0830352
11
142.5036797
21
-123.002385
0
LINE
8
0
10
158.4686873
20
-145.4913372
11
175.3549384
21
-150.9780128
0
LINE
8
0
10
175.3549384
20
-150.9780128
11
192.9961338
21
-159.5821987
0
LINE
8
0
10
297.4195177
20
-123.1040786
11
318.8017384
21
-120.8567166
0
LINE
8
0
10
313.1049371
20
-66.6552733
11
318.8017384
21
-120.8567166
0
LINE
8
0
10
296.9362455
20
-118.506051
11
297.4195177
21
-123.1040786
0
LINE
8
0
10
291.8696931
20
-68.8871874
11
313.1049371
21
-66.6552733
0
LINE
8
0
10
271.4362689
20
-123.002385
11
296.9362455
21
-118.506051
0
LINE
8
0
10
291.8696931
20
-68.8871874
11
291.0439681
21
-64.2042681
0
LINE
8
0
10
291.0439681
20
-64.2042681
11
273.3174286
21
-67.3299353
0
LINE
8
0
10
273.3174286
20
-67.3299353
11
272.9050142
21
-64.9910169
0
LINE
8
0
10
272.9050142
20
-64.9910169
11
251.7316475
21
-68.7244527
0
LINE
8
0
10
251.7316475
20
-68.7244527
11
252.1440619
21
-71.0633712
0
LINE
8
0
10
252.1440619
20
-71.0633712
11
234.4175224
21
-74.1890384
0
LINE
8
0
10
234.4175224
20
-74.1890384
11
234.8299368
21
-76.5279567
0
LINE
8
0
10
234.8299368
20
-76.5279567
11
217.1033971
21
-79.6536239
0
LINE
8
0
10
255.4712613
20
-145.4913372
11
274.8007024
21
-142.0830352
0
LINE
8
0
10
271.4362689
20
-123.002385
11
274.8007024
21
-142.0830352
0
LINE
8
0
10
238.5850102
20
-150.9780128
11
255.4712613
21
-145.4913372
0
LINE
8
0
10
220.9438148
20
-159.5821987
11
238.5850102
21
-150.9780128
0
LINE
8
0
10
196.8365515
20
-79.6536239
11
217.1033971
21
-79.6536239
0
LINE
8
0
10
220.9438148
20
-159.5821987
11
206.9699743
21
-157.4070699
0
LINE
8
0
10
206.9699743
20
-157.4070699
11
192.9961338
21
-159.5821987
0
LINE
8
0
10
99.0269981
20
-119.2544282
11
113.0497568
21
-120.7282795
0
ARC
8
0
10
113.2274552
20
-119.0375923
40
1.7
50
264
51
354
0
LINE
8
0
10
114.9181425
20
-119.2152907
11
116.2874653
21
-106.1870538
0
ARC
8
0
10
114.5967781
20
-106.0093555
40
1.7
50
354
51
84
0
LINE
8
0
10
114.7744765
20
-104.3186682
11
100.7517178
21
-102.8448169
0
ARC
8
0
10
100.5740194
20
-104.5355041
40
1.7
50
84
51
174
0
LINE
8
0
10
98.8833321
20
-104.3578057
11
97.5140093
21
-117.3860426
0
ARC
8
0
10
99.2046965
20
-117.5637409
40
1.7
50
174
51
264
0
LINE
8
0
10
100.803982
20
-102.347556
11
114.8267407
21
-103.8214073
0
ARC
8
0
10
115.0044391
20
-102.1307201
40
1.7
50
264
51
354
0
LINE
8
0
10
116.6951264
20
-102.3084185
11
118.0644492
21
-89.2801816
0
ARC
8
0
10
116.373762
20
-89.1024833
40
1.7
50
354
51
84
0
LINE
8
0
10
116.5514604
20
-87.411796
11
102.5287017
21
-85.9379447
0
ARC
8
0
10
102.3510033
20
-87.6286319
40
1.7
50
84
51
174
0
LINE
8
0
10
100.660316
20
-87.4509335
11
99.2909932
21
-100.4791704
0
ARC
8
0
10
100.9816804
20
-100.6568687
40
1.7
50
174
51
264
0
LINE
8
0
10
102.5809659
20
-85.4406837
11
116.6037246
21
-86.914535
0
ARC
8
0
10
116.781423
20
-85.2238478
40
1.7
50
264
51
354
0
LINE
8
0
10
118.4721103
20
-85.4015462
11
119.8414331
21
-72.3733093
0
ARC
8
0
10
118.1507459
20
-72.195611
40
1.7
50
354
51
84
0
LINE
8
0
10
118.3284443
20
-70.5049237
11
104.3056856
21
-69.0310724
0
ARC
8
0
10
104.1279872
20
-70.7217596
40
1.7
50
84
51
174
0
LINE
8
0
10
102.4372999
20
-70.5440612
11
101.0679771
21
-83.5722981
0
ARC
8
0
10
102.7586643
20
-83.7499964
40
1.7
50
174
51
264
0
LINE
8
0
10
117.4232399
20
-116.5491734
11
131.3090292
21
-118.9976127
0
ARC
8
0
10
131.6042311
20
-117.3234395
40
1.7
50
260
51
350
0
LINE
8
0
10
133.2784043
20
-117.6186414
11
135.5531954
21
-104.7176599
0
ARC
8
0
10
133.8790222
20
-104.422458
40
1.7
50
350
51
80
0
LINE
8
0
10
134.1742241
20
-102.7482848
11
120.2884348
21
-100.2998455
0
ARC
8
0
10
119.9932329
20
-101.9740187
40
1.7
50
80
51
170
0
LINE
8
0
10
118.3190597
20
-101.6788168
11
116.0442686
21
-114.5797983
0
ARC
8
0
10
117.7184418
20
-114.8750002
40
1.7
50
170
51
260
0
LINE
8
0
10
120.3752588
20
-99.8074417
11
134.2610481
21
-102.255881
0
ARC
8
0
10
134.55625
20
-100.5817078
40
1.7
50
260
51
350
0
LINE
8
0
10
136.2304232
20
-100.8769097
11
138.5052143
21
-87.9759282
0
ARC
8
0
10
136.8310411
20
-87.6807263
40
1.7
50
350
51
80
0
LINE
8
0
10
137.126243
20
-86.0065531
11
123.2404537
21
-83.5581138
0
ARC
8
0
10
122.9452518
20
-85.232287
40
1.7
50
80
51
170
0
LINE
8
0
10
121.2710786
20
-84.9370851
11
118.9962875
21
-97.8380666
0
ARC
8
0
10
120.6704607
20
-98.1332685
40
1.7
50
170
51
260
0
LINE
8
0
10
123.3272779
20
-83.0657098
11
137.2130672
21
-85.5141491
0
ARC
8
0
10
137.5082691
20
-83.8399759
40
1.7
50
260
51
350
0
LINE
8
0
10
139.1824423
20
-84.1351778
11
141.4572334
21
-71.2341963
0
ARC
8
0
10
139.7830602
20
-70.9389944
40
1.7
50
350
51
80
0
LINE
8
0
10
140.0782621
20
-69.2648212
11
126.1924728
21
-66.8163819
0
ARC
8
0
10
125.8972709
20
-68.4905551
40
1.7
50
80
51
170
0
LINE
8
0
10
124.2230977
20
-68.1953532
11
121.9483066
21
-81.0963347
0
ARC
8
0
10
123.6224798
20
-81.3915366
40
1.7
50
170
51
260
0
LINE
8
0
10
135.5621938
20
-117.3359222
11
149.4479831
21
-119.7843615
0
ARC
8
0
10
149.743185
20
-118.1101883
40
1.7
50
260
51
350
0
LINE
8
0
10
151.4173582
20
-118.4053902
11
153.6921493
21
-105.5044087
0
ARC
8
0
10
152.0179761
20
-105.2092068
40
1.7
50
350
51
80
0
LINE
8
0
10
152.313178
20
-103.5350336
11
138.4273887
21
-101.0865943
0
ARC
8
0
10
138.1321868
20
-102.7607675
40
1.7
50
80
51
170
0
LINE
8
0
10
136.4580136
20
-102.4655656
11
134.1832225
21
-115.3665471
0
ARC
8
0
10
135.8573957
20
-115.661749
40
1.7
50
170
51
260
0
LINE
8
0
10
138.5142129
20
-100.5941905
11
152.4000022
21
-103.0426298
0
ARC
8
0
10
152.6952041
20
-101.3684566
40
1.7
50
260
51
350
0
LINE
8
0
10
154.3693773
20
-101.6636585
11
156.6441684
21
-88.762677
0
ARC
8
0
10
154.9699952
20
-88.4674751
40
1.7
50
350
51
80
0
LINE
8
0
10
155.2651971
20
-86.7933019
11
141.3794078
21
-84.3448626
0
ARC
8
0
10
141.0842059
20
-86.0190358
40
1.7
50
80
51
170
0
LINE
8
0
10
139.4100327
20
-85.7238339
11
137.1352416
21
-98.6248154
0
ARC
8
0
10
138.8094148
20
-98.9200173
40
1.7
50
170
51
260
0
LINE
8
0
10
141.4662318
20
-83.8524586
11
155.3520211
21
-86.3008979
0
ARC
8
0
10
155.647223
20
-84.6267247
40
1.7
50
260
51
350
0
LINE
8
0
10
157.3213962
20
-84.9219266
11
159.5961873
21
-72.0209451
0
ARC
8
0
10
157.9220141
20
-71.7257432
40
1.7
50
350
51
80
0
LINE
8
0
10
158.217216
20
-70.05157
11
144.3314267
21
-67.6031307
0
ARC
8
0
10
144.0362248
20
-69.2773039
40
1.7
50
80
51
170
0
LINE
8
0
10
142.3620516
20
-68.982102
11
140.0872605
21
-81.8830835
0
ARC
8
0
10
141.7614337
20
-82.1782854
40
1.7
50
170
51
260
0
LINE
8
0
10
152.8763189
20
-122.8005079
11
166.7621082
21
-125.2489472
0
ARC
8
0
10
167.0573101
20
-123.574774
40
1.7
50
260
51
350
0
LINE
8
0
10
168.7314833
20
-123.8699759
11
171.0062744
21
-110.9689944
0
ARC
8
0
10
169.3321012
20
-110.6737925
40
1.7
50
350
51
80
0
LINE
8
0
10
169.6273031
20
-108.9996193
11
155.7415138
21
-106.55118
0
ARC
8
0
10
155.4463119
20
-108.2253532
40
1.7
50
80
51
170
0
LINE
8
0
10
153.7721387
20
-107.9301513
11
151.4973476
21
-120.8311328
0
ARC
8
0
10
153.1715208
20
-121.1263347
40
1.7
50
170
51
260
0
LINE
8
0
10
155.8283379
20
-106.058776
11
169.7141272
21
-108.5072153
0
ARC
8
0
10
170.0093291
20
-106.8330421
40
1.7
50
260
51
350
0
LINE
8
0
10
171.6835023
20
-107.128244
11
173.9582934
21
-94.2272625
0
ARC
8
0
10
172.2841202
20
-93.9320606
40
1.7
50
350
51
80
0
LINE
8
0
10
172.5793221
20
-92.2578874
11
158.6935328
21
-89.8094481
0
ARC
8
0
10
158.3983309
20
-91.4836213
40
1.7
50
80
51
170
0
LINE
8
0
10
156.7241577
20
-91.1884194
11
154.4493666
21
-104.0894009
0
ARC
8
0
10
156.1235398
20
-104.3846028
40
1.7
50
170
51
260
0
LINE
8
0
10
158.7803569
20
-89.3170443
11
172.6661462
21
-91.7654836
0
ARC
8
0
10
172.9613481
20
-90.0913104
40
1.7
50
260
51
350
0
LINE
8
0
10
174.6355213
20
-90.3865123
11
176.9103124
21
-77.4855308
0
ARC
8
0
10
175.2361392
20
-77.1903289
40
1.7
50
350
51
80
0
LINE
8
0
10
175.5313411
20
-75.5161557
11
161.6455518
21
-73.0677164
0
ARC
8
0
10
161.3503499
20
-74.7418896
40
1.7
50
80
51
170
0
LINE
8
0
10
159.6761767
20
-74.4466877
11
157.4013856
21
-87.3476692
0
ARC
8
0
10
159.0755588
20
-87.6428711
40
1.7
50
170
51
260
0
LINE
8
0
10
170.1904441
20
-128.2650934
11
184.0762334
21
-130.7135327
0
ARC
8
0
10
184.3714353
20
-129.0393595
40
1.7
50
260
51
350
0
LINE
8
0
10
186.0456085
20
-129.3345614
11
188.3203996
21
-116.4335799
0
ARC
8
0
10
186.6462264
20
-116.138378
40
1.7
50
350
51
80
0
LINE
8
0
10
186.9414283
20
-114.4642048
11
173.055639
21
-112.0157655
0
ARC
8
0
10
172.7604371
20
-113.6899387
40
1.7
50
80
51
170
0
LINE
8
0
10
171.0862639
20
-113.3947368
11
168.8114728
21
-126.2957183
0
ARC
8
0
10
170.485646
20
-126.5909202
40
1.7
50
170
51
260
0
LINE
8
0
10
173.1424631
20
-111.5233617
11
187.0282524
21
-113.971801
0
ARC
8
0
10
187.3234543
20
-112.2976278
40
1.7
50
260
51
350
0
LINE
8
0
10
188.9976275
20
-112.5928297
11
191.2724186
21
-99.6918482
0
ARC
8
0
10
189.5982454
20
-99.3966463
40
1.7
50
350
51
80
0
LINE
8
0
10
189.8934473
20
-97.7224731
11
176.007658
21
-95.2740338
0
ARC
8
0
10
175.7124561
20
-96.948207
40
1.7
50
80
51
170
0
LINE
8
0
10
174.0382829
20
-96.6530051
11
171.7634918
21
-109.5539866
0
ARC
8
0
10
173.437665
20
-109.8491885
40
1.7
50
170
51
260
0
LINE
8
0
10
176.0944822
20
-94.7816298
11
189.9802715
21
-97.2300691
0
ARC
8
0
10
190.2754734
20
-95.5558959
40
1.7
50
260
51
350
0
LINE
8
0
10
191.9496466
20
-95.8510978
11
194.2244377
21
-82.9501163
0
ARC
8
0
10
192.5502645
20
-82.6549144
40
1.7
50
350
51
80
0
LINE
8
0
10
192.8454664
20
-80.9807412
11
178.9596771
21
-78.5323019
0
ARC
8
0
10
178.6644752
20
-80.2064751
40
1.7
50
80
51
170
0
LINE
8
0
10
176.990302
20
-79.9112732
11
174.7155109
21
-92.8122547
0
ARC
8
0
10
176.3896841
20
-93.1074566
40
1.7
50
170
51
260
0
LINE
8
0
10
143.1303313
20
-140.7559179
11
157.0161206
21
-143.2043572
0
ARC
8
0
10
157.3113225
20
-141.530184
40
1.7
50
260
51
350
0
LINE
8
0
10
158.9854957
20
-141.8253859
11
161.2602868
21
-128.9244044
0
ARC
8
0
10
159.5861136
20
-128.6292025
40
1.7
50
350
51
80
0
LINE
8
0
10
159.8813155
20
-126.9550293
11
145.9955262
21
-124.50659
0
ARC
8
0
10
145.7003243
20
-126.1807632
40
1.7
50
80
51
170
0
LINE
8
0
10
144.0261511
20
-125.8855613
11
141.75136
21
-138.7865428
0
ARC
8
0
10
143.4255332
20
-139.0817447
40
1.7
50
170
51
260
0
LINE
8
0
10
160.8248982
20
-144.153992
11
174.234795
21
-148.5111317
0
ARC
8
0
10
174.7601239
20
-146.8943356
40
1.7
50
252
51
342
0
LINE
8
0
10
176.37692
20
-147.4196645
11
180.4250426
21
-134.9608241
0
ARC
8
0
10
178.8082466
20
-134.4354952
40
1.7
50
342
51
72
0
LINE
8
0
10
179.3335754
20
-132.8186992
11
165.9236786
21
-128.4615595
0
ARC
8
0
10
165.3983497
20
-130.0783556
40
1.7
50
72
51
162
0
LINE
8
0
10
163.7815536
20
-129.5530267
11
159.733431
21
-142.0118671
0
ARC
8
0
10
161.350227
20
-142.537196
40
1.7
50
162
51
252
0
LINE
8
0
10
177.8743421
20
-149.9816042
11
190.5473382
21
-156.1626374
0
ARC
8
0
10
191.2925691
20
-154.6346875
40
1.7
50
244
51
334
0
LINE
8
0
10
192.820519
20
-155.3799184
11
198.563181
21
-143.6057164
0
ARC
8
0
10
197.0352311
20
-142.8604855
40
1.7
50
334
51
64
0
LINE
8
0
10
197.7804621
20
-141.3325356
11
185.107466
21
-135.1515024
0
ARC
8
0
10
184.3622351
20
-136.6794523
40
1.7
50
64
51
154
0
LINE
8
0
10
182.8342852
20
-135.9342214
11
177.0916232
21
-147.7084234
0
ARC
8
0
10
178.6195731
20
-148.4536543
40
1.7
50
154
51
244
0
LINE
8
0
10
300.8901918
20
-120.7282795
11
314.9129505
21
-119.2544282
0
ARC
8
0
10
314.7352521
20
-117.5637409
40
1.7
50
276
51
6
0
LINE
8
0
10
316.4259393
20
-117.3860426
11
315.0566165
21
-104.3578057
0
ARC
8
0
10
313.3659292
20
-104.5355041
40
1.7
50
6
51
96
0
LINE
8
0
10
313.1882308
20
-102.8448169
11
299.1654721
21
-104.3186682
0
ARC
8
0
10
299.3431705
20
-106.0093555
40
1.7
50
96
51
186
0
LINE
8
0
10
297.6524833
20
-106.1870538
11
299.0218061
21
-119.2152907
0
ARC
8
0
10
300.7124934
20
-119.0375923
40
1.7
50
186
51
276
0
LINE
8
0
10
299.1132079
20
-103.8214073
11
313.1359666
21
-102.347556
0
ARC
8
0
10
312.9582682
20
-100.6568687
40
1.7
50
276
51
6
0
LINE
8
0
10
314.6489554
20
-100.4791704
11
313.2796326
21
-87.4509335
0
ARC
8
0
10
311.5889453
20
-87.6286319
40
1.7
50
6
51
96
0
LINE
8
0
10
311.4112469
20
-85.9379447
11
297.3884882
21
-87.411796
0
ARC
8
0
10
297.5661866
20
-89.1024833
40
1.7
50
96
51
186
0
LINE
8
0
10
295.8754994
20
-89.2801816
11
297.2448222
21
-102.3084185
0
ARC
8
0
10
298.9355095
20
-102.1307201
40
1.7
50
186
51
276
0
LINE
8
0
10
297.336224
20
-86.914535
11
311.3589827
21
-85.4406837
0
ARC
8
0
10
311.1812843
20
-83.7499964
40
1.7
50
276
51
6
0
LINE
8
0
10
312.8719715
20
-83.5722981
11
311.5026487
21
-70.5440612
0
ARC
8
0
10
309.8119614
20
-70.7217596
40
1.7
50
6
51
96
0
LINE
8
0
10
309.634263
20
-69.0310724
11
295.6115043
21
-70.5049237
0
ARC
8
0
10
295.7892027
20
-72.195611
40
1.7
50
96
51
186
0
LINE
8
0
10
294.0985155
20
-72.3733093
11
295.4678383
21
-85.4015462
0
ARC
8
0
10
297.1585256
20
-85.2238478
40
1.7
50
186
51
276
0
LINE
8
0
10
282.6309194
20
-118.9976127
11
296.5167087
21
-116.5491734
0
ARC
8
0
10
296.2215068
20
-114.8750002
40
1.7
50
280
51
10
0
LINE
8
0
10
297.89568
20
-114.5797983
11
295.6208889
21
-101.6788168
0
ARC
8
0
10
293.9467157
20
-101.9740187
40
1.7
50
10
51
100
0
LINE
8
0
10
293.6515138
20
-100.2998455
11
279.7657245
21
-102.7482848
0
ARC
8
0
10
280.0609264
20
-104.422458
40
1.7
50
100
51
190
0
LINE
8
0
10
278.3867532
20
-104.7176599
11
280.6615443
21
-117.6186414
0
ARC
8
0
10
282.3357175
20
-117.3234395
40
1.7
50
190
51
280
0
LINE
8
0
10
279.6789005
20
-102.255881
11
293.5646898
21
-99.8074417
0
ARC
8
0
10
293.2694879
20
-98.1332685
40
1.7
50
280
51
10
0
LINE
8
0
10
294.9436611
20
-97.8380666
11
292.66887
21
-84.9370851
0
ARC
8
0
10
290.9946968
20
-85.232287
40
1.7
50
10
51
100
0
LINE
8
0
10
290.6994949
20
-83.5581138
11
276.8137056
21
-86.0065531
0
ARC
8
0
10
277.1089075
20
-87.6807263
40
1.7
50
100
51
190
0
LINE
8
0
10
275.4347343
20
-87.9759282
11
277.7095254
21
-100.8769097
0
ARC
8
0
10
279.3836986
20
-100.5817078
40
1.7
50
190
51
280
0
LINE
8
0
10
276.7268814
20
-85.5141491
11
290.6126707
21
-83.0657098
0
ARC
8
0
10
290.3174688
20
-81.3915366
40
1.7
50
280
51
10
0
LINE
8
0
10
291.991642
20
-81.0963347
11
289.7168509
21
-68.1953532
0
ARC
8
0
10
288.0426777
20
-68.4905551
40
1.7
50
10
51
100
0
LINE
8
0
10
287.7474758
20
-66.8163819
11
273.8616865
21
-69.2648212
0
ARC
8
0
10
274.1568884
20
-70.9389944
40
1.7
50
100
51
190
0
LINE
8
0
10
272.4827152
20
-71.2341963
11
274.7575063
21
-84.1351778
0
ARC
8
0
10
276.4316795
20
-83.8399759
40
1.7
50
190
51
280
0
LINE
8
0
10
264.4919655
20
-119.7843615
11
278.3777548
21
-117.3359222
0
ARC
8
0
10
278.0825529
20
-115.661749
40
1.7
50
280
51
10
0
LINE
8
0
10
279.7567261
20
-115.3665471
11
277.481935
21
-102.4655656
0
ARC
8
0
10
275.8077618
20
-102.7607675
40
1.7
50
10
51
100
0
LINE
8
0
10
275.5125599
20
-101.0865943
11
261.6267706
21
-103.5350336
0
ARC
8
0
10
261.9219725
20
-105.2092068
40
1.7
50
100
51
190
0
LINE
8
0
10
260.2477993
20
-105.5044087
11
262.5225904
21
-118.4053902
0
ARC
8
0
10
264.1967636
20
-118.1101883
40
1.7
50
190
51
280
0
LINE
8
0
10
261.5399464
20
-103.0426298
11
275.4257357
21
-100.5941905
0
ARC
8
0
10
275.1305338
20
-98.9200173
40
1.7
50
280
51
10
0
LINE
8
0
10
276.804707
20
-98.6248154
11
274.5299159
21
-85.7238339
0
ARC
8
0
10
272.8557427
20
-86.0190358
40
1.7
50
10
51
100
0
LINE
8
0
10
272.5605408
20
-84.3448626
11
258.6747515
21
-86.7933019
0
ARC
8
0
10
258.9699534
20
-88.4674751
40
1.7
50
100
51
190
0
LINE
8
0
10
257.2957802
20
-88.762677
11
259.5705713
21
-101.6636585
0
ARC
8
0
10
261.2447445
20
-101.3684566
40
1.7
50
190
51
280
0
LINE
8
0
10
258.5879275
20
-86.3008979
11
272.4737168
21
-83.8524586
0
ARC
8
0
10
272.1785149
20
-82.1782854
40
1.7
50
280
51
10
0
LINE
8
0
10
273.8526881
20
-81.8830835
11
271.577897
21
-68.982102
0
ARC
8
0
10
269.9037238
20
-69.2773039
40
1.7
50
10
51
100
0
LINE
8
0
10
269.6085219
20
-67.6031307
11
255.7227326
21
-70.05157
0
ARC
8
0
10
256.0179345
20
-71.7257432
40
1.7
50
100
51
190
0
LINE
8
0
10
254.3437613
20
-72.0209451
11
256.6185524
21
-84.9219266
0
ARC
8
0
10
258.2927256
20
-84.6267247
40
1.7
50
190
51
280
0
LINE
8
0
10
247.1778404
20
-125.2489472
11
261.0636297
21
-122.8005079
0
ARC
8
0
10
260.7684278
20
-121.1263347
40
1.7
50
280
51
10
0
LINE
8
0
10
262.442601
20
-120.8311328
11
260.1678099
21
-107.9301513
0
ARC
8
0
10
258.4936367
20
-108.2253532
40
1.7
50
10
51
100
0
LINE
8
0
10
258.1984348
20
-106.55118
11
244.3126455
21
-108.9996193
0
ARC
8
0
10
244.6078474
20
-110.6737925
40
1.7
50
100
51
190
0
LINE
8
0
10
242.9336742
20
-110.9689944
11
245.2084653
21
-123.8699759
0
ARC
8
0
10
246.8826385
20
-123.574774
40
1.7
50
190
51
280
0
LINE
8
0
10
244.2258214
20
-108.5072153
11
258.1116107
21
-106.058776
0
ARC
8
0
10
257.8164088
20
-104.3846028
40
1.7
50
280
51
10
0
LINE
8
0
10
259.490582
20
-104.0894009
11
257.2157909
21
-91.1884194
0
ARC
8
0
10
255.5416177
20
-91.4836213
40
1.7
50
10
51
100
0
LINE
8
0
10
255.2464158
20
-89.8094481
11
241.3606265
21
-92.2578874
0
ARC
8
0
10
241.6558284
20
-93.9320606
40
1.7
50
100
51
190
0
LINE
8
0
10
239.9816552
20
-94.2272625
11
242.2564463
21
-107.128244
0
ARC
8
0
10
243.9306195
20
-106.8330421
40
1.7
50
190
51
280
0
LINE
8
0
10
241.2738024
20
-91.7654836
11
255.1595917
21
-89.3170443
0
ARC
8
0
10
254.8643898
20
-87.6428711
40
1.7
50
280
51
10
0
LINE
8
0
10
256.538563
20
-87.3476692
11
254.2637719
21
-74.4466877
0
ARC
8
0
10
252.5895987
20
-74.7418896
40
1.7
50
10
51
100
0
LINE
8
0
10
252.2943968
20
-73.0677164
11
238.4086075
21
-75.5161557
0
ARC
8
0
10
238.7038094
20
-77.1903289
40
1.7
50
100
51
190
0
LINE
8
0
10
237.0296362
20
-77.4855308
11
239.3044273
21
-90.3865123
0
ARC
8
0
10
240.9786005
20
-90.0913104
40
1.7
50
190
51
280
0
LINE
8
0
10
229.8637152
20
-130.7135327
11
243.7495045
21
-128.2650934
0
ARC
8
0
10
243.4543026
20
-126.5909202
40
1.7
50
280
51
10
0
LINE
8
0
10
245.1284758
20
-126.2957183
11
242.8536847
21
-113.3947368
0
ARC
8
0
10
241.1795115
20
-113.6899387
40
1.7
50
10
51
100
0
LINE
8
0
10
240.8843096
20
-112.0157655
11
226.9985203
21
-114.4642048
0
ARC
8
0
10
227.2937222
20
-116.138378
40
1.7
50
100
51
190
0
LINE
8
0
10
225.619549
20
-116.4335799
11
227.8943401
21
-129.3345614
0
ARC
8
0
10
229.5685133
20
-129.0393595
40
1.7
50
190
51
280
0
LINE
8
0
10
226.9116962
20
-113.971801
11
240.7974855
21
-111.5233617
0
ARC
8
0
10
240.5022836
20
-109.8491885
40
1.7
50
280
51
10
0
LINE
8
0
10
242.1764568
20
-109.5539866
11
239.9016657
21
-96.6530051
0
ARC
8
0
10
238.2274925
20
-96.948207
40
1.7
50
10
51
100
0
LINE
8
0
10
237.9322906
20
-95.2740338
11
224.0465013
21
-97.7224731
0
ARC
8
0
10
224.3417032
20
-99.3966463
40
1.7
50
100
51
190
0
LINE
8
0
10
222.66753
20
-99.6918482
11
224.9423211
21
-112.5928297
0
ARC
8
0
10
226.6164943
20
-112.2976278
40
1.7
50
190
51
280
0
LINE
8
0
10
223.9596771
20
-97.2300691
11
237.8454664
21
-94.7816298
0
ARC
8
0
10
237.5502645
20
-93.1074566
40
1.7
50
280
51
10
0
LINE
8
0
10
239.2244377
20
-92.8122547
11
236.9496466
21
-79.9112732
0
ARC
8
0
10
235.2754734
20
-80.2064751
40
1.7
50
10
51
100
0
LINE
8
0
10
234.9802715
20
-78.5323019
11
221.0944822
21
-80.9807412
0
ARC
8
0
10
221.3896841
20
-82.6549144
40
1.7
50
100
51
190
0
LINE
8
0
10
219.7155109
20
-82.9501163
11
221.990302
21
-95.8510978
0
ARC
8
0
10
223.6644752
20
-95.5558959
40
1.7
50
190
51
280
0
LINE
8
0
10
256.923828
20
-143.2043572
11
270.8096173
21
-140.7559179
0
ARC
8
0
10
270.5144154
20
-139.0817447
40
1.7
50
280
51
10
0
LINE
8
0
10
272.1885886
20
-138.7865428
11
269.9137975
21
-125.8855613
0
ARC
8
0
10
268.2396243
20
-126.1807632
40
1.7
50
10
51
100
0
LINE
8
0
10
267.9444224
20
-124.50659
11
254.0586331
21
-126.9550293
0
ARC
8
0
10
254.353835
20
-128.6292025
40
1.7
50
100
51
190
0
LINE
8
0
10
252.6796618
20
-128.9244044
11
254.9544529
21
-141.8253859
0
ARC
8
0
10
256.6286261
20
-141.530184
40
1.7
50
190
51
280
0
LINE
8
0
10
239.7051536
20
-148.5111317
11
253.1150504
21
-144.153992
0
ARC
8
0
10
252.5897216
20
-142.537196
40
1.7
50
288
51
18
0
LINE
8
0
10
254.2065176
20
-142.0118671
11
250.158395
21
-129.5530267
0
ARC
8
0
10
248.5415989
20
-130.0783556
40
1.7
50
18
51
108
0
LINE
8
0
10
248.01627
20
-128.4615595
11
234.6063732
21
-132.8186992
0
ARC
8
0
10
235.131702
20
-134.4354952
40
1.7
50
108
51
198
0
LINE
8
0
10
233.514906
20
-134.9608241
11
237.5630286
21
-147.4196645
0
ARC
8
0
10
239.1798247
20
-146.8943356
40
1.7
50
198
51
288
0
LINE
8
0
10
223.3926104
20
-156.1626374
11
236.0656065
21
-149.9816042
0
ARC
8
0
10
235.3203755
20
-148.4536543
40
1.7
50
296
51
26
0
LINE
8
0
10
236.8483254
20
-147.7084234
11
231.1056634
21
-135.9342214
0
ARC
8
0
10
229.5777135
20
-136.6794523
40
1.7
50
26
51
116
0
LINE
8
0
10
228.8324826
20
-135.1515024
11
216.1594865
21
-141.3325356
0
ARC
8
0
10
216.9047175
20
-142.8604855
40
1.7
50
116
51
206
0
LINE
8
0
10
215.3767676
20
-143.6057164
11
221.1194296
21
-155.3799184
0
ARC
8
0
10
222.6473795
20
-154.6346875
40
1.7
50
206
51
296
0
CIRCLE
8
0
10
189.2257744
20
-128.5752559
40
1
0
CIRCLE
8
0
10
224.7141742
20
-128.5752559
40
1
0
CIRCLE
8
0
10
192.1777934
20
-111.8335242
40
1
0
CIRCLE
8
0
10
221.7621552
20
-111.8335242
40
1
0
CIRCLE
8
0
10
120.2802022
20
-82.7822848
40
1
0
CIRCLE
8
0
10
293.6597464
20
-82.7822848
40
1
0
CIRCLE
8
0
10
117.9190677
20
-99.6282056
40
1
0
CIRCLE
8
0
10
296.0208809
20
-99.6282056
40
1
0
CIRCLE
8
0
10
174.0507054
20
-92.2634754
40
1
0
CIRCLE
8
0
10
239.8892432
20
-92.2634754
40
1
0
CIRCLE
8
0
10
162.8488662
20
-127.9233959
40
1
0
CIRCLE
8
0
10
251.0910824
20
-127.9233959
40
1
0
LINE
8
0
10
227.3498418
20
-129.1259432
11
219.2752015
21
-83.3323827
0
LINE
8
0
10
216.9582896
20
-81.7100636
11
207.3172707
21
-83.4100355
0
LINE
8
0
10
206.6226779
20
-83.4100355
11
196.981659
21
-81.7100636
0
LINE
8
0
10
194.6647471
20
-83.3323827
11
186.5901068
21
-129.1259432
0
LINE
8
0
10
188.2124259
20
-131.4428551
11
206.6226779
21
-134.6890795
0
LINE
8
0
10
207.3172707
20
-134.6890795
11
225.7275227
21
-131.4428551
0
ARC
8
0
10
217.305586
20
-83.6796791
40
2
50
10.0000008
51
100.0000008
0
ARC
8
0
10
206.9699743
20
-81.44042
40
2
50
259.9999992
51
280.0000008
0
ARC
8
0
10
196.6343626
20
-83.6796791
40
2
50
79.9999992
51
169.9999992
0
ARC
8
0
10
188.5597223
20
-129.4732396
40
2
50
169.9999992
51
259.9999992
0
ARC
8
0
10
206.9699743
20
-132.719464
40
2
50
259.9999992
51
280.0000008
0
ARC
8
0
10
225.3802263
20
-129.4732396
40
2
50
280.0000008
51
10.0000008
0
ENDSEC
0
EOF