0
SECTION
2
HEADER
9
$INSUNITS
70
4
0
ENDSEC
0
SECTION
2
TABLES
0
TABLE
2
LTYPE
0
LTYPE
72
65
70
64
2
CONTINUOUS
3
______
73
0
40
0
0
ENDTAB
0
TABLE
2
LAYER
0
ENDTAB
0
ENDSEC
0
SECTION
2
ENTITIES
0
LINE
8
0
10
95.1382102
20
-120.8567166
11
116.5204309
21
-123.1040786
0
LINE
8
0
10
116.5204309
20
-123.1040786
11
117.0037031
21
-118.506051
0
LINE
8
0
10
95.1382102
20
-120.8567166
11
100.8350115
21
-66.6552733
0
LINE
8
0
10
100.8350115
20
-66.6552733
11
122.0702555
21
-68.8871874
0
LINE
8
0
10
117.0037031
20
-118.506051
11
142.5036797
21
-123.002385
0
LINE
8
0
10
140.62252
20
-67.3299353
11
122.8959805
21
-64.2042681
0
LINE
8
0
10
122.8959805
20
-64.2042681
11
122.0702555
21
-68.8871874
0
LINE
8
0
10
161.7958867
20
-71.0633712
11
162.2083011
21
-68.7244527
0
LINE
8
0
10
162.2083011
20
-68.7244527
11
141.0349344
21
-64.9910169
0
LINE
8
0
10
141.0349344
20
-64.9910169
11
140.62252
21
-67.3299353
0
LINE
8
0
10
179.1100118
20
-76.5279567
11
179.5224262
21
-74.1890384
0
LINE
8
0
10
179.5224262
20
-74.1890384
11
161.7958867
21
-71.0633712
0
LINE
8
0
10
196.8365515
20
-79.6536239
11
179.1100118
21
-76.5279567
0
LINE
8
0
10
139.1392462
20
-142.0830352
11
158.4686873
21
-145.4913372
0
LINE
8
0
10
139.1392462
20
-142.0830352
11
142.5036797
21
-123.002385
0
LINE
8
0
10
158.4686873
20
-145.4913372
11
175.3549384
21
-150.9780128
0
LINE
8
0
10
175.3549384
20
-150.9780128
11
192.9961338
21
-159.5821987
0
LINE
8
0
10
297.4195177
20
-123.1040786
11
318.8017384
21
-120.8567166
0
LINE
8
0
10
313.1049371
20
-66.6552733
11
318.8017384
21
-120.8567166
0
LINE
8
0
10
296.9362455
20
-118.506051
11
297.4195177
21
-123.1040786
0
LINE
8
0
10
291.8696931
20
-68.8871874
11
313.1049371
21
-66.6552733
0
LINE
8
0
10
271.4362689
20
-123.002385
11
296.9362455
21
-118.506051
0
LINE
8
0
10
291.8696931
20
-68.8871874
11
291.0439681
21
-64.2042681
0
LINE
8
0
10
291.0439681
20
-64.2042681
11
273.3174286
21
-67.3299353
0
LINE
8
0
10
273.3174286
20
-67.3299353
11
272.9050142
21
-64.9910169
0
LINE
8
0
10
272.9050142
20
-64.9910169
11
251.7316475
21
-68.7244527
0
LINE
8
0
10
251.7316475
20
-68.7244527
11
252.1440619
21
-71.0633712
0
LINE
8
0
10
252.1440619
20
-71.0633712
11
234.4175224
21
-74.1890384
0
LINE
8
0
10
234.4175224
20
-74.1890384
11
234.8299368
21
-76.5279567
0
LINE
8
0
10
234.8299368
20
-76.5279567
11
217.1033971
21
-79.6536239
0
LINE
8
0
10
255.4712613
20
-145.4913372
11
274.8007024
21
-142.0830352
0
LINE
8
0
10
271.4362689
20
-123.002385
11
274.8007024
21
-142.0830352
0
LINE
8
0
10
238.5850102
20
-150.9780128
11
255.4712613
21
-145.4913372
0
LINE
8
0
10
220.9438148
20
-159.5821987
11
238.5850102
21
-150.9780128
0
LINE
8
0
10
220.9438148
20
-159.5821987
11
206.9699743
21
-157.4070699
0
LINE
8
0
10
206.9699743
20
-157.4070699
11
192.9961338
21
-159.5821987
0
LINE
8
0
10
217.1033971
20
-79.6536239
11
225.8726302
21
-129.3864155
0
LINE
8
0
10
225.8726302
20
-129.3864155
11
188.0673184
21
-129.3864155
0
LINE
8
0
10
188.0673184
20
-129.3864155
11
196.8365515
21
-79.6536239
0
LINE
8
0
10
99.2911324
20
-117.9486847
11
113.0628738
21
-119.3961531
0
LINE
8
0
10
113.0628738
20
-119.3961531
11
114.5103422
21
-105.6244117
0
LINE
8
0
10
114.5103422
20
-105.6244117
11
100.7386008
21
-104.1769433
0
LINE
8
0
10
100.7386008
20
-104.1769433
11
99.2911324
21
-117.9486847
0
LINE
8
0
10
101.0681163
20
-101.0418125
11
114.8398577
21
-102.4892809
0
LINE
8
0
10
114.8398577
20
-102.4892809
11
116.2873261
21
-88.7175395
0
LINE
8
0
10
116.2873261
20
-88.7175395
11
102.5155847
21
-87.2700711
0
LINE
8
0
10
102.5155847
20
-87.2700711
11
101.0681163
21
-101.0418125
0
LINE
8
0
10
102.8451002
20
-84.1349402
11
116.6168416
21
-85.5824086
0
LINE
8
0
10
116.6168416
20
-85.5824086
11
118.06431
21
-71.8106672
0
LINE
8
0
10
118.06431
20
-71.8106672
11
104.2925686
21
-70.3631988
0
LINE
8
0
10
104.2925686
20
-70.3631988
11
102.8451002
21
-84.1349402
0
LINE
8
0
10
117.7778148
20
-115.2650358
11
131.4150387
21
-117.6696463
0
LINE
8
0
10
131.4150387
20
-117.6696463
11
133.8196492
21
-104.0324224
0
LINE
8
0
10
133.8196492
20
-104.0324224
11
120.1824253
21
-101.6278119
0
LINE
8
0
10
120.1824253
20
-101.6278119
11
117.7778148
21
-115.2650358
0
LINE
8
0
10
120.7298337
20
-98.5233041
11
134.3670576
21
-100.9279146
0
LINE
8
0
10
134.3670576
20
-100.9279146
11
136.7716681
21
-87.2906907
0
LINE
8
0
10
136.7716681
20
-87.2906907
11
123.1344442
21
-84.8860802
0
LINE
8
0
10
123.1344442
20
-84.8860802
11
120.7298337
21
-98.5233041
0
LINE
8
0
10
123.6818528
20
-81.7815722
11
137.3190767
21
-84.1861827
0
LINE
8
0
10
137.3190767
20
-84.1861827
11
139.7236872
21
-70.5489588
0
LINE
8
0
10
139.7236872
20
-70.5489588
11
126.0864633
21
-68.1443483
0
LINE
8
0
10
126.0864633
20
-68.1443483
11
123.6818528
21
-81.7815722
0
LINE
8
0
10
135.9167687
20
-116.0517846
11
149.5539926
21
-118.4563951
0
LINE
8
0
10
149.5539926
20
-118.4563951
11
151.9586031
21
-104.8191712
0
LINE
8
0
10
151.9586031
20
-104.8191712
11
138.3213792
21
-102.4145607
0
LINE
8
0
10
138.3213792
20
-102.4145607
11
135.9167687
21
-116.0517846
0
LINE
8
0
10
138.8687878
20
-99.3100529
11
152.5060117
21
-101.7146634
0
LINE
8
0
10
152.5060117
20
-101.7146634
11
154.9106222
21
-88.0774395
0
LINE
8
0
10
154.9106222
20
-88.0774395
11
141.2733983
21
-85.672829
0
LINE
8
0
10
141.2733983
20
-85.672829
11
138.8687878
21
-99.3100529
0
LINE
8
0
10
141.8208067
20
-82.568321
11
155.4580306
21
-84.9729315
0
LINE
8
0
10
155.4580306
20
-84.9729315
11
157.8626411
21
-71.3357076
0
LINE
8
0
10
157.8626411
20
-71.3357076
11
144.2254172
21
-68.9310971
0
LINE
8
0
10
144.2254172
20
-68.9310971
11
141.8208067
21
-82.568321
0
LINE
8
0
10
153.2308938
20
-121.5163703
11
166.8681177
21
-123.9209808
0
LINE
8
0
10
166.8681177
20
-123.9209808
11
169.2727282
21
-110.2837569
0
LINE
8
0
10
169.2727282
20
-110.2837569
11
155.6355043
21
-107.8791464
0
LINE
8
0
10
155.6355043
20
-107.8791464
11
153.2308938
21
-121.5163703
0
LINE
8
0
10
156.1829128
20
-104.7746384
11
169.8201367
21
-107.1792489
0
LINE
8
0
10
169.8201367
20
-107.1792489
11
172.2247472
21
-93.542025
0
LINE
8
0
10
172.2247472
20
-93.542025
11
158.5875233
21
-91.1374145
0
LINE
8
0
10
158.5875233
20
-91.1374145
11
156.1829128
21
-104.7746384
0
LINE
8
0
10
159.1349318
20
-88.0329067
11
172.7721557
21
-90.4375172
0
LINE
8
0
10
172.7721557
20
-90.4375172
11
175.1767662
21
-76.8002933
0
LINE
8
0
10
175.1767662
20
-76.8002933
11
161.5395423
21
-74.3956828
0
LINE
8
0
10
161.5395423
20
-74.3956828
11
159.1349318
21
-88.0329067
0
LINE
8
0
10
170.545019
20
-126.9809558
11
184.1822429
21
-129.3855663
0
LINE
8
0
10
184.1822429
20
-129.3855663
11
186.5868534
21
-115.7483424
0
LINE
8
0
10
186.5868534
20
-115.7483424
11
172.9496295
21
-113.3437319
0
LINE
8
0
10
172.9496295
20
-113.3437319
11
170.545019
21
-126.9809558
0
LINE
8
0
10
173.497038
20
-110.2392241
11
187.1342619
21
-112.6438346
0
LINE
8
0
10
187.1342619
20
-112.6438346
11
189.5388724
21
-99.0066107
0
LINE
8
0
10
189.5388724
20
-99.0066107
11
175.9016485
21
-96.6020002
0
LINE
8
0
10
175.9016485
20
-96.6020002
11
173.497038
21
-110.2392241
0
LINE
8
0
10
176.4490571
20
-93.4974922
11
190.086281
21
-95.9021027
0
LINE
8
0
10
190.086281
20
-95.9021027
11
192.4908915
21
-82.2648788
0
LINE
8
0
10
192.4908915
20
-82.2648788
11
178.8536676
21
-79.8602683
0
LINE
8
0
10
178.8536676
20
-79.8602683
11
176.4490571
21
-93.4974922
0
LINE
8
0
10
143.4849062
20
-139.4717803
11
157.1221301
21
-141.8763908
0
LINE
8
0
10
157.1221301
20
-141.8763908
11
159.5267406
21
-128.2391669
0
LINE
8
0
10
159.5267406
20
-128.2391669
11
145.8895167
21
-125.8345564
0
LINE
8
0
10
145.8895167
20
-125.8345564
11
143.4849062
21
-139.4717803
0
LINE
8
0
10
161.3547398
20
-142.9316988
11
174.52459
21
-147.2108426
0
LINE
8
0
10
174.52459
20
-147.2108426
11
178.8037338
21
-134.0409924
0
LINE
8
0
10
178.8037338
20
-134.0409924
11
165.6338836
21
-129.7618486
0
LINE
8
0
10
165.6338836
20
-129.7618486
11
161.3547398
21
-142.9316988
0
LINE
8
0
10
178.5691377
20
-148.844946
11
191.0152782
21
-154.9153343
0
LINE
8
0
10
191.0152782
20
-154.9153343
11
197.0856665
21
-142.4691938
0
LINE
8
0
10
197.0856665
20
-142.4691938
11
184.639526
21
-136.3988055
0
LINE
8
0
10
184.639526
20
-136.3988055
11
178.5691377
21
-148.844946
0
LINE
8
0
10
300.8770748
20
-119.3961531
11
314.6488162
21
-117.9486847
0
LINE
8
0
10
314.6488162
20
-117.9486847
11
313.2013478
21
-104.1769433
0
LINE
8
0
10
313.2013478
20
-104.1769433
11
299.4296064
21
-105.6244117
0
LINE
8
0
10
299.4296064
20
-105.6244117
11
300.8770748
21
-119.3961531
0
LINE
8
0
10
299.1000909
20
-102.4892809
11
312.8718323
21
-101.0418125
0
LINE
8
0
10
312.8718323
20
-101.0418125
11
311.4243639
21
-87.2700711
0
LINE
8
0
10
311.4243639
20
-87.2700711
11
297.6526225
21
-88.7175395
0
LINE
8
0
10
297.6526225
20
-88.7175395
11
299.1000909
21
-102.4892809
0
LINE
8
0
10
297.323107
20
-85.5824086
11
311.0948484
21
-84.1349402
0
LINE
8
0
10
311.0948484
20
-84.1349402
11
309.64738
21
-70.3631988
0
LINE
8
0
10
309.64738
20
-70.3631988
11
295.8756386
21
-71.8106672
0
LINE
8
0
10
295.8756386
20
-71.8106672
11
297.323107
21
-85.5824086
0
LINE
8
0
10
282.5249099
20
-117.6696463
11
296.1621338
21
-115.2650358
0
LINE
8
0
10
296.1621338
20
-115.2650358
11
293.7575233
21
-101.6278119
0
LINE
8
0
10
293.7575233
20
-101.6278119
11
280.1202994
21
-104.0324224
0
LINE
8
0
10
280.1202994
20
-104.0324224
11
282.5249099
21
-117.6696463
0
LINE
8
0
10
279.572891
20
-100.9279146
11
293.2101149
21
-98.5233041
0
LINE
8
0
10
293.2101149
20
-98.5233041
11
290.8055044
21
-84.8860802
0
LINE
8
0
10
290.8055044
20
-84.8860802
11
277.1682805
21
-87.2906907
0
LINE
8
0
10
277.1682805
20
-87.2906907
11
279.572891
21
-100.9279146
0
LINE
8
0
10
276.6208719
20
-84.1861827
11
290.2580958
21
-81.7815722
0
LINE
8
0
10
290.2580958
20
-81.7815722
11
287.8534853
21
-68.1443483
0
LINE
8
0
10
287.8534853
20
-68.1443483
11
274.2162614
21
-70.5489588
0
LINE
8
0
10
274.2162614
20
-70.5489588
11
276.6208719
21
-84.1861827
0
LINE
8
0
10
264.385956
20
-118.4563951
11
278.0231799
21
-116.0517846
0
LINE
8
0
10
278.0231799
20
-116.0517846
11
275.6185694
21
-102.4145607
0
LINE
8
0
10
275.6185694
20
-102.4145607
11
261.9813455
21
-104.8191712
0
LINE
8
0
10
261.9813455
20
-104.8191712
11
264.385956
21
-118.4563951
0
LINE
8
0
10
261.4339369
20
-101.7146634
11
275.0711608
21
-99.3100529
0
LINE
8
0
10
275.0711608
20
-99.3100529
11
272.6665503
21
-85.672829
0
LINE
8
0
10
272.6665503
20
-85.672829
11
259.0293264
21
-88.0774395
0
LINE
8
0
10
259.0293264
20
-88.0774395
11
261.4339369
21
-101.7146634
0
LINE
8
0
10
258.481918
20
-84.9729315
11
272.1191419
21
-82.568321
0
LINE
8
0
10
272.1191419
20
-82.568321
11
269.7145314
21
-68.9310971
0
LINE
8
0
10
269.7145314
20
-68.9310971
11
256.0773075
21
-71.3357076
0
LINE
8
0
10
256.0773075
20
-71.3357076
11
258.481918
21
-84.9729315
0
LINE
8
0
10
247.0718309
20
-123.9209808
11
260.7090548
21
-121.5163703
0
LINE
8
0
10
260.7090548
20
-121.5163703
11
258.3044443
21
-107.8791464
0
LINE
8
0
10
258.3044443
20
-107.8791464
11
244.6672204
21
-110.2837569
0
LINE
8
0
10
244.6672204
20
-110.2837569
11
247.0718309
21
-123.9209808
0
LINE
8
0
10
244.1198119
20
-107.1792489
11
257.7570358
21
-104.7746384
0
LINE
8
0
10
257.7570358
20
-104.7746384
11
255.3524253
21
-91.1374145
0
LINE
8
0
10
255.3524253
20
-91.1374145
11
241.7152014
21
-93.542025
0
LINE
8
0
10
241.7152014
20
-93.542025
11
244.1198119
21
-107.1792489
0
LINE
8
0
10
241.1677929
20
-90.4375172
11
254.8050168
21
-88.0329067
0
LINE
8
0
10
254.8050168
20
-88.0329067
11
252.4004063
21
-74.3956828
0
LINE
8
0
10
252.4004063
20
-74.3956828
11
238.7631824
21
-76.8002933
0
LINE
8
0
10
238.7631824
20
-76.8002933
11
241.1677929
21
-90.4375172
0
LINE
8
0
10
229.7577057
20
-129.3855663
11
243.3949296
21
-126.9809558
0
LINE
8
0
10
243.3949296
20
-126.9809558
11
240.9903191
21
-113.3437319
0
LINE
8
0
10
240.9903191
20
-113.3437319
11
227.3530952
21
-115.7483424
0
LINE
8
0
10
227.3530952
20
-115.7483424
11
229.7577057
21
-129.3855663
0
LINE
8
0
10
226.8056867
20
-112.6438346
11
240.4429106
21
-110.2392241
0
LINE
8
0
10
240.4429106
20
-110.2392241
11
238.0383001
21
-96.6020002
0
LINE
8
0
10
238.0383001
20
-96.6020002
11
224.4010762
21
-99.0066107
0
LINE
8
0
10
224.4010762
20
-99.0066107
11
226.8056867
21
-112.6438346
0
LINE
8
0
10
223.8536676
20
-95.9021027
11
237.4908915
21
-93.4974922
0
LINE
8
0
10
237.4908915
20
-93.4974922
11
235.086281
21
-79.8602683
0
LINE
8
0
10
235.086281
20
-79.8602683
11
221.4490571
21
-82.2648788
0
LINE
8
0
10
221.4490571
20
-82.2648788
11
223.8536676
21
-95.9021027
0
LINE
8
0
10
256.8178185
20
-141.8763908
11
270.4550424
21
-139.4717803
0
LINE
8
0
10
270.4550424
20
-139.4717803
11
268.0504319
21
-125.8345564
0
LINE
8
0
10
268.0504319
20
-125.8345564
11
254.413208
21
-128.2391669
0
LINE
8
0
10
254.413208
20
-128.2391669
11
256.8178185
21
-141.8763908
0
LINE
8
0
10
239.4153586
20
-147.2108426
11
252.5852088
21
-142.9316988
0
LINE
8
0
10
252.5852088
20
-142.9316988
11
248.306065
21
-129.7618486
0
LINE
8
0
10
248.306065
20
-129.7618486
11
235.1362148
21
-134.0409924
0
LINE
8
0
10
235.1362148
20
-134.0409924
11
239.4153586
21
-147.2108426
0
LINE
8
0
10
222.9246704
20
-154.9153343
11
235.3708109
21
-148.844946
0
LINE
8
0
10
235.3708109
20
-148.844946
11
229.3004226
21
-136.3988055
0
LINE
8
0
10
229.3004226
20
-136.3988055
11
216.8542821
21
-142.4691938
0
LINE
8
0
10
216.8542821
20
-142.4691938
11
222.9246704
21
-154.9153343
0
CIRCLE
8
0
10
189.2257744
20
-128.5752559
40
2.5
0
CIRCLE
8
0
10
224.7141742
20
-128.5752559
40
2.5
0
CIRCLE
8
0
10
192.1777934
20
-111.8335242
40
2.5
0
CIRCLE
8
0
10
221.7621552
20
-111.8335242
40
2.5
0
CIRCLE
8
0
10
120.2802022
20
-82.7822848
40
1
0
CIRCLE
8
0
10
293.6597464
20
-82.7822848
40
1
0
CIRCLE
8
0
10
117.9190677
20
-99.6282056
40
1
0
CIRCLE
8
0
10
296.0208809
20
-99.6282056
40
1
0
CIRCLE
8
0
10
174.0507054
20
-92.2634754
40
1
0
CIRCLE
8
0
10
239.8892432
20
-92.2634754
40
1
0
CIRCLE
8
0
10
162.8488662
20
-127.9233959
40
1
0
CIRCLE
8
0
10
251.0910824
20
-127.9233959
40
1
0
ENDSEC
0
EOF